<?xml version="1.0" encoding="UTF-8" standalone="no"?>
<!-- Created with Inkscape (http://www.inkscape.org/) -->

<svg
   xmlns:dc="http://purl.org/dc/elements/1.1/"
   xmlns:cc="http://creativecommons.org/ns#"
   xmlns:rdf="http://www.w3.org/1999/02/22-rdf-syntax-ns#"
   xmlns:svg="http://www.w3.org/2000/svg"
   xmlns="http://www.w3.org/2000/svg"
   xmlns:xlink="http://www.w3.org/1999/xlink"
   xmlns:sodipodi="http://sodipodi.sourceforge.net/DTD/sodipodi-0.dtd"
   xmlns:inkscape="http://www.inkscape.org/namespaces/inkscape"
   height="410"
   id="svg1"
   inkscape:version="0.48.0 r9654"
   sodipodi:docname="better-v2.svg"
   sodipodi:version="0.32"
   width="1650"
   version="1.1">
  <metadata
     id="metadata3">
    <rdf:RDF>
      <cc:Work
         rdf:about="">
        <dc:title></dc:title>
        <dc:description />
        <dc:subject>
          <rdf:Bag>
            <rdf:li />
            <rdf:li>webpage</rdf:li>
            <rdf:li>button</rdf:li>
            <rdf:li>shape</rdf:li>
          </rdf:Bag>
        </dc:subject>
        <dc:publisher>
          <cc:Agent
             rdf:about="http://www.openclipart.org">
            <dc:title>Benji Park</dc:title>
          </cc:Agent>
        </dc:publisher>
        <dc:creator>
          <cc:Agent>
            <dc:title>Benji Park</dc:title>
          </cc:Agent>
        </dc:creator>
        <dc:rights>
          <cc:Agent>
            <dc:title>Benji Park</dc:title>
          </cc:Agent>
        </dc:rights>
        <dc:date />
        <dc:format>image/svg+xml</dc:format>
        <dc:type
           rdf:resource="http://purl.org/dc/dcmitype/StillImage" />
        <cc:license
           rdf:resource="http://web.resource.org/cc/PublicDomain" />
        <dc:language>en</dc:language>
      </cc:Work>
      <cc:License
         rdf:about="http://web.resource.org/cc/PublicDomain">
        <cc:permits
           rdf:resource="http://web.resource.org/cc/Reproduction" />
        <cc:permits
           rdf:resource="http://web.resource.org/cc/Distribution" />
        <cc:permits
           rdf:resource="http://web.resource.org/cc/DerivativeWorks" />
      </cc:License>
    </rdf:RDF>
  </metadata>
  <defs
     id="defs3">
    <linearGradient
       id="linearGradient5612">
      <stop
         style="stop-color:#ffffff;stop-opacity:0.69072163;"
         offset="0.0000000"
         id="stop5614" />
      <stop
         style="stop-color:#ffffff;stop-opacity:0.0000000;"
         offset="1.0000000"
         id="stop5616" />
    </linearGradient>
    <linearGradient
       id="linearGradient1702">
      <stop
         id="stop1703"
         offset="0.0000000"
         style="stop-color:#ffffff;stop-opacity:0.69072163;" />
      <stop
         id="stop1704"
         offset="1.0000000"
         style="stop-color:#ffffff;stop-opacity:0.0000000;" />
    </linearGradient>
    <linearGradient
       id="linearGradient1697">
      <stop
         id="stop1698"
         offset="0.0000000"
         style="stop-color:#0e56db;stop-opacity:1.0000000;" />
      <stop
         id="stop1699"
         offset="1.0000000"
         style="stop-color:#071176;stop-opacity:1.0000000;" />
    </linearGradient>
    <radialGradient
       cx="522.89532"
       cy="481.86633"
       fx="522.89911"
       fy="473.03323"
       gradientUnits="userSpaceOnUse"
       id="radialGradient1706"
       inkscape:collect="always"
       r="15.301119"
       xlink:href="#linearGradient1702" />
    <linearGradient
       gradientUnits="userSpaceOnUse"
       y2="400.85428"
       x2="267.28687"
       y1="174.61134"
       x1="251.37376"
       id="linearGradient3273"
       xlink:href="#linearGradient3275"
       inkscape:collect="always" />
    <inkscape:perspective
       id="perspective9"
       inkscape:persp3d-origin="372.04724 : 350.78739 : 1"
       inkscape:vp_z="744.09448 : 526.18109 : 1"
       inkscape:vp_y="0 : 1000 : 0"
       inkscape:vp_x="0 : 526.18109 : 1"
       sodipodi:type="inkscape:persp3d" />
    <linearGradient
       id="linearGradient3166">
      <stop
         id="stop3168"
         offset="0"
         style="stop-color:#ffffff;stop-opacity:1;" />
      <stop
         id="stop3170"
         offset="1"
         style="stop-color:#ffffff;stop-opacity:0" />
    </linearGradient>
    <linearGradient
       id="linearGradient3275">
      <stop
         style="stop-color:#ffffff;stop-opacity:1;"
         offset="0"
         id="stop3277" />
      <stop
         style="stop-color:#c3c3c3;stop-opacity:1"
         offset="1"
         id="stop3279" />
    </linearGradient>
    <linearGradient
       id="linearGradient3367">
      <stop
         style="stop-color:#ff7f00;stop-opacity:1"
         offset="0"
         id="stop3369" />
      <stop
         style="stop-color:#e64500;stop-opacity:1"
         offset="1"
         id="stop3371" />
    </linearGradient>
    <linearGradient
       id="linearGradient3427">
      <stop
         id="stop3429"
         offset="0"
         style="stop-color:#ffffff;stop-opacity:1;" />
      <stop
         id="stop3431"
         offset="1"
         style="stop-color:#ffffff;stop-opacity:0;" />
    </linearGradient>
    <linearGradient
       id="linearGradient3457">
      <stop
         style="stop-color:#ffffff;stop-opacity:0"
         offset="0"
         id="stop3459" />
      <stop
         style="stop-color:#ff0000;stop-opacity:1"
         offset="1"
         id="stop3461" />
    </linearGradient>
    <linearGradient
       id="linearGradient1702-6">
      <stop
         id="stop1703-8"
         offset="0.0000000"
         style="stop-color:#ffffff;stop-opacity:0.69072163;" />
      <stop
         id="stop1704-2"
         offset="1.0000000"
         style="stop-color:#ffffff;stop-opacity:0.0000000;" />
    </linearGradient>
    <linearGradient
       inkscape:collect="always"
       xlink:href="#linearGradient1697-2"
       id="linearGradient5768-0"
       gradientUnits="userSpaceOnUse"
       x1="520.57166"
       y1="506.28723"
       x2="520.57166"
       y2="466.2785" />
    <linearGradient
       id="linearGradient1697-2">
      <stop
         id="stop1698-5"
         offset="0.0000000"
         style="stop-color:#0e56db;stop-opacity:1.0000000;" />
      <stop
         id="stop1699-8"
         offset="1.0000000"
         style="stop-color:#071176;stop-opacity:1.0000000;" />
    </linearGradient>
    <linearGradient
       inkscape:collect="always"
       xlink:href="#linearGradient1697-2"
       id="linearGradient5770-4"
       gradientUnits="userSpaceOnUse"
       x1="522.94183"
       y1="469.49918"
       x2="522.94183"
       y2="505.0845" />
    <linearGradient
       id="linearGradient6080">
      <stop
         id="stop6082"
         offset="0.0000000"
         style="stop-color:#0e56db;stop-opacity:1.0000000;" />
      <stop
         id="stop6084"
         offset="1.0000000"
         style="stop-color:#071176;stop-opacity:1.0000000;" />
    </linearGradient>
    <linearGradient
       inkscape:collect="always"
       xlink:href="#linearGradient1697"
       id="linearGradient6202"
       gradientUnits="userSpaceOnUse"
       x1="520.57166"
       y1="506.28723"
       x2="520.57166"
       y2="466.2785" />
    <linearGradient
       inkscape:collect="always"
       xlink:href="#linearGradient1697"
       id="linearGradient6204"
       gradientUnits="userSpaceOnUse"
       x1="522.94183"
       y1="469.49918"
       x2="522.94183"
       y2="505.0845" />
    <linearGradient
       inkscape:collect="always"
       xlink:href="#linearGradient1702"
       id="linearGradient6206"
       gradientUnits="userSpaceOnUse"
       gradientTransform="matrix(1.5539,0,0,0.643542,-116.43962,-96.38621)"
       x1="213.82799"
       y1="183.48366"
       x2="214.59154"
       y2="463.47311" />
  </defs>
  <sodipodi:namedview
     bordercolor="#666666"
     borderopacity="1.0"
     id="base"
     inkscape:current-layer="layer2"
     inkscape:cx="1382.5383"
     inkscape:cy="403.7557"
     inkscape:pageopacity="0.0"
     inkscape:pageshadow="2"
     inkscape:window-height="1004"
     inkscape:window-width="1680"
     inkscape:window-x="0"
     inkscape:window-y="0"
     inkscape:zoom="0.52249228"
     pagecolor="#ffffff"
     showgrid="false"
     inkscape:window-maximized="1"
     inkscape:snap-grids="true"
     inkscape:snap-page="true"
     inkscape:snap-center="true" />
  <g
     id="layer1"
     inkscape:groupmode="layer"
     inkscape:label="button"
     transform="translate(0,3.75)"
     style="display:inline">
    <path
       d="m 544.06634,487.06226 c 0,11.47854 -9.3052,20.78374 -20.78375,20.78374 -11.47854,0 -20.78374,-9.3052 -20.78374,-20.78374 0,-11.47855 9.3052,-20.78375 20.78374,-20.78375 11.47855,0 20.78375,9.3052 20.78375,20.78375 z"
       id="path6182"
       sodipodi:cx="523.28259"
       sodipodi:cy="487.06226"
       sodipodi:rx="20.783747"
       sodipodi:ry="20.783747"
       sodipodi:type="arc"
       style="fill:url(#linearGradient6202);fill-opacity:1;fill-rule:nonzero;stroke:url(#linearGradient6204);stroke-width:1.3644532;stroke-linecap:round;stroke-linejoin:round;stroke-miterlimit:4;stroke-opacity:1;stroke-dashoffset:0"
       transform="matrix(9.161179,0,0,9.161179,-4576.0482,-4261.4109)" />
    <path
       d="M 356.15119,150.49979 C 400.51839,149.53299 343.75099,27.346894 220.47019,26.696994 85.908678,26.009894 58.374178,137.65839 79.750678,139.69419 c 0,0 36.864202,5.0627 71.939612,14.85613 56.4727,15.9308 125.5491,-13.06923 152.7688,-17.28363 30.3425,-4.6979 47.3734,15.3924 51.6921,13.2331 z"
       id="path6184"
       sodipodi:nodetypes="cccccc"
       style="opacity:0.9;fill:url(#linearGradient6206);fill-opacity:1;fill-rule:evenodd;stroke:none;display:inline"
       inkscape:connector-curvature="0" />
  </g>
  <g
     inkscape:groupmode="layer"
     id="layer4"
     inkscape:label="shadow"
     transform="translate(0,3.75)"
     style="display:inline" />
  <g
     inkscape:groupmode="layer"
     id="layer2"
     inkscape:label="fluxcap"
     style="display:inline"
     transform="translate(0,3.75)">
    <g
       style="font-size:279.76135254px;font-style:normal;font-variant:normal;font-weight:bold;font-stretch:normal;text-align:start;line-height:125%;letter-spacing:0px;word-spacing:0px;writing-mode:lr-tb;text-anchor:start;fill:#000000;fill-opacity:1;stroke:none;font-family:DejaVu Sans;-inkscape-font-specification:DejaVu Sans Bold"
       id="text5762">
      <path
         d="m 483.54035,95.191662 48.9036,0 0,212.553058 -48.9036,0 0,-212.553058"
         style="letter-spacing:-12.47877216"
         id="path3083" />
      <path
         d="m 567.22955,154.75023 48.90359,0 0,152.99449 -48.90359,0 0,-152.99449 m 0,-59.558568 48.90359,0 0,39.887848 -48.90359,0 0,-39.887848"
         style="letter-spacing:-12.47877216"
         id="path3085" />
      <path
         d="m 631.65783,154.75023 48.90359,0 38.11202,105.73012 37.97542,-105.73012 49.0402,0 -60.24158,152.99449 -53.68468,0 -60.10497,-152.99449"
         style="letter-spacing:-12.47877216"
         id="path3087" />
      <path
         d="m 973.66181,230.83767 0,13.93343 -114.33606,0 c 1.18383,11.47463 5.32742,20.08057 12.43081,25.81782 7.10323,5.73732 17.02965,8.60596 29.77928,8.60594 10.29059,2e-5 20.80895,-1.5026 31.55511,-4.50788 10.83697,-3.09628 21.94727,-7.74075 33.33095,-13.93342 l 0,37.70221 c -11.56582,4.37128 -23.13146,7.64973 -34.69697,9.83536 -11.56578,2.2767 -23.13142,3.41505 -34.69696,3.41505 -27.68479,0 -49.22239,-7.01224 -64.61285,-21.03674 -15.29947,-14.11553 -22.94919,-33.8773 -22.94918,-59.28536 -1e-5,-24.95257 7.5131,-44.57774 22.53937,-58.87556 15.11726,-14.29755 35.88078,-21.44639 62.29061,-21.44655 24.04187,1.6e-4 43.25723,7.24007 57.64614,21.71975 14.47967,14.47996 21.71958,33.83192 21.71975,58.05595 M 923.3922,214.582 c -1.3e-4,-9.28884 -2.73217,-16.75642 -8.19614,-22.40276 -5.37313,-5.73717 -12.43091,-8.60582 -21.17334,-8.60594 -9.47118,1.2e-4 -17.16643,2.68663 -23.08578,8.05953 -5.9195,5.28206 -9.60775,12.93178 -11.06478,22.94917 l 63.52004,0"
         style="letter-spacing:-12.47877216"
         id="path3089" />
      <path
         d="m 1098.4683,159.2581 0,23.76879 c -7.1035,-3.6426 -14.48,-6.37464 -22.1296,-8.19613 -7.6498,-1.82123 -15.5727,-2.73191 -23.7688,-2.73205 -12.4764,1.4e-4 -21.8564,1.91257 -28.1401,5.7373 -6.1926,3.82498 -9.2889,9.56227 -9.2889,17.21188 0,5.82846 2.2311,10.4274 6.6935,13.79682 4.4623,3.27855 13.4325,6.4204 26.9106,9.42555 l 8.606,1.91244 c 17.8492,3.82494 30.5077,9.24349 37.9754,16.25566 7.5585,6.92124 11.3379,16.61999 11.338,29.09627 -10e-5,14.20666 -5.6464,25.45357 -16.9387,33.74075 -11.2015,8.2872 -26.6375,12.4308 -46.3081,12.4308 -8.1962,0 -16.7566,-0.81961 -25.6813,-2.45884 -8.8336,-1.54815 -18.16808,-3.91592 -28.00342,-7.10331 l 0,-25.95442 c 9.28893,4.82664 18.44132,8.46936 27.45702,10.92817 9.0157,2.36779 17.9404,3.55168 26.7741,3.55166 11.8387,2e-5 20.9456,-2.00348 27.3204,-6.0105 6.3747,-4.09803 9.5621,-9.83532 9.5622,-17.21188 -10e-5,-6.83006 -2.3224,-12.06647 -6.9667,-15.70925 -4.5535,-3.64267 -14.6166,-7.14879 -30.1891,-10.51837 l -8.7426,-2.04904 c -15.5727,-3.27838 -26.8196,-8.28712 -33.7407,-15.02624 -6.92123,-6.83002 -10.38181,-16.1645 -10.3818,-28.00346 -10e-6,-14.38864 5.0998,-25.49894 15.2995,-33.33094 10.1995,-7.83171 24.6794,-11.74763 43.4395,-11.74779 9.2888,1.6e-4 18.0314,0.68317 26.2276,2.04903 8.196,1.36618 15.7547,3.41521 22.676,6.1471"
         style="font-size:279.76135254px;font-style:normal;font-variant:normal;font-weight:normal;font-stretch:normal;text-align:start;line-height:125%;writing-mode:lr-tb;text-anchor:start;font-family:DejaVu Sans;-inkscape-font-specification:DejaVu Sans"
         id="path3091" />
      <path
         d="m 1264.23,215.40162 0,92.3431 -25.1348,0 0,-91.52349 c -10e-5,-14.47973 -2.8232,-25.31683 -8.4693,-32.51133 -5.6464,-7.19425 -14.1157,-10.79144 -25.408,-10.79157 -13.5693,1.3e-4 -24.2698,4.32586 -32.1016,12.97721 -7.8319,8.65158 -11.7478,20.4449 -11.7478,35.37997 l 0,86.46921 -25.2714,0 0,-212.553058 25.2714,0 0,83.327358 c 6.0105,-9.19775 13.0683,-16.07339 21.1734,-20.62694 8.196,-4.55325 17.6216,-6.82995 28.2766,-6.83011 17.5761,1.6e-4 30.872,5.46424 39.8879,16.39227 9.0156,10.83724 13.5235,26.81968 13.5236,47.94738"
         style="letter-spacing:-13.59991169"
         id="path3093" />
      <path
         d="m 1301.0363,154.75023 25.1348,0 0,152.99449 -25.1348,0 0,-152.99449 m 0,-59.558568 25.1348,0 0,31.828318 -25.1348,0 0,-31.828318"
         style="letter-spacing:-13.59991169"
         id="path3095" />
      <path
         d="m 1442.48,95.191662 0,20.900138 -24.042,0 c -9.0159,1.9e-4 -15.2996,1.82155 -18.8511,5.46409 -3.4607,3.64291 -5.191,10.19981 -5.1909,19.67072 l 0,13.52362 41.3904,0 0,19.53412 -41.3904,0 0,133.46037 -25.2714,0 0,-133.46037 -24.042,0 0,-19.53412 24.042,0 0,-10.65497 c -1e-4,-17.02957 3.9614,-29.41482 11.8844,-37.15581 7.9228,-7.831649 20.4902,-11.747576 37.7022,-11.747788 l 23.7688,0"
         style="font-size:279.76135254px;font-style:normal;font-variant:normal;font-weight:normal;font-stretch:normal;text-align:start;line-height:125%;writing-mode:lr-tb;text-anchor:start;font-family:DejaVu Sans;-inkscape-font-specification:DejaVu Sans"
         id="path3097" />
      <path
         d="m 1473.5519,111.31072 0,43.43951 51.7723,0 0,19.53412 -51.7723,0 0,83.05415 c 0,12.47637 1.6847,20.49036 5.0543,24.04199 3.4605,3.55168 10.4272,5.32751 20.9001,5.32749 l 25.8179,0 0,21.03674 -25.8179,0 c -19.3975,0 -32.7845,-3.59719 -40.161,-10.79158 -7.3766,-7.28543 -11.0648,-20.4903 -11.0648,-39.61464 l 0,-83.05415 -18.4413,0 0,-19.53412 18.4413,0 0,-43.43951 25.2714,0"
         style="font-size:279.76135254px;font-style:normal;font-variant:normal;font-weight:normal;font-stretch:normal;text-align:start;line-height:125%;writing-mode:lr-tb;text-anchor:start;font-family:DejaVu Sans;-inkscape-font-specification:DejaVu Sans"
         id="path3099" />
    </g>
    <rect
       style="opacity:0.6;color:#000000;fill:#000000;fill-opacity:1;fill-rule:nonzero;stroke:none;stroke-width:12;marker:none;visibility:visible;display:inline;overflow:visible;enable-background:accumulate"
       id="rect6188"
       width="42.044968"
       height="183.05733"
       x="103.72446"
       y="113.74916"
       inkscape:transform-center-x="91.56515"
       inkscape:transform-center-y="4.0504502"
       transform="matrix(0.99999799,-0.00200372,0.00200372,0.99999799,0,0)" />
    <rect
       y="168.31982"
       x="159.46049"
       height="128.65155"
       width="42.044968"
       id="rect6229"
       style="opacity:0.6;color:#000000;fill:#000000;fill-opacity:1;fill-rule:nonzero;stroke:none;stroke-width:12;marker:none;visibility:visible;display:inline;overflow:visible;enable-background:accumulate"
       inkscape:transform-center-x="39.546357"
       inkscape:transform-center-y="37.955418"
       transform="matrix(0.99999799,-0.00200372,0.00200372,0.99999799,0,0)" />
    <rect
       style="opacity:0.6;color:#000000;fill:#000000;fill-opacity:1;fill-rule:nonzero;stroke:none;stroke-width:12;marker:none;visibility:visible;display:inline;overflow:visible;enable-background:accumulate"
       id="rect6231"
       width="42.044968"
       height="41.988049"
       x="159.46049"
       y="113.91402"
       inkscape:transform-center-x="27.730917"
       inkscape:transform-center-y="-59.065332"
       transform="matrix(0.99999799,-0.00200372,0.00200372,0.99999799,0,0)" />
    <rect
       style="opacity:0.9;color:#000000;fill:#ffffff;fill-opacity:1;fill-rule:nonzero;stroke:none;stroke-width:12;marker:none;visibility:visible;display:inline;overflow:visible;enable-background:accumulate"
       id="rect6233"
       width="42.044998"
       height="42.044998"
       x="156.28319"
       y="110.79946"
       inkscape:transform-center-x="30.51183"
       inkscape:transform-center-y="-62.512887"
       transform="matrix(0.99999799,-0.00200372,0.00200372,0.99999799,0,0)" />
    <rect
       y="165.9798"
       x="156.28319"
       height="127.81424"
       width="42.044968"
       id="rect6235"
       style="opacity:0.9;color:#000000;fill:#ffffff;fill-opacity:1;fill-rule:nonzero;stroke:none;stroke-width:12;marker:none;visibility:visible;display:inline;overflow:visible;enable-background:accumulate"
       inkscape:transform-center-x="42.366866"
       inkscape:transform-center-y="34.832864"
       transform="matrix(0.99999799,-0.00200372,0.00200372,0.99999799,0,0)" />
    <path
       style="opacity:0.6;color:#000000;fill:#000000;fill-opacity:1;fill-rule:nonzero;stroke:none;stroke-width:12;marker:none;visibility:visible;display:inline;overflow:visible;enable-background:accumulate"
       d="m 214.96831,295.25975 -0.11459,-59.17847 56.70194,-32.81062 -56.81939,-32.53106 -0.10961,-58.69849 158.84283,91.31334 z"
       id="path6226"
       inkscape:connector-curvature="0"
       sodipodi:nodetypes="ccccccc"
       inkscape:transform-center-x="-82.984822"
       inkscape:transform-center-y="14.450012" />
    <path
       sodipodi:nodetypes="ccccccc"
       inkscape:connector-curvature="0"
       id="path6194"
       d="m 212.96431,293.26377 -0.1146,-59.17847 56.70195,-32.81063 -56.81939,-32.53105 -0.10962,-58.69849 158.84284,91.31333 z"
       style="opacity:0.9;color:#000000;fill:#ffffff;fill-opacity:1;fill-rule:nonzero;stroke:none;stroke-width:12;marker:none;visibility:visible;display:inline;overflow:visible;enable-background:accumulate"
       inkscape:transform-center-x="-81.241268"
       inkscape:transform-center-y="12.222902" />
    <rect
       y="110.57191"
       x="100.54722"
       height="183.05733"
       width="42.044968"
       id="rect6198"
       style="opacity:0.9;color:#000000;fill:#ffffff;fill-opacity:1;fill-rule:nonzero;stroke:none;stroke-width:12;marker:none;visibility:visible;display:inline;overflow:visible;enable-background:accumulate"
       inkscape:transform-center-x="94.334991"
       inkscape:transform-center-y="0.51240303"
       transform="matrix(0.99999799,-0.00200372,0.00200372,0.99999799,0,0)" />
  </g>
  <g
     inkscape:groupmode="layer"
     id="layer3"
     inkscape:label="guides"
     style="display:none"
     transform="translate(0,3.75)">
    <path
       style="fill:none;stroke:#000000;stroke-width:1px;stroke-linecap:butt;stroke-linejoin:miter;stroke-opacity:1"
       d="m 406.25,204.71064 -406.25,0"
       id="path3805"
       inkscape:connector-curvature="0" />
    <path
       style="fill:none;stroke:#000000;stroke-width:1px;stroke-linecap:butt;stroke-linejoin:miter;stroke-opacity:1"
       d="M 0,0 406.25,406.25"
       id="path3809"
       inkscape:connector-curvature="0" />
    <path
       style="fill:none;stroke:#000000;stroke-width:1px;stroke-linecap:butt;stroke-linejoin:miter;stroke-opacity:1"
       d="M 406.25,0 0,406.25"
       id="path3811"
       inkscape:connector-curvature="0" />
    <path
       inkscape:connector-curvature="0"
       id="path3813"
       d="M 0,85.723403 406.25,320.27195"
       style="fill:none;stroke:#000000;stroke-width:1.15470052px;stroke-linecap:butt;stroke-linejoin:miter;stroke-opacity:1" />
    <path
       style="fill:none;stroke:#000000;stroke-width:1.15470052px;stroke-linecap:butt;stroke-linejoin:miter;stroke-opacity:1"
       d="M 406.25,85.723403 0,320.27195"
       id="path3815"
       inkscape:connector-curvature="0" />
    <path
       style="fill:none;stroke:#000000;stroke-width:1px;stroke-linecap:butt;stroke-linejoin:miter;stroke-opacity:1"
       d="m 204.1403,0.45886038 0,406.24999962"
       id="path3807"
       inkscape:connector-curvature="0" />
    <path
       sodipodi:type="star"
       style="opacity:0.8;color:#000000;fill:#ffffff;fill-opacity:0;fill-rule:nonzero;stroke:#ffffff;stroke-width:10;stroke-linecap:butt;stroke-linejoin:round;stroke-miterlimit:4;stroke-opacity:1;stroke-dasharray:none;stroke-dashoffset:0;marker:none;visibility:visible;display:inline;overflow:visible;enable-background:accumulate"
       id="path3791"
       sodipodi:sides="6"
       sodipodi:cx="-339.73779"
       sodipodi:cy="-113.14573"
       sodipodi:r1="201.34184"
       sodipodi:r2="100.67092"
       sodipodi:arg1="0.82990317"
       sodipodi:arg2="1.3535019"
       inkscape:flatsided="true"
       inkscape:rounded="0"
       inkscape:randomized="0"
       d="m -203.84268,35.417575 -196.60715,43.40697 -135.89512,-148.563304 60.71204,-191.970271 196.60715,-43.40697 135.89512,148.5633 z"
       transform="matrix(0.90501182,-0.2924837,0.28603883,0.90850157,543.97109,207.00916)" />
    <path
       style="fill:none;stroke:#000000;stroke-width:1.03051877px;stroke-linecap:butt;stroke-linejoin:miter;stroke-opacity:1;display:inline"
       d="m -310.75489,98.605211 157.14884,90.401429"
       id="path6150"
       inkscape:connector-curvature="0" />
    <path
       inkscape:connector-curvature="0"
       id="path6152"
       d="m -329.41545,129.46691 157.14884,90.40143"
       style="fill:none;stroke:#000000;stroke-width:1.03051877px;stroke-linecap:butt;stroke-linejoin:miter;stroke-opacity:1;display:inline" />
    <path
       style="fill:none;stroke:#000000;stroke-width:1px;stroke-linecap:butt;stroke-linejoin:miter;stroke-opacity:1;display:inline"
       d="m -151.19841,193.01115 -99.28376,0"
       id="path6154"
       inkscape:connector-curvature="0"
       transform="translate(0,-3.75)" />
    <path
       style="fill:none;stroke:#000000;stroke-width:1px;stroke-linecap:butt;stroke-linejoin:miter;stroke-opacity:1;display:inline"
       d="m -312.68405,284.40006 158.61479,-91.38891"
       id="path6156"
       inkscape:connector-curvature="0"
       transform="translate(0,-3.75)" />
    <path
       inkscape:connector-curvature="0"
       id="path6158"
       d="m -333.49775,250.0276 158.61479,-91.38891"
       style="fill:none;stroke:#000000;stroke-width:1px;stroke-linecap:butt;stroke-linejoin:miter;stroke-opacity:1;display:inline" />
    <path
       style="fill:none;stroke:#00ff0b;stroke-width:1px;stroke-linecap:butt;stroke-linejoin:miter;stroke-opacity:1"
       d="m -121.5329,647.32408 -160.52868,0"
       id="path6208"
       inkscape:connector-curvature="0"
       transform="translate(0,-3.75)" />
    <path
       style="fill:none;stroke:#01ff00;stroke-width:1px;stroke-linecap:butt;stroke-linejoin:miter;stroke-opacity:1"
       d="m -280.62616,555.69593 158.61479,91.62815"
       id="path6210"
       inkscape:connector-curvature="0"
       transform="translate(0,-3.75)" />
    <path
       style="fill:none;stroke:#00fc02;stroke-width:1px;stroke-linecap:butt;stroke-linejoin:miter;stroke-opacity:1"
       d="m -280.38692,739.66994 159.09326,-92.10662"
       id="path6212"
       inkscape:connector-curvature="0"
       transform="translate(0,-3.75)" />
    <path
       inkscape:connector-curvature="0"
       id="path6214"
       d="m -311.24862,593.3341 158.61479,91.62815"
       style="fill:none;stroke:#01ff00;stroke-width:1px;stroke-linecap:butt;stroke-linejoin:miter;stroke-opacity:1" />
    <path
       inkscape:connector-curvature="0"
       id="path6216"
       d="m -304.78919,691.26853 159.09326,-92.10662"
       style="fill:none;stroke:#00fc02;stroke-width:1px;stroke-linecap:butt;stroke-linejoin:miter;stroke-opacity:1" />
    <path
       style="fill:none;stroke:#01ff00;stroke-width:1px;stroke-linecap:butt;stroke-linejoin:miter;stroke-opacity:1"
       d="m -280.86539,556.17441 0.47847,58.61331"
       id="path6218"
       inkscape:connector-curvature="0"
       transform="translate(0,-3.75)" />
    <path
       inkscape:connector-curvature="0"
       id="path6220"
       d="m -280.62615,677.0674 0.47847,58.61331"
       style="fill:none;stroke:#01ff00;stroke-width:1px;stroke-linecap:butt;stroke-linejoin:miter;stroke-opacity:1" />
    <rect
       style="opacity:0.6;color:#000000;fill:#000000;fill-opacity:1;fill-rule:nonzero;stroke:#01ff00;stroke-width:1.32585371;stroke-linecap:butt;stroke-linejoin:round;stroke-miterlimit:4;stroke-opacity:1;stroke-dasharray:none;stroke-dashoffset:0;marker:none;visibility:visible;display:inline;overflow:visible;enable-background:accumulate"
       id="rect6222"
       width="12.61661"
       height="7.4163775"
       x="-351.51462"
       y="710.32147" />
    <rect
       y="711.51764"
       x="-295.53293"
       height="7.4163775"
       width="12.61661"
       id="rect6224"
       style="opacity:0.6;color:#000000;fill:#000000;fill-opacity:1;fill-rule:nonzero;stroke:#01ff00;stroke-width:1.32585371;stroke-linecap:butt;stroke-linejoin:round;stroke-miterlimit:4;stroke-opacity:1;stroke-dasharray:none;stroke-dashoffset:0;marker:none;visibility:visible;display:inline;overflow:visible;enable-background:accumulate" />
    <path
       style="fill:none;stroke:#000000;stroke-width:1px;stroke-linecap:butt;stroke-linejoin:miter;stroke-opacity:1"
       d="m -363.88098,740.0288 90.55158,0"
       id="path6239"
       inkscape:connector-curvature="0"
       transform="translate(0,-3.75)" />
  </g>
</svg>
