<?xml version="1.0" encoding="UTF-8" standalone="no"?>
<svg
   xmlns:dc="http://purl.org/dc/elements/1.1/"
   xmlns:cc="http://creativecommons.org/ns#"
   xmlns:rdf="http://www.w3.org/1999/02/22-rdf-syntax-ns#"
   xmlns:svg="http://www.w3.org/2000/svg"
   xmlns="http://www.w3.org/2000/svg"
   xmlns:sodipodi="http://sodipodi.sourceforge.net/DTD/sodipodi-0.dtd"
   xmlns:inkscape="http://www.inkscape.org/namespaces/inkscape"
   version="1.1"
   width="403.56"
   height="403.56"
   id="svg2"
   inkscape:version="0.48.3.1 r9886"
   sodipodi:docname="GNU_General_Public_License_3_Logo.svg">
  <metadata
     id="metadata46">
    <rdf:RDF>
      <cc:Work
         rdf:about="">
        <dc:format>image/svg+xml</dc:format>
        <dc:type
           rdf:resource="http://purl.org/dc/dcmitype/StillImage" />
      </cc:Work>
    </rdf:RDF>
  </metadata>
  <defs
     id="defs44" />
  <sodipodi:namedview
     pagecolor="#ffffff"
     bordercolor="#666666"
     borderopacity="1"
     objecttolerance="10"
     gridtolerance="10"
     guidetolerance="10"
     inkscape:pageopacity="0"
     inkscape:pageshadow="2"
     inkscape:window-width="1631"
     inkscape:window-height="1026"
     id="namedview42"
     showgrid="false"
     inkscape:zoom="0.97142429"
     inkscape:cx="153.77569"
     inkscape:cy="204.74319"
     inkscape:window-x="49"
     inkscape:window-y="24"
     inkscape:window-maximized="1"
     inkscape:current-layer="svg2"
     fit-margin-top="0"
     fit-margin-left="0"
     fit-margin-right="0"
     fit-margin-bottom="0" />
  <path
     d="m 312.1134,-104.62604 h -0.017 c -1.604,0 -3.019,0.528 -4.349,1.603 -0.989,0.784 -1.671,1.842 -2.217,3.019 h 0.068 c 0.545,-1.177 1.228,-2.234 2.199,-3.019 1.332,-1.075 2.748,-1.586 4.316,-1.603 z"
     style="fill:#bb2025"
     id="path4"
     inkscape:connector-curvature="0" />
  <path
     d="m 45.603393,-310.07005 -59.31,258.767006 c 0.017,0 0.019,0 0.053,0 H 260.7274 403.4334 c -17.002,-1.483 -30.424,-7.451 -38.422,-18.331 -1.482,-2.012 -2.709,-4.18 -3.783,-6.447 -0.682,-1.672 -1.324,-3.357 -1.971,-5.062 -1.705,-5.423 -2.387,-11.44 -2.078,-17.852 0.852,-17.870996 9.236,-39.127996 23.766,-61.387996 15.432,-23.657 37.799,-48.45101 65.492,-71.46001 6.207,-5.153 12.625,-10.242 19.344,-15.188 8.303,-6.109 16.672,-11.736 25.045,-16.998 30.848,-19.421 61.617,-33.011 88.885,-39.913 -26.057,8.5 -55.328,22.932 -84.248,42.577 -1.041,0.702 -2.068,1.422 -3.092,2.132 -16.047,11.117 -30.582,22.926 -43.27,34.85 -40.824,38.38501 -62.4,78.15901 -52.596,101.46101 0.699,1.604 1.533,3.134 2.504,4.583 10.539,15.5 36.656,18.18 69.754,9.858 2.252,-0.562 4.502,-1.2 6.822,-1.865 10.572,-3.053 21.797,-7.175 33.357,-12.256 2.779,-1.229 5.59,-2.49 8.42,-3.837 0.289,-0.137 0.562,-0.273 0.854,-0.427 36.49,-18.132 64.535,-38.994 70.605,-51.529 1.33,-2.727 1.65,-5.052 0.746,-6.874 -4.33,-8.782 -34.639,-2.85 -71.352,13.056 -2.951,1.278 -5.936,2.595 -8.953,3.996 2.455,-2.279 5.012,-4.568 7.621,-6.82 4.16,-3.585 8.467,-7.09 13.055,-10.552 7.18,-5.436 14.438,-10.351 21.582,-14.707 33.457,-25.24101 50.369,-49.11701 46.84,-57.97801 -0.664,-1.67 -2.08,-2.818 -4.264,-3.518 -6.975,-2.218 -19.703,0.43 -35.17,6.768 -12.754,5.232 -27.404,12.991 -42.258,22.647 l -2.023,1.333 -0.373,0.213 -7.141,4.742 4.102,-7.514 c 6.088,-11.144 16.004,-22.771 28.35,-33.571 9.055,-7.896 19.4,-15.338 30.535,-21.848 4.211,-2.466 8.416,-4.756 12.629,-6.821 4.314,-2.107 8.631,-3.98 12.842,-5.648 12.238,-4.84 23.918,-7.78 34.105,-8.579 -0.928,0 -28.615,0 -28.615,0 H 504.6264 79.334394 45.603393 z m 305.980007,0.373 c -1.672,25.505 3.273,62.861 14.494,104.33801 1.994,7.38 4.168,14.891 6.555,22.487 1.484,4.691 3.014,9.309 4.582,13.855 -0.92,1.354 -1.848,2.699 -2.717,4.05 -14,21.455 -22.184,41.73 -24.246,59.363 -5.918,-19.815 -10.373,-41.519 -12.896,-64.532 -0.717,-6.595 -1.277,-13.114 -1.652,-19.557 -2.763,-46.79601 3.347,-89.21701 15.88,-120.00401 z m -279.390006,33.198 c 0.319,-0.008 0.634,0 0.959,0 H 136.1924 c 5.389,0 9.556,1.01 12.522,3.037 2.95,2.04 4.057,4.678 3.357,7.887 l -7.514,33.944 h -22.221 l 7.3,-33.038 H 74.003394 l -20.090001,90.80301 -7.247,32.879 H 102.2464 l 0.053,-0.213 11.138,-50.305 H 87.327394 l 2.505,-11.35 H 138.1644 l -13.855,62.773 c -0.188,0.894 -0.516,1.703 -0.959,2.504 -1.143,2.081 -3.135,3.862 -5.915,5.329 -3.854,2.029 -8.466,3.037 -13.854,3.037 H 40.595393 c -5.389,0 -9.556,-1.008 -12.523,-3.037 -2.95,-2.029 -4.073,-4.621 -3.356,-7.833 l 27.763,-125.49401 c 0.716,-3.209 2.95,-5.847 6.821,-7.887 0.136,-0.073 0.289,-0.09 0.426,-0.16 3.531,-1.769 7.677001,-2.763 12.467001,-2.876 z m 98.796006,0 h 79.347 c 5.32,0 9.502,1.01 12.469,3.037 2.984,2.04 4.127,4.678 3.411,7.887 l -14.814,66.93001 c -0.699,3.189 -2.986,5.791 -6.874,7.834 -3.888,2.05 -8.465,3.091 -13.802,3.091 h -57.659 l -11.137,50.25 -1.812,8.26 h -21.741 l 1.652,-7.46 30.96,-139.82901 z m 109.614,0 h 21.741 l -24.619,111.21201 -5.382,24.3 h 52.009 c 0.546,3.988 1.184,7.906 1.865,11.776 h -78.227 l 6.181,-27.923 26.432,-119.36501 z m -90.483,11.83 -14.441,65.11801 h 54.194 l 14.388,-65.11801 h -54.141 z m -45.561,145.69001 c 0.213,-0.007 0.425,0 0.64,0 2.523,0 4.728,0.443 6.501,1.279 1.893,0.887 3.246,2.204 3.997,3.943 0.732,1.688 0.925,3.604 0.532,5.701 l -0.16,0.8 h -6.234 l 0.054,-0.746 c 0.161,-1.466 -0.021,-2.618 -0.587,-3.41 -0.073,-0.1 -0.18,-0.23 -0.266,-0.32 -0.141,-0.144 -0.353,-0.308 -0.533,-0.426 -0.872,-0.55 -2.237,-0.853 -3.997,-0.853 -2.336,0 -4.081,0.407 -5.275,1.226 -1.159,0.801 -1.893,1.696 -2.131,2.771 -0.239,1.092 0.153,1.665 0.426,1.972 0.009,0.009 0.043,0.044 0.054,0.054 0.345,0.294 1.545,0.984 5.275,1.865 3.376,0.818 5.612,1.554 6.874,2.185 1.91,0.972 3.244,2.231 3.943,3.782996 0.699,1.535 0.853,3.332 0.426,5.275 -0.426,1.894 -1.392,3.639 -2.824,5.275 -1.415,1.638 -3.216,2.934 -5.382,3.837 -2.148,0.887 -4.506,1.386 -6.928,1.386 -3.069,0 -5.533,-0.465 -7.46,-1.386 -2.012,-0.955 -3.464,-2.462 -4.316,-4.423 -0.818,-1.91 -0.993,-4.077 -0.533,-6.447 l 0.16,-0.746 h 6.128 l -0.053,0.746 c -0.153,1.415 -0.002,2.558 0.373,3.41 0.357,0.818 1.04,1.496 2.131,2.024 1.16,0.563 2.609,0.853 4.264,0.853 1.483,0 2.839,-0.249 4.05,-0.692 1.193,-0.426 2.143,-0.989 2.824,-1.705 0.665,-0.716 1.055,-1.473 1.226,-2.291 0.171,-0.733 0.13,-1.354 -0.16,-1.865 -0.323,-0.546 -0.965,-1.029 -1.972,-1.439 l -5.222,-1.545 c -2.916,-0.733 -4.879,-1.432996 -6.021,-2.131996 -1.552,-0.921 -2.671,-2.102 -3.251,-3.517 -0.58,-1.398 -0.642,-2.948 -0.267,-4.636 0.393,-1.808 1.265,-3.528 2.611,-5.062 1.364,-1.552 3.125,-2.77 5.223,-3.57 1.853,-0.697 3.804,-1.105 5.86,-1.174 z m 55.952,0.106 c 0.338,-0.026 0.654,0 1.013,0 l 3.837,0.427 1.279,0.106 -1.865,4.742 -0.373,0.746 -2.931,-0.266 c -0.866,0 -1.502,0.133 -1.919,0.426 -0.027,0.021 -0.081,0.084 -0.106,0.106 -0.056,0.049 -0.149,0.135 -0.213,0.214 -0.257,0.336 -0.569,0.938 -0.8,2.024 0,0 -0.11,0.461 -0.213,0.853 1.348,0 4.583,0 4.583,0 l -1.173,5.275 c 0,0 -3.351,0 -4.476,0 -0.342,1.535 -4.529,20.302996 -4.529,20.302996 -0.001,0 -6.182,0 -6.182,0 0,0 4.018,-18.033996 4.529,-20.302996 -1.04,0 -3.57,0 -3.57,0 l 1.172,-5.275 c 0,0 2.546,0 3.518,0 0.17,-0.733 0.426,-1.651 0.426,-1.651 0.376,-1.706 0.768,-2.932 1.279,-3.784 0.699,-1.177 1.686,-2.161 2.931,-2.877 1.025,-0.595 2.322,-0.952 3.783,-1.066 z m 14.761,0.267 c -0.001,0 -1.616,7.271 -2.025,9.112 1.193,0 3.996,0 3.996,0 l -1.172,5.275 c 0,0 -2.939,0 -3.997,0 -0.323,1.467 -2.877,12.842996 -2.877,12.842996 0,0 -0.213,1.366 -0.213,1.759 0,0.013 -0.002,0.043 0,0.053 0,0.004 -0.002,0.05 0,0.054 0.001,0.003 0.051,-0.002 0.053,0 l 0.64,0.053 2.931,-0.213 -0.319,4.743 0.053,0.853 -4.209,0.479 c -1.672,0 -2.897,-0.273 -3.784,-0.853 -0.938,-0.614 -1.483,-1.429 -1.705,-2.451 -0.034,-0.188 -0.106,-0.461 -0.106,-0.853 0,-0.768 0.145,-2.066 0.64,-4.316 0,0 2.24,-10.035996 2.718,-12.149996 -0.802,0 -2.931,0 -2.931,0 l 1.172,-5.275 c 0,0 2.078,0 2.931,0 0.273,-1.228 1.226,-5.436 1.226,-5.436 l 4.956,-2.611 c -0.003,0 2.022,-1.066 2.022,-1.066 z m -196.367007,0.213 h 23.979 l -1.332,5.969 c 0,0 -15.997,0 -17.532,0 -0.272,1.211 -1.366,6.113 -1.759,7.887 2.217,0 15.188,0 15.188,0 l -1.332,5.967996 c 0,0 -13.652,0 -15.188,0 -0.323,1.484 -3.25,14.654 -3.25,14.654 h -6.448 l 7.674,-34.477996 z m 32.133,8.419 c 0.24,-0.029 0.503,0 0.746,0 1.534,0 2.952,0.467 4.316,1.438 l 0.853,0.587 -3.304,5.435 -0.906,-0.639 c -0.665,-0.427 -1.382,-0.64 -2.132,-0.64 -0.647,0 -1.251,0.23 -1.865,0.64 -0.647,0.426 -1.189,0.991 -1.599,1.758 -0.716,1.313 -1.24,2.783996 -1.599,4.369996 l -2.877,13.108 h -6.182 l 5.702,-25.577996 h 5.755 c 0,0 -0.198,0.776 -0.267,1.065 0.272,-0.204 0.561,-0.485 0.8,-0.639 0.827,-0.491 1.7,-0.799 2.559,-0.905 z m 18.331001,0 c 0.372,-0.028 0.738,0 1.119,0 3.479,0 6.11,1.22 7.833,3.624 1.074,1.552 1.652,3.47 1.652,5.755 0,1.261996 -0.156,2.618996 -0.479,4.103996 l -0.48,1.864 c 0,0 -15.632001,0 -17.371001,0 -0.034,0.358 -0.054,0.742 -0.054,1.066 0,1.33 0.272,2.376 0.853,3.144 0.275,0.375 0.595,0.713 0.959,0.959 0.688,0.448 1.573,0.693 2.611001,0.693 1.262,0 2.37,-0.348 3.41,-1.013 0.989,-0.631 1.936,-1.64 2.771,-3.037 h 6.607 l -0.586,1.278 c -1.262,2.558 -3.022,4.553 -5.223,5.969 -2.199,1.415 -4.827,2.185 -7.727,2.185 -3.769001,0 -6.573001,-1.219 -8.312001,-3.624 -1.723,-2.353 -2.094,-5.605 -1.173,-9.698 0.921,-4.159996 2.759,-7.484996 5.436,-9.804996 2.4,-2.081 5.123001,-3.234 8.154001,-3.464 z m 27.763,0 c 0.371999,-0.028 0.738999,0 1.119003,0 3.479003,0 6.111003,1.22 7.834003,3.624 1.074,1.552 1.651,3.47 1.651,5.755 0,1.244996 -0.155,2.582996 -0.479,4.049996 l -0.479,1.918 c 0,0 -15.633006,0 -17.372006,0 -0.017,0.239 -0.036,0.454 -0.054,0.693 -0.013,0.089 0.006,0.226 0,0.319 0,0.016 0,0.038 0,0.054 0,0.256 0.037,0.507 0.054,0.746 0.085,0.972 0.339,1.784 0.8,2.397 0.087,0.119 0.17,0.267 0.266,0.373 0.781,0.836 1.887,1.279 3.305,1.279 1.262,0 2.387,-0.348 3.409999,-1.013 0.989004,-0.631 1.936004,-1.64 2.771004,-3.037 h 6.661003 l -0.64,1.278 c -1.262,2.558 -3.022,4.553 -5.222,5.969 -2.200003,1.415 -4.828006,2.185 -7.727006,2.185 -3.769,0 -6.574,-1.219 -8.313,-3.624 -1.125,-1.534 -1.651,-3.489 -1.651,-5.808 0,-0.358 0.019,-0.744 0.053,-1.119 0.068,-0.887 0.205,-1.782 0.427,-2.771 0.921,-4.143996 2.704,-7.484996 5.382,-9.804996 2.397,-2.08 5.174,-3.233 8.204,-3.463 z m 75.616006,0 c 0.381,-0.029 0.731,0 1.119,0 3.547,0 6.273,1.2 8.047,3.57 1.756,2.37 2.183,5.567 1.278,9.591996 -0.699,3.138 -1.709,5.672 -3.091,7.514 -1.381,1.842 -3.142,3.347 -5.222,4.37 -2.063,1.022 -4.248,1.545 -6.448,1.545 -3.615,0 -6.308,-1.236 -8.047,-3.624 -1.125,-1.518 -1.705,-3.472 -1.705,-5.808 0,-1.263 0.139,-2.603 0.479,-4.104 1.023,-4.569996 3.112,-8.050996 6.182,-10.283996 2.254,-1.626 4.742,-2.565 7.408,-2.771 z m 93.627,0 c 0.45,-0.027 0.866,0 1.333,0 2.148,0 3.836,0.218 5.115,0.746 1.364,0.546 2.332,1.317 2.878,2.238 0.528,0.869 0.799,1.938 0.799,3.25 l -0.64,3.890996 -1.172,5.275 c -1.006,4.502 -1.228,6.189 -1.279,6.821 -0.051,0.853 0.028,1.684 0.267,2.451 l 0.427,1.385 h -6.288 l -0.267,-0.799 c -0.103,-0.375 -0.072,-0.853 -0.106,-1.279 -1.194,0.733 -2.39,1.384 -3.464,1.759 -1.586,0.546 -3.231,0.853 -4.902,0.853 -2.899,0 -5.046,-0.755 -6.342,-2.238 -0.989,-1.091 -1.438,-2.426 -1.438,-3.943 0,-0.579 0.076,-1.181 0.213,-1.812 0.29,-1.296 0.816,-2.496 1.652,-3.57 0.818,-1.058 1.786,-1.927 2.877,-2.558 1.058,-0.631 2.236,-1.079 3.464,-1.386 l 3.783,-0.64 c 2.916,-0.341 5.093,-0.764996 6.661,-1.225996 0.034,-0.17 0.106,-0.373 0.106,-0.373 0.248,-1.097 0.217,-1.922 -0.053,-2.345 -0.02,-0.027 -0.084,-0.083 -0.106,-0.106 -0.058,-0.062 -0.146,-0.158 -0.214,-0.213 -0.641,-0.508 -1.734,-0.746 -3.197,-0.746 -1.653,0 -2.877,0.271 -3.729,0.799 -0.836,0.529 -1.609,1.497 -2.292,2.878 h -6.447 l 0.586,-1.279 c 0.768,-1.773 1.682,-3.244 2.824,-4.369 1.143,-1.126 2.686,-1.997 4.477,-2.611 1.37,-0.453 2.869,-0.754 4.474,-0.853 z m 27.018,0 c 0.24,-0.029 0.504,0 0.746,0 1.552,0 3.005,0.467 4.369,1.438 l 0.8,0.587 -3.304,5.435 -0.906,-0.639 c -0.665,-0.427 -1.345,-0.64 -2.078,-0.64 -0.648,0 -1.287,0.23 -1.919,0.64 -0.647,0.426 -1.118,0.991 -1.545,1.758 -0.699,1.313 -1.24,2.783996 -1.599,4.369996 l -2.931,13.108 h -6.182 l 5.702,-25.577996 h 5.755 c 0,0 -0.145,0.776 -0.213,1.065 0.272,-0.204 0.543,-0.485 0.799,-0.639 0.813,-0.491 1.646,-0.799 2.506,-0.905 z m 18.277,0 c 0.372,-0.028 0.739,0 1.119,0 3.479,0 6.128,1.22 7.834,3.624 1.091,1.552 1.651,3.47 1.651,5.755 0,1.261996 -0.209,2.618996 -0.532,4.103996 l -0.427,1.864 c 0,0 -15.649,0 -17.372,0 -0.034,0.358 -0.106,0.742 -0.106,1.066 0,1.33 0.29,2.376 0.853,3.144 0.088,0.119 0.223,0.267 0.319,0.373 0.057,0.06 0.154,0.158 0.214,0.213 0.762,0.693 1.8,1.066 3.091,1.066 1.262,0 2.37,-0.348 3.41,-1.013 0.989,-0.631 1.918,-1.64 2.771,-3.037 h 6.661 l -0.639,1.278 c -1.263,2.558 -3.04,4.553 -5.223,5.969 -2.217,1.415 -4.811,2.185 -7.727,2.185 -3.769,0 -6.521,-1.219 -8.26,-3.624 -1.723,-2.353 -2.13,-5.605 -1.226,-9.698 0.921,-4.159996 2.705,-7.484996 5.382,-9.804996 2.416,-2.081 5.18,-3.234 8.207,-3.464 z m -93.308,0.48 h 6.342 c 0,0 0.782,15.178996 0.799,15.399996 0.256,-0.544 0.455,-1.001 0.479,-1.065 10e-4,0 6.981,-14.334996 6.981,-14.334996 h 5.809 c 0,0 0.532,14.994996 0.532,15.080996 0.171,-0.308 7.94,-15.080996 7.94,-15.080996 h 6.288 l -13.855,25.577996 h -5.701 c 0,0 -0.553,-13.869 -0.587,-14.654 -2.353,4.826 -7.141,14.654 -7.141,14.654 h -5.861 l -2.025,-25.577996 z m -148.886006,4.85 c -1.469,0.062 -2.803,0.591 -4.05,1.599 -0.989001,0.784 -1.656001,1.86 -2.185001,3.037 h 10.497001 c 0.018,-0.188 0.054,-0.416 0.054,-0.586 0,-0.972 -0.173,-1.727 -0.479,-2.238 -0.751,-1.228 -1.863,-1.812 -3.518,-1.812 -0.099,0 -0.222,-0.004 -0.319,0 z m 27.761999,0 c -1.468999,0.062 -2.802999,0.591 -4.049999,1.599 -0.988,0.784 -1.639,1.86 -2.185,3.037 H 101.5014 c 0.017,-0.188 0.053,-0.416 0.053,-0.586 0,-0.972 -0.155,-1.727 -0.479,-2.238 -0.148,-0.249 -0.351,-0.497 -0.532,-0.692 -0.713003,-0.736 -1.692003,-1.119 -2.984007,-1.119 -0.1,-0.001 -0.222,-0.005 -0.321,-0.001 z m 214.752007,0 c -1.511,0.046 -2.922,0.558 -4.21,1.599 -0.972,0.784 -1.64,1.86 -2.185,3.037 h 10.444 c 0.017,-0.188 0.053,-0.416 0.053,-0.586 0,-0.972 -0.155,-1.727 -0.479,-2.238 -0.733,-1.211 -1.862,-1.795 -3.517,-1.812 -0.048,0 -0.057,-0.002 -0.106,0 z m -139.615,0.106 c -1.409,0.167 -2.721,0.811 -3.943,1.918 -1.467,1.33 -2.53,3.418996 -3.144,6.181996 -0.256,1.159 -0.373,2.15 -0.373,3.037 0,1.211 0.232,2.162 0.692,2.878 0.122,0.184 0.285,0.378 0.427,0.533 0.758,0.805 1.816,1.226 3.144,1.226 1.723,0 3.24,-0.642 4.689,-1.972 1.467,-1.348 2.513,-3.458 3.144,-6.288 0.58,-2.592 0.499,-4.526996 -0.319,-5.754996 -0.784,-1.194 -1.932,-1.759 -3.517,-1.759 -0.27,0 -0.539,-0.031 -0.8,0 z m 96.292,9.324996 c -1.449,0.393 -3.074,0.723 -5.223,1.013 -1.603,0.238 -2.745,0.49 -3.41,0.746 -0.58,0.238 -1.047,0.569 -1.438,1.013 -0.376,0.426 -0.627,0.874 -0.746,1.385 -0.034,0.205 -0.054,0.416 -0.054,0.587 0,0.014 0,0.039 0,0.053 0.002,0.041 -0.005,0.121 0,0.16 0.011,0.077 0.032,0.194 0.054,0.267 0.007,0.023 0.044,0.083 0.053,0.106 0.019,0.046 0.03,0.116 0.054,0.16 0.024,0.043 0.078,0.118 0.106,0.159 0.045,0.062 0.105,0.156 0.16,0.213 0.426,0.478 1.276,0.693 2.504,0.693 1.348,0 2.644,-0.256 3.837,-0.853 1.177,-0.58 2.125,-1.445 2.824,-2.451 0.511,-0.717 0.921,-1.818 1.279,-3.251 z"
     style="fill:#bb2025"
     id="path6"
     inkscape:connector-curvature="0" />
  <path
     d="m 312.1644,-104.62604 c -0.017,0 -0.034,0 -0.051,0 1.654,0.017 2.745,0.58 3.479,1.79 0.324,0.512 0.494,1.279 0.494,2.251 0,0.171 -0.033,0.393 -0.051,0.58 h 0.068 c 0,-0.188 0.034,-0.409 0.034,-0.58 0,-0.972 -0.153,-1.739 -0.478,-2.251 -0.732,-1.227 -1.841,-1.79 -3.495,-1.79 z"
     style="fill:#bb2025"
     id="path8"
     inkscape:connector-curvature="0" />
  <path
     d="m 355.6404,-78.118044 c 0.693,1.78 1.385,3.557 2.105,5.295 1.111,2.36 2.395,4.62 3.938,6.73 8.336,11.33 22.295,17.534 40.02,19.079 h 19.064 c 6.029,-0.47 12.346,-1.347 18.893,-2.628 11.291,-2.208 23.262,-5.6 35.693,-10.132 9.416,-3.434 19.094,-7.496 28.914,-12.218 21.387,-10.252 43.48,-23.476 65.156,-39.432996 7.139,-5.251 13.988,-10.639 20.564,-16.117 6.027,-5.016 11.811,-10.109 17.334,-15.26 15.418,-14.856 27.055,-29.945 33.646,-43.194 6.863,-13.797 8.234,-25.59401 2.609,-33.02501 -3.447,-4.562 -9.215,-7.006 -16.643,-7.581 33.457,-25.104 52.955,-55.559 45.961,-74.759 -2.221,-6.128 -7.109,-10.699 -14.117,-13.228 -3.115,-1.12 -6.621,-1.83 -10.441,-2.153 h -10.297 c -14.379,1.037 -35.287,6.186 -53.025,14.879"
     style="fill:#bb2025;fill-opacity:0;stroke:#bb2025;stroke-width:8.52610016"
     id="path40"
     inkscape:connector-curvature="0" />
  <g
     id="g3897">
    <path
       inkscape:connector-curvature="0"
       d="m 325.82001,278.23701 h -0.017 c -1.604,0 -3.019,0.528 -4.349,1.603 -0.989,0.784 -1.671,1.842 -2.217,3.019 h 0.068 c 0.545,-1.177 1.228,-2.234 2.199,-3.019 1.332,-1.075 2.748,-1.586 4.316,-1.603 z"
       style="fill:#ffffff;fill-opacity:1"
       id="path3023" />
    <path
       sodipodi:nodetypes="cccccc"
       inkscape:connector-curvature="0"
       id="path3121"
       d="M 59.309999,72.793 0,331.56001 c 0.017,0 0.019,0 0.053,0 139.02901,0 204.77894,0 343.80794,0 L 403.56379,72.793 c -208.90864,0 -160.36422,0 -344.253791,0 z"
       style="fill:#bb2025" />
    <path
       inkscape:connector-curvature="0"
       id="path3117"
       d="m 85.899999,106.364 c 0.319,-0.008 0.634,0 0.959,0 h 63.040011 c 5.389,0 9.556,1.01 12.522,3.037 2.95,2.04 4.057,4.678 3.357,7.887 l -7.514,33.944 h -22.221 l 7.3,-33.038 H 87.709999 l -20.09,90.80301 -7.247,32.879 h 55.580011 l 0.053,-0.213 11.138,-50.305 h -26.11 l 2.505,-11.35 h 48.332 l -13.855,62.773 c -0.188,0.894 -0.516,1.703 -0.959,2.504 -1.143,2.081 -3.135,3.862 -5.915,5.329 -3.854,2.029 -8.466,3.037 -13.854,3.037 H 54.301999 c -5.389,0 -9.556,-1.008 -12.523,-3.037 -2.95,-2.029 -4.073,-4.621 -3.356,-7.833 l 27.763,-125.49401 c 0.716,-3.209 2.95,-5.847 6.821,-7.887 0.136,-0.073 0.289,-0.09 0.426,-0.16 3.531,-1.769 7.677,-2.763 12.467,-2.876 z"
       style="fill:#ffffff;fill-opacity:1" />
    <path
       inkscape:connector-curvature="0"
       id="path3115"
       d="m 184.69601,106.364 h 79.347 c 5.32,0 9.502,1.01 12.469,3.037 2.984,2.04 4.127,4.678 3.411,7.887 l -14.814,66.93001 c -0.699,3.189 -2.986,5.791 -6.874,7.834 -3.888,2.05 -8.465,3.091 -13.802,3.091 h -57.659 l -11.137,50.25 -1.812,8.26 h -21.741 l 1.652,-7.46 30.96,-139.82901 z"
       style="fill:#ffffff;fill-opacity:1" />
    <path
       inkscape:connector-curvature="0"
       id="path3113"
       d="m 294.31001,106.364 h 21.741 l -24.619,111.21201 -5.382,24.3 h 52.009 c 0.546,3.988 1.184,7.906 1.865,11.776 h -78.227 l 6.181,-27.923 26.432,-119.36501 z"
       style="fill:#ffffff;fill-opacity:1" />
    <path
       inkscape:connector-curvature="0"
       id="path3111"
       d="m 203.82701,118.194 -14.441,65.11801 h 54.194 l 14.388,-65.11801 h -54.141 z"
       style="fill:#bb2025" />
    <path
       inkscape:connector-curvature="0"
       id="path3109"
       d="m 158.26601,263.88401 c 0.213,-0.007 0.425,0 0.64,0 2.523,0 4.728,0.443 6.501,1.279 1.893,0.887 3.246,2.204 3.997,3.943 0.732,1.688 0.925,3.604 0.532,5.701 l -0.16,0.8 h -6.234 l 0.054,-0.746 c 0.161,-1.466 -0.021,-2.618 -0.587,-3.41 -0.073,-0.1 -0.18,-0.23 -0.266,-0.32 -0.141,-0.144 -0.353,-0.308 -0.533,-0.426 -0.872,-0.55 -2.237,-0.853 -3.997,-0.853 -2.336,0 -4.081,0.407 -5.275,1.226 -1.159,0.801 -1.893,1.696 -2.131,2.771 -0.239,1.092 0.153,1.665 0.426,1.972 0.009,0.009 0.043,0.044 0.054,0.054 0.345,0.294 1.545,0.984 5.275,1.865 3.376,0.818 5.612,1.554 6.874,2.185 1.91,0.972 3.244,2.231 3.943,3.783 0.699,1.535 0.853,3.332 0.426,5.275 -0.426,1.894 -1.392,3.639 -2.824,5.275 -1.415,1.638 -3.216,2.934 -5.382,3.837 -2.148,0.887 -4.506,1.386 -6.928,1.386 -3.069,0 -5.533,-0.465 -7.46,-1.386 -2.012,-0.955 -3.464,-2.462 -4.316,-4.423 -0.818,-1.91 -0.993,-4.077 -0.533,-6.447 l 0.16,-0.746 h 6.128 l -0.053,0.746 c -0.153,1.415 -0.002,2.558 0.373,3.41 0.357,0.818 1.04,1.496 2.131,2.024 1.16,0.563 2.609,0.853 4.264,0.853 1.483,0 2.839,-0.249 4.05,-0.692 1.193,-0.426 2.143,-0.989 2.824,-1.705 0.665,-0.716 1.055,-1.473 1.226,-2.291 0.171,-0.733 0.13,-1.354 -0.16,-1.865 -0.323,-0.546 -0.965,-1.029 -1.972,-1.439 l -5.222,-1.545 c -2.916,-0.733 -4.879,-1.433 -6.021,-2.132 -1.552,-0.921 -2.671,-2.102 -3.251,-3.517 -0.58,-1.398 -0.642,-2.948 -0.267,-4.636 0.393,-1.808 1.265,-3.528 2.611,-5.062 1.364,-1.552 3.125,-2.77 5.223,-3.57 1.853,-0.697 3.804,-1.105 5.86,-1.174 z"
       style="fill:#ffffff;fill-opacity:1" />
    <path
       inkscape:connector-curvature="0"
       id="path3107"
       d="m 214.21801,263.99001 c 0.338,-0.026 0.654,0 1.013,0 l 3.837,0.427 1.279,0.106 -1.865,4.742 -0.373,0.746 -2.931,-0.266 c -0.866,0 -1.502,0.133 -1.919,0.426 -0.027,0.021 -0.081,0.084 -0.106,0.106 -0.056,0.049 -0.149,0.135 -0.213,0.214 -0.257,0.336 -0.569,0.938 -0.8,2.024 0,0 -0.11,0.461 -0.213,0.853 1.348,0 4.583,0 4.583,0 l -1.173,5.275 c 0,0 -3.351,0 -4.476,0 -0.342,1.535 -4.529,20.303 -4.529,20.303 -0.001,0 -6.182,0 -6.182,0 0,0 4.018,-18.034 4.529,-20.303 -1.04,0 -3.57,0 -3.57,0 l 1.172,-5.275 c 0,0 2.546,0 3.518,0 0.17,-0.733 0.426,-1.651 0.426,-1.651 0.376,-1.706 0.768,-2.932 1.279,-3.784 0.699,-1.177 1.686,-2.161 2.931,-2.877 1.025,-0.595 2.322,-0.952 3.783,-1.066 z"
       style="fill:#ffffff;fill-opacity:1" />
    <path
       inkscape:connector-curvature="0"
       id="path3105"
       d="m 228.97901,264.25701 c -10e-4,0 -1.616,7.271 -2.025,9.112 1.193,0 3.996,0 3.996,0 l -1.172,5.275 c 0,0 -2.939,0 -3.997,0 -0.323,1.467 -2.877,12.843 -2.877,12.843 0,0 -0.213,1.366 -0.213,1.759 0,0.013 -0.002,0.043 0,0.053 0,0.004 -0.002,0.05 0,0.054 0.001,0.003 0.051,-0.002 0.053,0 l 0.64,0.053 2.931,-0.213 -0.319,4.743 0.053,0.853 -4.209,0.479 c -1.672,0 -2.897,-0.273 -3.784,-0.853 -0.938,-0.614 -1.483,-1.429 -1.705,-2.451 -0.034,-0.188 -0.106,-0.461 -0.106,-0.853 0,-0.768 0.145,-2.066 0.64,-4.316 0,0 2.24,-10.036 2.718,-12.15 -0.802,0 -2.931,0 -2.931,0 l 1.172,-5.275 c 0,0 2.078,0 2.931,0 0.273,-1.228 1.226,-5.436 1.226,-5.436 l 4.956,-2.611 c -0.003,0 2.022,-1.066 2.022,-1.066 z"
       style="fill:#ffffff;fill-opacity:1" />
    <path
       inkscape:connector-curvature="0"
       id="path3103"
       d="m 32.611999,264.47001 h 23.979 l -1.332,5.969 c 0,0 -15.997,0 -17.532,0 -0.272,1.211 -1.366,6.113 -1.759,7.887 2.217,0 15.188,0 15.188,0 l -1.332,5.968 c 0,0 -13.652,0 -15.188,0 -0.323,1.484 -3.25,14.654 -3.25,14.654 h -6.448 l 7.674,-34.478 z"
       style="fill:#ffffff;fill-opacity:1" />
    <path
       inkscape:connector-curvature="0"
       id="path3101"
       d="m 64.744999,272.88901 c 0.24,-0.029 0.503,0 0.746,0 1.534,0 2.952,0.467 4.316,1.438 l 0.853,0.587 -3.304,5.435 -0.906,-0.639 c -0.665,-0.427 -1.382,-0.64 -2.132,-0.64 -0.647,0 -1.251,0.23 -1.865,0.64 -0.647,0.426 -1.189,0.991 -1.599,1.758 -0.716,1.313 -1.24,2.784 -1.599,4.37 l -2.877,13.108 h -6.182 l 5.702,-25.578 h 5.755 c 0,0 -0.198,0.776 -0.267,1.065 0.272,-0.204 0.561,-0.485 0.8,-0.639 0.827,-0.491 1.7,-0.799 2.559,-0.905 z"
       style="fill:#ffffff;fill-opacity:1" />
    <path
       inkscape:connector-curvature="0"
       id="path3099"
       d="m 83.075999,272.88901 c 0.372,-0.028 0.738,0 1.119,0 3.479,0 6.11,1.22 7.833,3.624 1.074,1.552 1.652,3.47 1.652,5.755 0,1.262 -0.156,2.619 -0.479,4.104 l -0.48,1.864 c 0,0 -15.632,0 -17.371,0 -0.034,0.358 -0.054,0.742 -0.054,1.066 0,1.33 0.272,2.376 0.853,3.144 0.275,0.375 0.595,0.713 0.959,0.959 0.688,0.448 1.573,0.693 2.611,0.693 1.262,0 2.37,-0.348 3.41,-1.013 0.989,-0.631 1.936,-1.64 2.771,-3.037 h 6.607 l -0.586,1.278 c -1.262,2.558 -3.022,4.553 -5.223,5.969 -2.199,1.415 -4.827,2.185 -7.727,2.185 -3.769,0 -6.573,-1.219 -8.312,-3.624 -1.723,-2.353 -2.094,-5.605 -1.173,-9.698 0.921,-4.16 2.759,-7.485 5.436,-9.805 2.4,-2.081 5.123,-3.234 8.154,-3.464 z"
       style="fill:#ffffff;fill-opacity:1" />
    <path
       inkscape:connector-curvature="0"
       id="path3097"
       d="m 110.83901,272.88901 c 0.372,-0.028 0.739,0 1.119,0 3.479,0 6.111,1.22 7.834,3.624 1.074,1.552 1.651,3.47 1.651,5.755 0,1.245 -0.155,2.583 -0.479,4.05 l -0.479,1.918 c 0,0 -15.633,0 -17.372,0 -0.017,0.239 -0.036,0.454 -0.054,0.693 -0.013,0.089 0.006,0.226 0,0.319 0,0.016 0,0.038 0,0.054 0,0.256 0.037,0.507 0.054,0.746 0.085,0.972 0.339,1.784 0.8,2.397 0.087,0.119 0.17,0.267 0.266,0.373 0.781,0.836 1.887,1.279 3.305,1.279 1.262,0 2.387,-0.348 3.41,-1.013 0.989,-0.631 1.936,-1.64 2.771,-3.037 h 6.661 l -0.64,1.278 c -1.262,2.558 -3.022,4.553 -5.222,5.969 -2.2,1.415 -4.828,2.185 -7.727,2.185 -3.769,0 -6.574,-1.219 -8.313008,-3.624 -1.125,-1.534 -1.651,-3.489 -1.651,-5.808 0,-0.358 0.019,-0.744 0.053,-1.119 0.068,-0.887 0.205,-1.782 0.427,-2.771 0.921,-4.144 2.704004,-7.485 5.382008,-9.805 2.397,-2.08 5.174,-3.233 8.204,-3.463 z"
       style="fill:#ffffff;fill-opacity:1" />
    <path
       inkscape:connector-curvature="0"
       id="path3095"
       d="m 186.45501,272.88901 c 0.381,-0.029 0.731,0 1.119,0 3.547,0 6.273,1.2 8.047,3.57 1.756,2.37 2.183,5.567 1.278,9.592 -0.699,3.138 -1.709,5.672 -3.091,7.514 -1.381,1.842 -3.142,3.347 -5.222,4.37 -2.063,1.022 -4.248,1.545 -6.448,1.545 -3.615,0 -6.308,-1.236 -8.047,-3.624 -1.125,-1.518 -1.705,-3.472 -1.705,-5.808 0,-1.263 0.139,-2.603 0.479,-4.104 1.023,-4.57 3.112,-8.051 6.182,-10.284 2.254,-1.626 4.742,-2.565 7.408,-2.771 z"
       style="fill:#ffffff;fill-opacity:1" />
    <path
       inkscape:connector-curvature="0"
       id="path3093"
       d="m 280.08201,272.88901 c 0.45,-0.027 0.866,0 1.333,0 2.148,0 3.836,0.218 5.115,0.746 1.364,0.546 2.332,1.317 2.878,2.238 0.528,0.869 0.799,1.938 0.799,3.25 l -0.64,3.891 -1.172,5.275 c -1.006,4.502 -1.228,6.189 -1.279,6.821 -0.051,0.853 0.028,1.684 0.267,2.451 l 0.427,1.385 h -6.288 l -0.267,-0.799 c -0.103,-0.375 -0.072,-0.853 -0.106,-1.279 -1.194,0.733 -2.39,1.384 -3.464,1.759 -1.586,0.546 -3.231,0.853 -4.902,0.853 -2.899,0 -5.046,-0.755 -6.342,-2.238 -0.989,-1.091 -1.438,-2.426 -1.438,-3.943 0,-0.579 0.076,-1.181 0.213,-1.812 0.29,-1.296 0.816,-2.496 1.652,-3.57 0.818,-1.058 1.786,-1.927 2.877,-2.558 1.058,-0.631 2.236,-1.079 3.464,-1.386 l 3.783,-0.64 c 2.916,-0.341 5.093,-0.765 6.661,-1.226 0.034,-0.17 0.106,-0.373 0.106,-0.373 0.248,-1.097 0.217,-1.922 -0.053,-2.345 -0.02,-0.027 -0.084,-0.083 -0.106,-0.106 -0.058,-0.062 -0.146,-0.158 -0.214,-0.213 -0.641,-0.508 -1.734,-0.746 -3.197,-0.746 -1.653,0 -2.877,0.271 -3.729,0.799 -0.836,0.529 -1.609,1.497 -2.292,2.878 h -6.447 l 0.586,-1.279 c 0.768,-1.773 1.682,-3.244 2.824,-4.369 1.143,-1.126 2.686,-1.997 4.477,-2.611 1.37,-0.453 2.869,-0.754 4.474,-0.853 z"
       style="fill:#ffffff;fill-opacity:1" />
    <path
       inkscape:connector-curvature="0"
       id="path3091"
       d="m 307.10001,272.88901 c 0.24,-0.029 0.504,0 0.746,0 1.552,0 3.005,0.467 4.369,1.438 l 0.8,0.587 -3.304,5.435 -0.906,-0.639 c -0.665,-0.427 -1.345,-0.64 -2.078,-0.64 -0.648,0 -1.287,0.23 -1.919,0.64 -0.647,0.426 -1.118,0.991 -1.545,1.758 -0.699,1.313 -1.24,2.784 -1.599,4.37 l -2.931,13.108 h -6.182 l 5.702,-25.578 h 5.755 c 0,0 -0.145,0.776 -0.213,1.065 0.272,-0.204 0.543,-0.485 0.799,-0.639 0.813,-0.491 1.646,-0.799 2.506,-0.905 z"
       style="fill:#ffffff;fill-opacity:1" />
    <path
       inkscape:connector-curvature="0"
       id="path3089"
       d="m 325.37701,272.88901 c 0.372,-0.028 0.739,0 1.119,0 3.479,0 6.128,1.22 7.834,3.624 1.091,1.552 1.651,3.47 1.651,5.755 0,1.262 -0.209,2.619 -0.532,4.104 l -0.427,1.864 c 0,0 -15.649,0 -17.372,0 -0.034,0.358 -0.106,0.742 -0.106,1.066 0,1.33 0.29,2.376 0.853,3.144 0.088,0.119 0.223,0.267 0.319,0.373 0.057,0.06 0.154,0.158 0.214,0.213 0.762,0.693 1.8,1.066 3.091,1.066 1.262,0 2.37,-0.348 3.41,-1.013 0.989,-0.631 1.918,-1.64 2.771,-3.037 h 6.661 l -0.639,1.278 c -1.263,2.558 -3.04,4.553 -5.223,5.969 -2.217,1.415 -4.811,2.185 -7.727,2.185 -3.769,0 -6.521,-1.219 -8.26,-3.624 -1.723,-2.353 -2.13,-5.605 -1.226,-9.698 0.921,-4.16 2.705,-7.485 5.382,-9.805 2.416,-2.081 5.18,-3.234 8.207,-3.464 z"
       style="fill:#ffffff;fill-opacity:1" />
    <path
       inkscape:connector-curvature="0"
       id="path3087"
       d="m 232.06901,273.36901 h 6.342 c 0,0 0.782,15.179 0.799,15.4 0.256,-0.544 0.455,-1.001 0.479,-1.065 0.001,0 6.981,-14.335 6.981,-14.335 h 5.809 c 0,0 0.532,14.995 0.532,15.081 0.171,-0.308 7.94,-15.081 7.94,-15.081 h 6.288 l -13.855,25.578 h -5.701 c 0,0 -0.553,-13.869 -0.587,-14.654 -2.353,4.826 -7.141,14.654 -7.141,14.654 h -5.861 l -2.025,-25.578 z"
       style="fill:#ffffff;fill-opacity:1" />
    <path
       inkscape:connector-curvature="0"
       id="path3085"
       d="m 83.182999,278.21901 c -1.469,0.062 -2.803,0.591 -4.05,1.599 -0.989,0.784 -1.656,1.86 -2.185,3.037 h 10.497 c 0.018,-0.188 0.054,-0.416 0.054,-0.586 0,-0.972 -0.173,-1.727 -0.479,-2.238 -0.751,-1.228 -1.863,-1.812 -3.518,-1.812 -0.099,0 -0.222,-0.004 -0.319,0 z"
       style="fill:#bb2025" />
    <path
       inkscape:connector-curvature="0"
       id="path3083"
       d="m 110.94501,278.21901 c -1.469,0.062 -2.803,0.591 -4.05,1.599 -0.988,0.784 -1.639,1.86 -2.185,3.037 h 10.498 c 0.017,-0.188 0.053,-0.416 0.053,-0.586 0,-0.972 -0.155,-1.727 -0.479,-2.238 -0.148,-0.249 -0.351,-0.497 -0.532,-0.692 -0.713,-0.736 -1.692,-1.119 -2.984,-1.119 -0.1,-10e-4 -0.222,-0.005 -0.321,-10e-4 z"
       style="fill:#bb2025" />
    <path
       inkscape:connector-curvature="0"
       id="path3081"
       d="m 325.69701,278.21901 c -1.511,0.046 -2.922,0.558 -4.21,1.599 -0.972,0.784 -1.64,1.86 -2.185,3.037 h 10.444 c 0.017,-0.188 0.053,-0.416 0.053,-0.586 0,-0.972 -0.155,-1.727 -0.479,-2.238 -0.733,-1.211 -1.862,-1.795 -3.517,-1.812 -0.048,0 -0.057,-0.002 -0.106,0 z"
       style="fill:#bb2025;fill-opacity:1" />
    <path
       inkscape:connector-curvature="0"
       id="path3079"
       d="m 186.08201,278.32501 c -1.409,0.167 -2.721,0.811 -3.943,1.918 -1.467,1.33 -2.53,3.419 -3.144,6.182 -0.256,1.159 -0.373,2.15 -0.373,3.037 0,1.211 0.232,2.162 0.692,2.878 0.122,0.184 0.285,0.378 0.427,0.533 0.758,0.805 1.816,1.226 3.144,1.226 1.723,0 3.24,-0.642 4.689,-1.972 1.467,-1.348 2.513,-3.458 3.144,-6.288 0.58,-2.592 0.499,-4.527 -0.319,-5.755 -0.784,-1.194 -1.932,-1.759 -3.517,-1.759 -0.27,0 -0.539,-0.031 -0.8,0 z"
       style="fill:#bb2025" />
    <path
       inkscape:connector-curvature="0"
       id="path3025"
       d="m 282.37401,287.65001 c -1.449,0.393 -3.074,0.723 -5.223,1.013 -1.603,0.238 -2.745,0.49 -3.41,0.746 -0.58,0.238 -1.047,0.569 -1.438,1.013 -0.376,0.426 -0.627,0.874 -0.746,1.385 -0.034,0.205 -0.054,0.416 -0.054,0.587 0,0.014 0,0.039 0,0.053 0.002,0.041 -0.005,0.121 0,0.16 0.011,0.077 0.032,0.194 0.054,0.267 0.007,0.023 0.044,0.083 0.053,0.106 0.019,0.046 0.03,0.116 0.054,0.16 0.024,0.043 0.078,0.118 0.106,0.159 0.045,0.062 0.105,0.156 0.16,0.213 0.426,0.478 1.276,0.693 2.504,0.693 1.348,0 2.644,-0.256 3.837,-0.853 1.177,-0.58 2.125,-1.445 2.824,-2.451 0.511,-0.717 0.921,-1.818 1.279,-3.251 z"
       style="fill:#bb2025" />
    <path
       inkscape:connector-curvature="0"
       d="m 325.87101,278.23701 c -0.017,0 -0.034,0 -0.051,0 1.654,0.017 2.745,0.58 3.479,1.79 0.324,0.512 0.494,1.279 0.494,2.251 0,0.171 -0.033,0.393 -0.051,0.58 h 0.068 c 0,-0.188 0.034,-0.409 0.034,-0.58 0,-0.972 -0.153,-1.739 -0.478,-2.251 -0.732,-1.227 -1.841,-1.79 -3.495,-1.79 z"
       style="fill:#bb2025"
       id="path3027" />
  </g>
</svg>
