<?xml version="1.0" encoding="UTF-8" standalone="no"?>
<!-- Created with Inkscape (http://www.inkscape.org/) -->

<svg
   xmlns:dc="http://purl.org/dc/elements/1.1/"
   xmlns:cc="http://creativecommons.org/ns#"
   xmlns:rdf="http://www.w3.org/1999/02/22-rdf-syntax-ns#"
   xmlns:svg="http://www.w3.org/2000/svg"
   xmlns="http://www.w3.org/2000/svg"
   xmlns:xlink="http://www.w3.org/1999/xlink"
   xmlns:sodipodi="http://sodipodi.sourceforge.net/DTD/sodipodi-0.dtd"
   xmlns:inkscape="http://www.inkscape.org/namespaces/inkscape"
   id="svg1"
   sodipodi:version="0.32"
   inkscape:version="0.48.0 r9654"
   width="400.00000pt"
   height="400.00000pt"
   sodipodi:docname="nicubunu_white_Jigsaw_piece_2.svg"
   version="1.1">
  <metadata
     id="metadata20" />
  <defs
     id="defs3">
    <linearGradient
       id="linearGradient1085">
      <stop
         style="stop-color:#006600;stop-opacity:1.0000000;"
         offset="0.0000000"
         id="stop1086" />
      <stop
         style="stop-color:#00ff00;stop-opacity:1.0000000;"
         offset="1.0000000"
         id="stop1087" />
    </linearGradient>
    <radialGradient
       xlink:href="#linearGradient1085"
       id="radialGradient1088"
       cx="1.7995006"
       cy="-0.033503532"
       r="2.1367373"
       fx="1.7995006"
       fy="-0.033503532" />
    <radialGradient
       xlink:href="#linearGradient1085"
       id="radialGradient1089"
       cx="-1.8538072"
       cy="-0.028270273"
       r="2.1367373"
       fx="-1.8538072"
       fy="-0.028270273" />
    <radialGradient
       xlink:href="#linearGradient1085"
       id="radialGradient1090"
       cx="-0.34090281"
       cy="-1.8841810"
       r="2.1367373"
       fx="-0.34090281"
       fy="-1.8841810"
       gradientTransform="scale(0.751916,1.329935)" />
    <radialGradient
       xlink:href="#linearGradient1085"
       id="radialGradient1091"
       cx="-0.33888963"
       cy="0.86286521"
       r="2.1367373"
       fx="-0.33888963"
       fy="0.86286521"
       gradientTransform="scale(0.751916,1.329935)" />
    <radialGradient
       xlink:href="#linearGradient1085"
       id="radialGradient1092"
       cx="0.86051458"
       cy="-0.022911092"
       r="2.1367371"
       fx="0.86051458"
       fy="-0.022911092" />
    <radialGradient
       xlink:href="#linearGradient1085"
       id="radialGradient1093"
       cx="-2.7927938"
       cy="-0.031800985"
       r="2.1367373"
       fx="-2.7927938"
       fy="-0.031800985" />
    <radialGradient
       xlink:href="#linearGradient1085"
       id="radialGradient1094"
       cx="-0.34090281"
       cy="-1.1746118"
       r="2.1367373"
       fx="-0.34090281"
       fy="-1.1746118"
       gradientTransform="scale(0.751916,1.329935)" />
    <radialGradient
       xlink:href="#linearGradient1085"
       id="radialGradient1095"
       cx="-0.33623907"
       cy="1.5691054"
       r="2.1367371"
       fx="-0.33623907"
       fy="1.5691054"
       gradientTransform="scale(0.751916,1.329935)" />
    <radialGradient
       xlink:href="#linearGradient1085"
       id="radialGradient1096"
       cx="0.26481381"
       cy="0.26821491"
       r="0.66534734"
       fx="0.26481381"
       fy="0.26821491"
       gradientTransform="scale(0.867801,1.152339)" />
  </defs>
  <sodipodi:namedview
     id="base"
     pagecolor="#ffffff"
     bordercolor="#666666"
     borderopacity="1.0"
     inkscape:pageopacity="0.0"
     inkscape:pageshadow="2"
     inkscape:zoom="1"
     inkscape:cx="151.24684"
     inkscape:cy="243.60373"
     inkscape:window-width="854"
     inkscape:window-height="696"
     showgrid="true"
     inkscape:window-x="803"
     inkscape:window-y="303"
     inkscape:window-maximized="0"
     inkscape:current-layer="g842" />
  <g
     id="g842">
    <path
       style="fill-opacity:0.49999997;fill-rule:evenodd;stroke-width:2.8679966pt;"
       d="M 126.58584,127.78915 L 126.58584,226.94540 C 126.31364,230.07498 124.05097,248.16297 106.14834,244.69540 C 86.633760,240.91561 99.648580,208.80988 71.460840,222.03915 C 62.253890,229.71509 57.186000,243.01849 55.492090,256.13290 C 55.465630,256.33772 55.423150,256.55321 55.398340,256.75790 C 54.431640,261.36994 53.941780,266.64695 54.148340,272.25790 C 54.707880,287.45734 59.801640,304.50653 70.710840,313.60165 C 98.898570,326.83091 85.883750,294.69394 105.39834,290.91415 C 124.91292,287.13435 125.99209,309.82040 125.99209,309.82040 L 126.58584,407.53915 L 228.17959,407.53915 C 234.38081,408.75741 246.42068,413.02822 243.58584,427.66415 C 239.80605,447.17875 207.70032,434.16391 220.92959,462.35165 C 228.60553,471.55861 241.90893,476.62649 255.02334,478.32040 C 255.22816,478.34687 255.44365,478.38934 255.64834,478.41415 C 260.26038,479.38086 265.53739,479.87071 271.14834,479.66415 C 286.34778,479.10462 303.39697,474.01085 312.49209,463.10165 C 325.72135,434.91393 293.58438,447.92874 289.80459,428.41415 C 286.02479,408.89958 308.71084,407.82040 308.71084,407.82040 L 405.89834,407.53915 C 405.89834,407.53915 405.27333,309.28914 405.27334,309.28915 C 405.27334,309.28915 404.19416,286.60310 384.67959,290.38290 C 365.16500,294.16269 378.17981,326.29965 349.99209,313.07040 C 339.08289,303.97528 333.98912,286.92609 333.42959,271.72665 C 333.22303,266.11570 333.71288,260.83870 334.67959,256.22665 C 334.70440,256.02196 334.74687,255.80646 334.77334,255.60165 C 336.46725,242.48724 341.53513,229.18383 350.74209,221.50790 C 356.02729,219.02741 359.86792,218.12879 362.74209,218.35165 C 375.19683,219.31736 369.57398,241.09307 385.42959,244.16415 C 403.63749,247.69085 405.69088,228.82443 405.89834,226.19540 L 405.89834,127.78915 C 405.89834,127.78915 308.55459,128.50790 308.55459,128.50790 C 308.55459,128.50790 285.86854,129.58707 289.64834,149.10165 C 293.42813,168.61624 325.56510,155.60142 312.33584,183.78915 C 303.24072,194.69835 286.19153,199.79211 270.99209,200.35165 C 265.38114,200.55821 260.10413,200.06835 255.49209,199.10165 C 255.28740,199.07684 255.07191,199.03436 254.86709,199.00790 C 241.75268,197.31399 228.44928,192.24610 220.77334,183.03915 C 207.54407,154.85141 239.64980,167.86624 243.42959,148.35165 C 247.14973,129.14505 225.46510,127.82693 224.77334,127.78915 L 126.58584,127.78915 z "
       id="path1392"
       sodipodi:nodetypes="cccccccccccccccccccccccccccccccccccccccccc" />
    <path
       style="fill:#ffffff;fill-opacity:1;fill-rule:evenodd;stroke:#000000;stroke-width:12.50000000000000000;stroke-dasharray:none;stroke-linejoin:round"
       d="m 108.625,112.46875 0,99.15625 c -0.2722,3.12958 -2.53487,21.21757 -20.4375,17.75 -19.514587,-3.77979 -6.49976,-35.88552 -34.6875,-22.65625 -9.206951,7.67594 -14.27484,20.97934 -15.96875,34.09375 -0.02646,0.20482 -0.06894,0.42031 -0.09375,0.625 -0.966701,4.61204 -1.45656,9.88905 -1.25,15.5 0.559539,15.19944 5.6533,32.24863 16.5625,41.34375 28.187729,13.22926 15.17291,-18.90771 34.6875,-22.6875 19.51458,-3.7798 20.59375,18.90625 20.59375,18.90625 l 0.59375,97.71875 101.59375,0 c 6.20122,1.21826 18.24109,5.48907 15.40625,20.125 -3.77979,19.5146 -35.88552,6.49976 -22.65625,34.6875 7.67594,9.20696 20.97934,14.27484 34.09375,15.96875 0.20482,0.0265 0.42031,0.0689 0.625,0.0937 4.61204,0.96671 9.88905,1.45656 15.5,1.25 15.19944,-0.55953 32.24863,-5.6533 41.34375,-16.5625 13.22926,-28.18772 -18.90771,-15.17291 -22.6875,-34.6875 C 268.06395,393.57918 290.75,392.5 290.75,392.5 l 97.1875,-0.28125 c 0,0 -0.62501,-98.25001 -0.625,-98.25 0,0 -1.07918,-22.68605 -20.59375,-18.90625 -19.51459,3.77979 -6.49978,35.91675 -34.6875,22.6875 -10.9092,-9.09512 -16.00297,-26.14431 -16.5625,-41.34375 -0.20656,-5.61095 0.28329,-10.88795 1.25,-15.5 0.0248,-0.20469 0.0673,-0.42019 0.0937,-0.625 1.69391,-13.11441 6.76179,-26.41782 15.96875,-34.09375 5.2852,-2.48049 9.12583,-3.37911 12,-3.15625 12.45474,0.96571 6.83189,22.74142 22.6875,25.8125 18.2079,3.5267 20.26129,-15.33972 20.46875,-17.96875 l 0,-98.40625 c 0,0 -97.34375,0.71875 -97.34375,0.71875 0,0 -22.68605,1.07917 -18.90625,20.59375 3.77979,19.51459 35.91676,6.49977 22.6875,34.6875 -9.09512,10.9092 -26.14431,16.00296 -41.34375,16.5625 -5.61095,0.20656 -10.88796,-0.2833 -15.5,-1.25 -0.20469,-0.0248 -0.42018,-0.0673 -0.625,-0.0937 -13.11441,-1.69391 -26.41781,-6.7618 -34.09375,-15.96875 -13.22927,-28.18774 18.87646,-15.17291 22.65625,-34.6875 3.72014,-19.2066 -17.96449,-20.52472 -18.65625,-20.5625 l -98.1875,0 z"
       id="path1220" />
  </g>
  <metadata
     id="metadata22">
    <rdf:RDF>
      <cc:Work
         rdf:about="">
        <dc:title></dc:title>
        <dc:rights>
          <cc:Agent>
            <dc:title>Nicu Buculei</dc:title>
          </cc:Agent>
        </dc:rights>
        <dc:type
           rdf:resource="http://purl.org/dc/dcmitype/StillImage" />
        <cc:license
           rdf:resource="http://web.resource.org/cc/PublicDomain" />
        <dc:format>image/svg+xml</dc:format>
      </cc:Work>
      <cc:License
         rdf:about="http://web.resource.org/cc/PublicDomain">
        <cc:permits
           rdf:resource="http://web.resource.org/cc/Reproduction" />
        <cc:permits
           rdf:resource="http://web.resource.org/cc/Distribution" />
        <cc:permits
           rdf:resource="http://web.resource.org/cc/DerivativeWorks" />
      </cc:License>
    </rdf:RDF>
  </metadata>
</svg>
