<?xml version="1.0" encoding="UTF-8" standalone="no"?>
<!DOCTYPE svg PUBLIC "-//W3C//DTD SVG 20010904//EN"
"http://www.w3.org/TR/2001/REC-SVG-20010904/DTD/svg10.dtd">
<!-- Created with Inkscape (http://www.inkscape.org/) -->
<svg
   id="svg1"
   sodipodi:version="0.32"
   inkscape:version="0.38.1"
   width="400.00000pt"
   height="400.00000pt"
   sodipodi:docbase="/var/www/html/svg_gallery/svg/jigsaw"
   sodipodi:docname="jigsaw_green_11.svg"
   xmlns="http://www.w3.org/2000/svg"
   xmlns:inkscape="http://www.inkscape.org/namespaces/inkscape"
   xmlns:sodipodi="http://sodipodi.sourceforge.net/DTD/sodipodi-0.dtd"
   xmlns:xlink="http://www.w3.org/1999/xlink">
  <defs
     id="defs3">
    <linearGradient
       id="linearGradient1085">
      <stop
         style="stop-color:#006600;stop-opacity:1.0000000;"
         offset="0.0000000"
         id="stop1086" />
      <stop
         style="stop-color:#00ff00;stop-opacity:1.0000000;"
         offset="1.0000000"
         id="stop1087" />
    </linearGradient>
    <radialGradient
       xlink:href="#linearGradient1085"
       id="radialGradient1088"
       cx="1.7995006"
       cy="-0.033503532"
       r="2.1367373"
       fx="1.7995006"
       fy="-0.033503532" />
    <radialGradient
       xlink:href="#linearGradient1085"
       id="radialGradient1089"
       cx="-1.8538072"
       cy="-0.028270273"
       r="2.1367373"
       fx="-1.8538072"
       fy="-0.028270273" />
    <radialGradient
       xlink:href="#linearGradient1085"
       id="radialGradient1090"
       cx="-0.34090281"
       cy="-1.8841810"
       r="2.1367373"
       fx="-0.34090281"
       fy="-1.8841810"
       gradientTransform="scale(0.751916,1.329935)" />
    <radialGradient
       xlink:href="#linearGradient1085"
       id="radialGradient1091"
       cx="-0.33888963"
       cy="0.86286521"
       r="2.1367373"
       fx="-0.33888963"
       fy="0.86286521"
       gradientTransform="scale(0.751916,1.329935)" />
    <radialGradient
       xlink:href="#linearGradient1085"
       id="radialGradient1092"
       cx="0.86051458"
       cy="-0.022911092"
       r="2.1367371"
       fx="0.86051458"
       fy="-0.022911092" />
    <radialGradient
       xlink:href="#linearGradient1085"
       id="radialGradient1093"
       cx="-2.7927938"
       cy="-0.031800985"
       r="2.1367373"
       fx="-2.7927938"
       fy="-0.031800985" />
    <radialGradient
       xlink:href="#linearGradient1085"
       id="radialGradient1094"
       cx="-0.34090281"
       cy="-1.1746118"
       r="2.1367373"
       fx="-0.34090281"
       fy="-1.1746118"
       gradientTransform="scale(0.751916,1.329935)" />
    <radialGradient
       xlink:href="#linearGradient1085"
       id="radialGradient1095"
       cx="-0.33623907"
       cy="1.5691054"
       r="2.1367371"
       fx="-0.33623907"
       fy="1.5691054"
       gradientTransform="scale(0.751916,1.329935)" />
    <radialGradient
       xlink:href="#linearGradient1085"
       id="radialGradient1096"
       cx="0.26481381"
       cy="0.26821491"
       r="0.66534734"
       fx="0.26481381"
       fy="0.26821491"
       gradientTransform="scale(0.867801,1.152339)" />
  </defs>
  <sodipodi:namedview
     id="base"
     pagecolor="#ffffff"
     bordercolor="#666666"
     borderopacity="1.0"
     inkscape:pageopacity="0.0"
     inkscape:pageshadow="2"
     inkscape:zoom="1.00000000"
     inkscape:cx="314.24684"
     inkscape:cy="163.60373"
     inkscape:window-width="854"
     inkscape:window-height="696"
     showgrid="true"
     inkscape:window-x="282"
     inkscape:window-y="26" />
  <g
     id="g842">
    <path
       style="fill-opacity:0.49999997;fill-rule:evenodd;stroke-width:2.8679966pt;"
       d="M 126.58584,127.78915 L 126.58584,226.94540 C 126.31364,230.07498 124.05097,248.16297 106.14834,244.69540 C 86.633760,240.91561 99.648580,208.80988 71.460840,222.03915 C 62.253890,229.71509 57.186000,243.01849 55.492090,256.13290 C 55.465630,256.33772 55.423150,256.55321 55.398340,256.75790 C 54.431640,261.36994 53.941780,266.64695 54.148340,272.25790 C 54.707880,287.45734 59.801640,304.50653 70.710840,313.60165 C 98.898570,326.83091 85.883750,294.69394 105.39834,290.91415 C 124.91292,287.13435 125.99209,309.82040 125.99209,309.82040 L 126.58584,407.53915 L 228.17959,407.53915 C 234.38081,408.75741 246.42068,413.02822 243.58584,427.66415 C 239.80605,447.17875 207.70032,434.16391 220.92959,462.35165 C 228.60553,471.55861 241.90893,476.62649 255.02334,478.32040 C 255.22816,478.34687 255.44365,478.38934 255.64834,478.41415 C 260.26038,479.38086 265.53739,479.87071 271.14834,479.66415 C 286.34778,479.10462 303.39697,474.01085 312.49209,463.10165 C 325.72135,434.91393 293.58438,447.92874 289.80459,428.41415 C 286.02479,408.89958 308.71084,407.82040 308.71084,407.82040 L 405.89834,407.53915 C 405.89834,407.53915 405.27333,309.28914 405.27334,309.28915 C 405.27334,309.28915 404.19416,286.60310 384.67959,290.38290 C 365.16500,294.16269 378.17981,326.29965 349.99209,313.07040 C 339.08289,303.97528 333.98912,286.92609 333.42959,271.72665 C 333.22303,266.11570 333.71288,260.83870 334.67959,256.22665 C 334.70440,256.02196 334.74687,255.80646 334.77334,255.60165 C 336.46725,242.48724 341.53513,229.18383 350.74209,221.50790 C 356.02729,219.02741 359.86792,218.12879 362.74209,218.35165 C 375.19683,219.31736 369.57398,241.09307 385.42959,244.16415 C 403.63749,247.69085 405.69088,228.82443 405.89834,226.19540 L 405.89834,127.78915 C 405.89834,127.78915 308.55459,128.50790 308.55459,128.50790 C 308.55459,128.50790 285.86854,129.58707 289.64834,149.10165 C 293.42813,168.61624 325.56510,155.60142 312.33584,183.78915 C 303.24072,194.69835 286.19153,199.79211 270.99209,200.35165 C 265.38114,200.55821 260.10413,200.06835 255.49209,199.10165 C 255.28740,199.07684 255.07191,199.03436 254.86709,199.00790 C 241.75268,197.31399 228.44928,192.24610 220.77334,183.03915 C 207.54407,154.85141 239.64980,167.86624 243.42959,148.35165 C 247.14973,129.14505 225.46510,127.82693 224.77334,127.78915 L 126.58584,127.78915 z "
       id="path1392"
       sodipodi:nodetypes="cccccccccccccccccccccccccccccccccccccccccc" />
    <path
       style="fill:url(#radialGradient1096);fill-opacity:1;fill-rule:evenodd;stroke:#000000;stroke-width:12.500000;stroke-dasharray:none;stroke-linejoin:round;"
       d="M 108.62500,112.46875 L 108.62500,211.62500 C 108.35280,214.75458 106.09013,232.84257 88.187500,229.37500 C 68.672913,225.59521 81.687740,193.48948 53.500000,206.71875 C 44.293049,214.39469 39.225160,227.69809 37.531250,240.81250 C 37.504789,241.01732 37.462310,241.23281 37.437500,241.43750 C 36.470799,246.04954 35.980940,251.32655 36.187500,256.93750 C 36.747039,272.13694 41.840800,289.18613 52.750000,298.28125 C 80.937729,311.51051 67.922910,279.37354 87.437500,275.59375 C 106.95208,271.81395 108.03125,294.50000 108.03125,294.50000 L 108.62500,392.21875 L 210.21875,392.21875 C 216.41997,393.43701 228.45984,397.70782 225.62500,412.34375 C 221.84521,431.85835 189.73948,418.84351 202.96875,447.03125 C 210.64469,456.23821 223.94809,461.30609 237.06250,463.00000 C 237.26732,463.02647 237.48281,463.06894 237.68750,463.09375 C 242.29954,464.06046 247.57655,464.55031 253.18750,464.34375 C 268.38694,463.78422 285.43613,458.69045 294.53125,447.78125 C 307.76051,419.59353 275.62354,432.60834 271.84375,413.09375 C 268.06395,393.57918 290.75000,392.50000 290.75000,392.50000 L 387.93750,392.21875 C 387.93750,392.21875 387.31249,293.96874 387.31250,293.96875 C 387.31250,293.96875 386.23332,271.28270 366.71875,275.06250 C 347.20416,278.84229 360.21897,310.97925 332.03125,297.75000 C 321.12205,288.65488 316.02828,271.60569 315.46875,256.40625 C 315.26219,250.79530 315.75204,245.51830 316.71875,240.90625 C 316.74356,240.70156 316.78603,240.48606 316.81250,240.28125 C 318.50641,227.16684 323.57429,213.86343 332.78125,206.18750 C 338.06645,203.70701 341.90708,202.80839 344.78125,203.03125 C 357.23599,203.99696 351.61314,225.77267 367.46875,228.84375 C 385.67665,232.37045 387.73004,213.50403 387.93750,210.87500 L 387.93750,112.46875 C 387.93750,112.46875 290.59375,113.18750 290.59375,113.18750 C 290.59375,113.18750 267.90770,114.26667 271.68750,133.78125 C 275.46729,153.29584 307.60426,140.28102 294.37500,168.46875 C 285.27988,179.37795 268.23069,184.47171 253.03125,185.03125 C 247.42030,185.23781 242.14329,184.74795 237.53125,183.78125 C 237.32656,183.75644 237.11107,183.71396 236.90625,183.68750 C 223.79184,181.99359 210.48844,176.92570 202.81250,167.71875 C 189.58323,139.53101 221.68896,152.54584 225.46875,133.03125 C 229.18889,113.82465 207.50426,112.50653 206.81250,112.46875 L 108.62500,112.46875 z "
       id="path1220"
       sodipodi:nodetypes="cccccccccccccccccccccccccccccccccccccccccc" />
  </g>

  <rdf:RDF 
   xmlns="http://web.resource.org/cc/"
   xmlns:dc="http://purl.org/dc/elements/1.1/"
   xmlns:rdf="http://www.w3.org/1999/02/22-rdf-syntax-ns#">
  <Work rdf:about="">
    <dc:title>Clipart by Nicu Buculei - jigsaw_red_10</dc:title>
    <dc:rights>
       <Agent>
         <dc:title>Nicu Buculei</dc:title>
       </Agent>
    </dc:rights>
    <dc:type rdf:resource="http://purl.org/dc/dcmitype/StillImage" />
    <license rdf:resource="http://web.resource.org/cc/PublicDomain" />
  </Work>
   
  <License rdf:about="http://web.resource.org/cc/PublicDomain">
     <permits rdf:resource="http://web.resource.org/cc/Reproduction" />
     <permits rdf:resource="http://web.resource.org/cc/Distribution" />
     <permits rdf:resource="http://web.resource.org/cc/DerivativeWorks" />
  </License>

</rdf:RDF>
</svg>
