<?xml version="1.0" encoding="UTF-8" standalone="no"?>
<!DOCTYPE svg PUBLIC "-//W3C//DTD SVG 20010904//EN"
"http://www.w3.org/TR/2001/REC-SVG-20010904/DTD/svg10.dtd">
<!-- Created with Inkscape (http://www.inkscape.org/) -->
<svg
   id="svg1"
   sodipodi:version="0.32"
   inkscape:version="0.38.1"
   width="400.00000pt"
   height="400.00000pt"
   sodipodi:docbase="/var/www/html/svg_gallery/svg/jigsaw"
   sodipodi:docname="jigsaw_green_09.svg"
   xmlns="http://www.w3.org/2000/svg"
   xmlns:inkscape="http://www.inkscape.org/namespaces/inkscape"
   xmlns:sodipodi="http://sodipodi.sourceforge.net/DTD/sodipodi-0.dtd"
   xmlns:xlink="http://www.w3.org/1999/xlink">
  <defs
     id="defs3">
    <linearGradient
       id="linearGradient1085">
      <stop
         style="stop-color:#006600;stop-opacity:1.0000000;"
         offset="0.0000000"
         id="stop1086" />
      <stop
         style="stop-color:#00ff00;stop-opacity:1.0000000;"
         offset="1.0000000"
         id="stop1087" />
    </linearGradient>
    <radialGradient
       xlink:href="#linearGradient1085"
       id="radialGradient1088"
       cx="1.7995006"
       cy="-0.033503532"
       r="2.1367373"
       fx="1.7995006"
       fy="-0.033503532" />
    <radialGradient
       xlink:href="#linearGradient1085"
       id="radialGradient1089"
       cx="-1.8538072"
       cy="-0.028270273"
       r="2.1367373"
       fx="-1.8538072"
       fy="-0.028270273" />
    <radialGradient
       xlink:href="#linearGradient1085"
       id="radialGradient1090"
       cx="-0.34090281"
       cy="-1.8841810"
       r="2.1367373"
       fx="-0.34090281"
       fy="-1.8841810"
       gradientTransform="scale(0.751916,1.329935)" />
    <radialGradient
       xlink:href="#linearGradient1085"
       id="radialGradient1091"
       cx="-0.33888963"
       cy="0.86286521"
       r="2.1367373"
       fx="-0.33888963"
       fy="0.86286521"
       gradientTransform="scale(0.751916,1.329935)" />
    <radialGradient
       xlink:href="#linearGradient1085"
       id="radialGradient1092"
       cx="0.86051458"
       cy="-0.022911092"
       r="2.1367371"
       fx="0.86051458"
       fy="-0.022911092" />
    <radialGradient
       xlink:href="#linearGradient1085"
       id="radialGradient1093"
       cx="-2.7927938"
       cy="-0.031800985"
       r="2.1367373"
       fx="-2.7927938"
       fy="-0.031800985" />
    <radialGradient
       xlink:href="#linearGradient1085"
       id="radialGradient1094"
       cx="-0.34090281"
       cy="-1.1746118"
       r="2.1367373"
       fx="-0.34090281"
       fy="-1.1746118"
       gradientTransform="scale(0.751916,1.329935)" />
    <radialGradient
       xlink:href="#linearGradient1085"
       id="radialGradient1095"
       cx="-0.33623907"
       cy="1.5691054"
       r="2.1367371"
       fx="-0.33623907"
       fy="1.5691054"
       gradientTransform="scale(0.751916,1.329935)" />
    <radialGradient
       xlink:href="#linearGradient1085"
       id="radialGradient1096"
       cx="0.26481381"
       cy="0.26821491"
       r="0.66534734"
       fx="0.26481381"
       fy="0.26821491"
       gradientTransform="scale(0.867801,1.152339)" />
  </defs>
  <sodipodi:namedview
     id="base"
     pagecolor="#ffffff"
     bordercolor="#666666"
     borderopacity="1.0"
     inkscape:pageopacity="0.0"
     inkscape:pageshadow="2"
     inkscape:zoom="1.00000000"
     inkscape:cx="314.24684"
     inkscape:cy="163.60373"
     inkscape:window-width="854"
     inkscape:window-height="696"
     showgrid="true"
     inkscape:window-x="358"
     inkscape:window-y="24" />
  <g
     id="g842">
    <path
       style="fill-opacity:0.49999997;fill-rule:evenodd;stroke-width:2.8679966pt;"
       d="M 260.91416,55.476470 C 245.71472,56.036010 228.66553,61.129780 219.57041,72.038970 C 206.34115,100.22670 238.47812,87.211880 242.25791,106.72647 C 246.03770,126.24106 223.35166,127.32022 223.35166,127.32022 L 223.35166,127.32022 L 125.60166,127.32022 C 125.60166,127.32022 125.72666,224.25773 125.72666,224.25772 C 125.72666,224.25772 126.80583,246.94375 146.32041,243.16397 C 162.17601,240.09289 156.55317,218.28593 169.00791,217.32022 C 171.88208,217.09736 175.72271,217.99598 181.00791,220.47647 C 191.91711,229.57159 197.01087,246.62078 197.57041,261.82022 C 197.77697,267.43117 197.28711,272.70816 196.32041,277.32022 C 196.29560,277.52491 196.25312,277.74039 196.22666,277.94522 C 194.53275,291.05963 189.46486,304.36302 180.25791,312.03897 C 152.07017,325.26824 165.08500,293.13125 145.57041,289.35147 C 131.35221,286.59754 126.95996,297.82981 125.60166,304.16397 L 125.60166,407.07022 C 125.60166,407.07022 223.69542,406.28896 223.69541,406.28897 C 223.69541,406.28897 246.38144,405.20979 242.60166,385.69522 C 238.82187,366.18063 206.71615,379.19544 219.94541,351.00772 C 229.04053,340.09852 246.05847,335.00475 261.25791,334.44522 C 266.86886,334.23866 272.14587,334.72851 276.75791,335.69522 C 276.96260,335.72003 277.17809,335.76250 277.38291,335.78897 C 290.49732,337.48288 303.83197,342.55076 311.50791,351.75772 C 324.73718,379.94546 292.60020,366.93062 288.82041,386.44522 C 285.04062,405.95980 307.72666,407.03896 307.72666,407.03897 L 404.91416,407.07022 L 404.91416,304.97647 C 406.30057,298.62436 410.71689,287.51995 424.85166,290.25772 C 444.36624,294.03751 431.35142,326.17449 459.53916,312.94522 C 468.74610,305.26928 473.81400,291.93463 475.50791,278.82022 C 475.53436,278.61540 475.57685,278.43116 475.60166,278.22647 C 476.56835,273.61442 477.05822,268.33742 476.85166,262.72647 C 476.29211,247.52703 471.19836,230.47784 460.28916,221.38272 C 432.10142,208.15346 445.11625,240.29043 425.60166,244.07022 C 406.08707,247.85002 405.00791,225.16397 405.00791,225.16397 L 404.91416,127.32022 L 302.75791,127.32022 C 296.35232,125.83828 285.79368,121.32834 288.47666,107.47647 C 292.25644,87.961880 324.36218,100.97671 311.13291,72.788970 C 303.45696,63.582030 290.15357,58.514140 277.03916,56.820220 C 276.83433,56.793760 276.61885,56.751280 276.41416,56.726470 C 271.80211,55.759770 266.52511,55.269910 260.91416,55.476470 z "
       id="path1432"
       sodipodi:nodetypes="ccccccccccccccccccccccccccccccccccccccccccc" />
    <path
       style="fill:url(#radialGradient1096);fill-opacity:1;fill-rule:evenodd;stroke:#000000;stroke-width:12.500000;stroke-dasharray:none;stroke-linejoin:round;"
       d="M 243.93750,40.625000 C 228.73806,41.184541 211.68887,46.278306 202.59375,57.187500 C 189.36449,85.375233 221.50146,72.360414 225.28125,91.875000 C 229.06104,111.38959 206.37500,112.46875 206.37500,112.46875 L 206.37500,112.46875 L 108.62500,112.46875 C 108.62500,112.46875 108.75000,209.40626 108.75000,209.40625 C 108.75000,209.40625 109.82917,232.09228 129.34375,228.31250 C 145.19935,225.24142 139.57651,203.43446 152.03125,202.46875 C 154.90542,202.24589 158.74605,203.14451 164.03125,205.62500 C 174.94045,214.72012 180.03421,231.76931 180.59375,246.96875 C 180.80031,252.57970 180.31045,257.85669 179.34375,262.46875 C 179.31894,262.67344 179.27646,262.88892 179.25000,263.09375 C 177.55609,276.20816 172.48820,289.51155 163.28125,297.18750 C 135.09351,310.41677 148.10834,278.27978 128.59375,274.50000 C 114.37555,271.74607 109.98330,282.97834 108.62500,289.31250 L 108.62500,392.21875 C 108.62500,392.21875 206.71876,391.43749 206.71875,391.43750 C 206.71875,391.43750 229.40478,390.35832 225.62500,370.84375 C 221.84521,351.32916 189.73949,364.34397 202.96875,336.15625 C 212.06387,325.24705 229.08181,320.15328 244.28125,319.59375 C 249.89220,319.38719 255.16921,319.87704 259.78125,320.84375 C 259.98594,320.86856 260.20143,320.91103 260.40625,320.93750 C 273.52066,322.63141 286.85531,327.69929 294.53125,336.90625 C 307.76052,365.09399 275.62354,352.07915 271.84375,371.59375 C 268.06396,391.10833 290.75000,392.18749 290.75000,392.18750 L 387.93750,392.21875 L 387.93750,290.12500 C 389.32391,283.77289 393.74023,272.66848 407.87500,275.40625 C 427.38958,279.18604 414.37476,311.32302 442.56250,298.09375 C 451.76944,290.41781 456.83734,277.08316 458.53125,263.96875 C 458.55770,263.76393 458.60019,263.57969 458.62500,263.37500 C 459.59169,258.76295 460.08156,253.48595 459.87500,247.87500 C 459.31545,232.67556 454.22170,215.62637 443.31250,206.53125 C 415.12476,193.30199 428.13959,225.43896 408.62500,229.21875 C 389.11041,232.99855 388.03125,210.31250 388.03125,210.31250 L 387.93750,112.46875 L 285.78125,112.46875 C 279.37566,110.98681 268.81702,106.47687 271.50000,92.625000 C 275.27978,73.110411 307.38552,86.125240 294.15625,57.937500 C 286.48030,48.730556 273.17691,43.662666 260.06250,41.968750 C 259.85767,41.942295 259.64219,41.899812 259.43750,41.875000 C 254.82545,40.908303 249.54845,40.418443 243.93750,40.625000 z "
       id="path1188"
       sodipodi:nodetypes="ccccccccccccccccccccccccccccccccccccccccccc" />
  </g>

  <rdf:RDF 
   xmlns="http://web.resource.org/cc/"
   xmlns:dc="http://purl.org/dc/elements/1.1/"
   xmlns:rdf="http://www.w3.org/1999/02/22-rdf-syntax-ns#">
  <Work rdf:about="">
    <dc:title>Clipart by Nicu Buculei - jigsaw_red_10</dc:title>
    <dc:rights>
       <Agent>
         <dc:title>Nicu Buculei</dc:title>
       </Agent>
    </dc:rights>
    <dc:type rdf:resource="http://purl.org/dc/dcmitype/StillImage" />
    <license rdf:resource="http://web.resource.org/cc/PublicDomain" />
  </Work>
   
  <License rdf:about="http://web.resource.org/cc/PublicDomain">
     <permits rdf:resource="http://web.resource.org/cc/Reproduction" />
     <permits rdf:resource="http://web.resource.org/cc/Distribution" />
     <permits rdf:resource="http://web.resource.org/cc/DerivativeWorks" />
  </License>

</rdf:RDF>
</svg>
