<?xml version="1.0" encoding="UTF-8" standalone="no"?>
<!DOCTYPE svg PUBLIC "-//W3C//DTD SVG 20010904//EN"
"http://www.w3.org/TR/2001/REC-SVG-20010904/DTD/svg10.dtd">
<!-- Created with Inkscape (http://www.inkscape.org/) -->
<svg
   id="svg1"
   sodipodi:version="0.32"
   inkscape:version="0.38.1"
   width="400.00000pt"
   height="400.00000pt"
   sodipodi:docbase="/var/www/html/svg_gallery/svg/jigsaw"
   sodipodi:docname="jigsaw_green_02.svg"
   xmlns="http://www.w3.org/2000/svg"
   xmlns:inkscape="http://www.inkscape.org/namespaces/inkscape"
   xmlns:sodipodi="http://sodipodi.sourceforge.net/DTD/sodipodi-0.dtd"
   xmlns:xlink="http://www.w3.org/1999/xlink">
  <defs
     id="defs3">
    <linearGradient
       id="linearGradient1085">
      <stop
         style="stop-color:#006600;stop-opacity:1.0000000;"
         offset="0.0000000"
         id="stop1086" />
      <stop
         style="stop-color:#00ff00;stop-opacity:1.0000000;"
         offset="1.0000000"
         id="stop1087" />
    </linearGradient>
    <radialGradient
       xlink:href="#linearGradient1085"
       id="radialGradient1088"
       cx="1.7164468"
       cy="-0.64022434"
       r="4.1027193"
       fx="1.7164468"
       fy="-0.64022434" />
    <radialGradient
       xlink:href="#linearGradient1085"
       id="radialGradient1089"
       cx="-1.9368610"
       cy="-0.63499105"
       r="4.1027193"
       fx="-1.9368610"
       fy="-0.63499105" />
    <radialGradient
       xlink:href="#linearGradient1085"
       id="radialGradient1090"
       cx="-0.42395663"
       cy="-2.4909019"
       r="4.1027193"
       fx="-0.42395663"
       fy="-2.4909019"
       gradientTransform="scale(0.751916,1.329935)" />
    <radialGradient
       xlink:href="#linearGradient1085"
       id="radialGradient1091"
       cx="-0.42194343"
       cy="0.25614440"
       r="4.1027193"
       fx="-0.42194343"
       fy="0.25614440"
       gradientTransform="scale(0.751916,1.329935)" />
    <radialGradient
       xlink:href="#linearGradient1085"
       id="radialGradient1092"
       cx="0.77746075"
       cy="-0.62963188"
       r="4.1027188"
       fx="0.77746075"
       fy="-0.62963188" />
    <radialGradient
       xlink:href="#linearGradient1085"
       id="radialGradient1093"
       cx="-2.8758476"
       cy="-0.63852179"
       r="4.1027193"
       fx="-2.8758476"
       fy="-0.63852179" />
    <radialGradient
       xlink:href="#linearGradient1085"
       id="radialGradient1094"
       cx="-0.42395663"
       cy="-1.7813325"
       r="4.1027193"
       fx="-0.42395663"
       fy="-1.7813325"
       gradientTransform="scale(0.751916,1.329935)" />
    <radialGradient
       xlink:href="#linearGradient1085"
       id="radialGradient1095"
       cx="-0.41929287"
       cy="0.96238458"
       r="4.1027188"
       fx="-0.41929287"
       fy="0.96238458"
       gradientTransform="scale(0.751916,1.329935)" />
    <radialGradient
       xlink:href="#linearGradient1085"
       id="radialGradient1096"
       cx="0.23895212"
       cy="0.079291321"
       r="1.2775240"
       fx="0.23895212"
       fy="0.079291321"
       gradientTransform="scale(0.867801,1.152339)" />
  </defs>
  <sodipodi:namedview
     id="base"
     pagecolor="#ffffff"
     bordercolor="#666666"
     borderopacity="1.0"
     inkscape:pageopacity="0.0"
     inkscape:pageshadow="2"
     inkscape:zoom="1.00000000"
     inkscape:cx="314.24684"
     inkscape:cy="163.60373"
     inkscape:window-width="854"
     inkscape:window-height="696"
     showgrid="true"
     inkscape:window-x="327"
     inkscape:window-y="44" />
  <g
     id="g842">
    <path
       style="fill-opacity:0.49999997;fill-rule:evenodd;stroke-width:2.8679966pt;"
       d="M 53.140630,271.84374 C 53.700170,287.04318 58.793940,304.09237 69.703130,313.18749 C 97.890860,326.41675 84.876040,294.27978 104.39063,290.49999 C 123.90522,286.72020 124.98438,309.40624 124.98438,309.40624 L 124.98438,309.40624 L 124.98438,407.15624 C 124.98438,407.15624 221.92189,407.03124 221.92188,407.03124 C 221.92188,407.03124 244.60791,405.95207 240.82813,386.43749 C 237.75705,370.58189 215.95009,376.20473 214.98438,363.74999 C 214.76152,360.87582 215.66014,357.03519 218.14063,351.74999 C 227.23575,340.84079 244.28494,335.74703 259.48438,335.18749 C 265.09533,334.98093 270.37232,335.47079 274.98438,336.43749 C 275.18907,336.46230 275.40455,336.50478 275.60938,336.53124 C 288.72379,338.22515 302.02718,343.29304 309.70313,352.49999 C 322.93240,380.68773 290.79541,367.67290 287.01563,387.18749 C 284.26170,401.40569 295.49397,405.79794 301.82813,407.15624 L 404.73438,407.15624 L 404.73438,305.56249 C 405.95264,299.36127 410.22345,287.32140 424.85938,290.15624 C 444.37398,293.93603 431.35914,326.04176 459.54688,312.81249 C 468.75384,305.13655 473.82172,291.83315 475.51563,278.71874 C 475.54210,278.51392 475.58457,278.29843 475.60938,278.09374 C 476.57609,273.48170 477.06594,268.20469 476.85938,262.59374 C 476.29985,247.39430 471.20608,230.34511 460.29688,221.24999 C 432.10916,208.02073 445.12397,240.15770 425.60938,243.93749 C 406.09481,247.71729 405.01563,225.03124 405.01563,225.03124 L 404.73438,127.84374 C 404.73438,127.84374 306.48437,128.46875 306.48438,128.46874 C 306.48438,128.46874 283.79833,129.54792 287.57813,149.06249 C 291.35792,168.57708 323.49488,155.56227 310.26563,183.74999 C 301.17051,194.65919 284.12132,199.75296 268.92188,200.31249 C 263.31093,200.51905 258.03393,200.02920 253.42188,199.06249 C 253.21719,199.03768 253.00169,198.99521 252.79688,198.96874 C 239.68247,197.27483 226.37906,192.20695 218.70313,182.99999 C 216.22264,177.71479 215.32402,173.87416 215.54688,170.99999 C 216.51259,158.54525 238.28830,164.16810 241.35938,148.31249 C 244.88608,130.10459 226.01966,128.05120 223.39063,127.84374 L 124.98438,127.84374 L 124.98438,229.99999 C 123.50244,236.40558 118.99250,246.96422 105.14063,244.28124 C 85.626040,240.50146 98.640870,208.39572 70.453130,221.62499 C 61.246190,229.30094 56.178300,242.60433 54.484380,255.71874 C 54.457920,255.92357 54.415440,256.13905 54.390630,256.34374 C 53.423930,260.95579 52.934070,266.23279 53.140630,271.84374 z "
       id="path1572"
       sodipodi:nodetypes="cccccccccccccccccccccccccccccccccccccccccccc" />
    <path
       style="fill:url(#radialGradient1096);fill-opacity:1;fill-rule:evenodd;stroke:#000000;stroke-width:12.500000;stroke-dasharray:none;stroke-linejoin:round;"
       d="M 36.421871,256.82809 C 36.981411,272.02753 42.075181,289.07672 52.984371,298.17184 C 81.172101,311.40110 68.157281,279.26413 87.671871,275.48434 C 107.18646,271.70455 108.26562,294.39059 108.26562,294.39059 L 108.26562,294.39059 L 108.26562,392.14059 C 108.26562,392.14059 205.20313,392.01559 205.20312,392.01559 C 205.20312,392.01559 227.88915,390.93642 224.10937,371.42184 C 221.03829,355.56624 199.23133,361.18908 198.26562,348.73434 C 198.04276,345.86017 198.94138,342.01954 201.42187,336.73434 C 210.51699,325.82514 227.56618,320.73138 242.76562,320.17184 C 248.37657,319.96528 253.65356,320.45514 258.26562,321.42184 C 258.47031,321.44665 258.68579,321.48913 258.89062,321.51559 C 272.00503,323.20950 285.30842,328.27739 292.98437,337.48434 C 306.21364,365.67208 274.07665,352.65725 270.29687,372.17184 C 267.54294,386.39004 278.77521,390.78229 285.10937,392.14059 L 388.01562,392.14059 L 388.01562,290.54684 C 389.23388,284.34562 393.50469,272.30575 408.14062,275.14059 C 427.65522,278.92038 414.64038,311.02611 442.82812,297.79684 C 452.03508,290.12090 457.10296,276.81750 458.79687,263.70309 C 458.82334,263.49827 458.86581,263.28278 458.89062,263.07809 C 459.85733,258.46605 460.34718,253.18904 460.14062,247.57809 C 459.58109,232.37865 454.48732,215.32946 443.57812,206.23434 C 415.39040,193.00508 428.40521,225.14205 408.89062,228.92184 C 389.37605,232.70164 388.29687,210.01559 388.29687,210.01559 L 388.01562,112.82809 C 388.01562,112.82809 289.76561,113.45310 289.76562,113.45309 C 289.76562,113.45309 267.07957,114.53227 270.85937,134.04684 C 274.63916,153.56143 306.77612,140.54662 293.54687,168.73434 C 284.45175,179.64354 267.40256,184.73731 252.20312,185.29684 C 246.59217,185.50340 241.31517,185.01355 236.70312,184.04684 C 236.49843,184.02203 236.28293,183.97956 236.07812,183.95309 C 222.96371,182.25918 209.66030,177.19130 201.98437,167.98434 C 199.50388,162.69914 198.60526,158.85851 198.82812,155.98434 C 199.79383,143.52960 221.56954,149.15245 224.64062,133.29684 C 228.16732,115.08894 209.30090,113.03555 206.67187,112.82809 L 108.26562,112.82809 L 108.26562,214.98434 C 106.78368,221.38993 102.27374,231.94857 88.421871,229.26559 C 68.907281,225.48581 81.922111,193.38007 53.734371,206.60934 C 44.527431,214.28529 39.459541,227.58868 37.765621,240.70309 C 37.739161,240.90792 37.696681,241.12340 37.671871,241.32809 C 36.705171,245.94014 36.215311,251.21714 36.421871,256.82809 z "
       id="path1099"
       sodipodi:nodetypes="cccccccccccccccccccccccccccccccccccccccccccc" />
  </g>

  <rdf:RDF 
   xmlns="http://web.resource.org/cc/"
   xmlns:dc="http://purl.org/dc/elements/1.1/"
   xmlns:rdf="http://www.w3.org/1999/02/22-rdf-syntax-ns#">
  <Work rdf:about="">
    <dc:title>Clipart by Nicu Buculei - jigsaw_red_10</dc:title>
    <dc:rights>
       <Agent>
         <dc:title>Nicu Buculei</dc:title>
       </Agent>
    </dc:rights>
    <dc:type rdf:resource="http://purl.org/dc/dcmitype/StillImage" />
    <license rdf:resource="http://web.resource.org/cc/PublicDomain" />
  </Work>
   
  <License rdf:about="http://web.resource.org/cc/PublicDomain">
     <permits rdf:resource="http://web.resource.org/cc/Reproduction" />
     <permits rdf:resource="http://web.resource.org/cc/Distribution" />
     <permits rdf:resource="http://web.resource.org/cc/DerivativeWorks" />
  </License>

</rdf:RDF>
</svg>
