<?xml version="1.0" encoding="UTF-8" standalone="no"?>
<!DOCTYPE svg PUBLIC "-//W3C//DTD SVG 20010904//EN"
"http://www.w3.org/TR/2001/REC-SVG-20010904/DTD/svg10.dtd">
<!-- Created with Inkscape (http://www.inkscape.org/) -->
<svg
   id="svg1"
   sodipodi:version="0.32"
   inkscape:version="0.38.1"
   width="400.00000pt"
   height="400.00000pt"
   sodipodi:docbase="/var/www/html/svg_gallery/svg/jigsaw"
   sodipodi:docname="jigsaw_green_07.svg"
   xmlns="http://www.w3.org/2000/svg"
   xmlns:inkscape="http://www.inkscape.org/namespaces/inkscape"
   xmlns:sodipodi="http://sodipodi.sourceforge.net/DTD/sodipodi-0.dtd"
   xmlns:xlink="http://www.w3.org/1999/xlink">
  <defs
     id="defs3">
    <linearGradient
       id="linearGradient1085">
      <stop
         style="stop-color:#006600;stop-opacity:1.0000000;"
         offset="0.0000000"
         id="stop1086" />
      <stop
         style="stop-color:#00ff00;stop-opacity:1.0000000;"
         offset="1.0000000"
         id="stop1087" />
    </linearGradient>
    <radialGradient
       xlink:href="#linearGradient1085"
       id="radialGradient1088"
       cx="2.6854086"
       cy="0.21755335"
       r="2.6095297"
       fx="2.6854086"
       fy="0.21755335" />
    <radialGradient
       xlink:href="#linearGradient1085"
       id="radialGradient1089"
       cx="-0.96789926"
       cy="0.22278659"
       r="2.6095295"
       fx="-0.96789926"
       fy="0.22278659" />
    <radialGradient
       xlink:href="#linearGradient1085"
       id="radialGradient1090"
       cx="0.54500526"
       cy="-1.6331241"
       r="2.6095297"
       fx="0.54500526"
       fy="-1.6331241"
       gradientTransform="scale(0.751916,1.329935)" />
    <radialGradient
       xlink:href="#linearGradient1085"
       id="radialGradient1091"
       cx="0.54701841"
       cy="1.1139221"
       r="2.6095297"
       fx="0.54701841"
       fy="1.1139221"
       gradientTransform="scale(0.751916,1.329935)" />
    <radialGradient
       xlink:href="#linearGradient1085"
       id="radialGradient1092"
       cx="1.7464225"
       cy="0.22814576"
       r="2.6095295"
       fx="1.7464225"
       fy="0.22814576" />
    <radialGradient
       xlink:href="#linearGradient1085"
       id="radialGradient1093"
       cx="-1.9068856"
       cy="0.21925589"
       r="2.6095297"
       fx="-1.9068856"
       fy="0.21925589" />
    <radialGradient
       xlink:href="#linearGradient1085"
       id="radialGradient1094"
       cx="0.54500526"
       cy="-0.92355484"
       r="2.6095297"
       fx="0.54500526"
       fy="-0.92355484"
       gradientTransform="scale(0.751916,1.329935)" />
    <radialGradient
       xlink:href="#linearGradient1085"
       id="radialGradient1095"
       cx="0.54966885"
       cy="1.8201622"
       r="2.6095295"
       fx="0.54966885"
       fy="1.8201622"
       gradientTransform="scale(0.751916,1.329935)" />
    <radialGradient
       xlink:href="#linearGradient1085"
       id="radialGradient1096"
       cx="0.54067200"
       cy="0.34639019"
       r="0.81256765"
       fx="0.54067200"
       fy="0.34639019"
       gradientTransform="scale(0.867801,1.152339)" />
  </defs>
  <sodipodi:namedview
     id="base"
     pagecolor="#ffffff"
     bordercolor="#666666"
     borderopacity="1.0"
     inkscape:pageopacity="0.0"
     inkscape:pageshadow="2"
     inkscape:zoom="1.00000000"
     inkscape:cx="314.24684"
     inkscape:cy="163.60373"
     inkscape:window-width="854"
     inkscape:window-height="696"
     showgrid="true"
     inkscape:window-x="329"
     inkscape:window-y="24" />
  <g
     id="g842">
    <path
       style="fill-opacity:0.49999997;fill-rule:evenodd;stroke-width:2.8679966pt;"
       d="M 261.89834,55.640625 C 246.69890,56.200166 229.64971,61.293931 220.55459,72.203125 C 207.32533,100.39086 239.46230,87.376039 243.24209,106.89062 C 247.02188,126.40521 224.33584,127.48437 224.33584,127.48437 L 224.33584,127.48437 L 126.58584,127.48437 L 126.58584,226.64062 C 126.31364,229.77020 124.05097,247.85819 106.14834,244.39062 C 86.633760,240.61083 99.648580,208.50510 71.460840,221.73437 C 62.253890,229.41031 57.186000,242.71371 55.492090,255.82812 C 55.465630,256.03294 55.423150,256.24843 55.398340,256.45312 C 54.431640,261.06516 53.941780,266.34217 54.148340,271.95312 C 54.707880,287.15256 59.801640,304.20175 70.710840,313.29687 C 98.898570,326.52613 85.883750,294.38916 105.39834,290.60937 C 124.91292,286.82957 125.99209,309.51562 125.99209,309.51562 L 126.58584,407.23437 L 228.17959,407.23437 C 234.38081,408.45263 246.42068,412.72344 243.58584,427.35937 C 239.80605,446.87397 207.70032,433.85913 220.92959,462.04687 C 228.60553,471.25383 241.90893,476.32171 255.02334,478.01562 C 255.22816,478.04209 255.44365,478.08456 255.64834,478.10937 C 260.26038,479.07608 265.53739,479.56593 271.14834,479.35937 C 286.34778,478.79984 303.39697,473.70607 312.49209,462.79687 C 325.72135,434.60915 293.58438,447.62396 289.80459,428.10937 C 286.02479,408.59480 308.71084,407.51562 308.71084,407.51562 L 405.89834,407.23437 C 405.89834,407.23437 405.27333,308.98436 405.27334,308.98437 C 405.27334,308.98437 404.19416,286.29832 384.67959,290.07812 C 365.16500,293.85791 378.17981,325.99487 349.99209,312.76562 C 339.08289,303.67050 333.98912,286.62131 333.42959,271.42187 C 333.22303,265.81092 333.71288,260.53392 334.67959,255.92187 C 334.70440,255.71718 334.74687,255.50168 334.77334,255.29687 C 336.46725,242.18246 341.53513,228.87905 350.74209,221.20312 C 378.92983,207.97385 365.91499,240.07957 385.42959,243.85937 C 403.63749,247.38607 405.69088,228.51880 405.89834,225.89062 L 405.89834,127.48437 L 303.74209,127.48437 C 297.33650,126.00243 286.77786,121.49249 289.46084,107.64062 C 293.24062,88.126036 325.34636,101.14087 312.11709,72.953125 C 304.44114,63.746181 291.13775,58.678291 278.02334,56.984375 C 277.81851,56.957920 277.60303,56.915437 277.39834,56.890625 C 272.78629,55.923928 267.50929,55.434068 261.89834,55.640625 z "
       id="path1472"
       sodipodi:nodetypes="cccccccccccccccccccccccccccccccccccccccccc" />
    <path
       style="fill:url(#radialGradient1096);fill-opacity:1;fill-rule:evenodd;stroke:#000000;stroke-width:12.500000;stroke-dasharray:none;stroke-linejoin:round;"
       d="M 243.93750,40.625000 C 228.73806,41.184541 211.68887,46.278306 202.59375,57.187500 C 189.36449,85.375233 221.50146,72.360414 225.28125,91.875000 C 229.06104,111.38959 206.37500,112.46875 206.37500,112.46875 L 206.37500,112.46875 L 108.62500,112.46875 L 108.62500,211.62500 C 108.35280,214.75458 106.09013,232.84257 88.187500,229.37500 C 68.672913,225.59521 81.687740,193.48948 53.500000,206.71875 C 44.293049,214.39469 39.225160,227.69809 37.531250,240.81250 C 37.504789,241.01732 37.462310,241.23281 37.437500,241.43750 C 36.470799,246.04954 35.980940,251.32655 36.187500,256.93750 C 36.747039,272.13694 41.840800,289.18613 52.750000,298.28125 C 80.937729,311.51051 67.922910,279.37354 87.437500,275.59375 C 106.95208,271.81395 108.03125,294.50000 108.03125,294.50000 L 108.62500,392.21875 L 210.21875,392.21875 C 216.41997,393.43701 228.45984,397.70782 225.62500,412.34375 C 221.84521,431.85835 189.73948,418.84351 202.96875,447.03125 C 210.64469,456.23821 223.94809,461.30609 237.06250,463.00000 C 237.26732,463.02647 237.48281,463.06894 237.68750,463.09375 C 242.29954,464.06046 247.57655,464.55031 253.18750,464.34375 C 268.38694,463.78422 285.43613,458.69045 294.53125,447.78125 C 307.76051,419.59353 275.62354,432.60834 271.84375,413.09375 C 268.06395,393.57918 290.75000,392.50000 290.75000,392.50000 L 387.93750,392.21875 C 387.93750,392.21875 387.31249,293.96874 387.31250,293.96875 C 387.31250,293.96875 386.23332,271.28270 366.71875,275.06250 C 347.20416,278.84229 360.21897,310.97925 332.03125,297.75000 C 321.12205,288.65488 316.02828,271.60569 315.46875,256.40625 C 315.26219,250.79530 315.75204,245.51830 316.71875,240.90625 C 316.74356,240.70156 316.78603,240.48606 316.81250,240.28125 C 318.50641,227.16684 323.57429,213.86343 332.78125,206.18750 C 360.96899,192.95823 347.95415,225.06395 367.46875,228.84375 C 385.67665,232.37045 387.73004,213.50318 387.93750,210.87500 L 387.93750,112.46875 L 285.78125,112.46875 C 279.37566,110.98681 268.81702,106.47687 271.50000,92.625000 C 275.27978,73.110411 307.38552,86.125240 294.15625,57.937500 C 286.48030,48.730556 273.17691,43.662666 260.06250,41.968750 C 259.85767,41.942295 259.64219,41.899812 259.43750,41.875000 C 254.82545,40.908303 249.54845,40.418443 243.93750,40.625000 z "
       id="path1163"
       sodipodi:nodetypes="cccccccccccccccccccccccccccccccccccccccccc" />
  </g>

  <rdf:RDF 
   xmlns="http://web.resource.org/cc/"
   xmlns:dc="http://purl.org/dc/elements/1.1/"
   xmlns:rdf="http://www.w3.org/1999/02/22-rdf-syntax-ns#">
  <Work rdf:about="">
    <dc:title>Clipart by Nicu Buculei - jigsaw_red_10</dc:title>
    <dc:rights>
       <Agent>
         <dc:title>Nicu Buculei</dc:title>
       </Agent>
    </dc:rights>
    <dc:type rdf:resource="http://purl.org/dc/dcmitype/StillImage" />
    <license rdf:resource="http://web.resource.org/cc/PublicDomain" />
  </Work>
   
  <License rdf:about="http://web.resource.org/cc/PublicDomain">
     <permits rdf:resource="http://web.resource.org/cc/Reproduction" />
     <permits rdf:resource="http://web.resource.org/cc/Distribution" />
     <permits rdf:resource="http://web.resource.org/cc/DerivativeWorks" />
  </License>

</rdf:RDF>
</svg>
