<?xml version="1.0" encoding="UTF-8" standalone="no"?>
<!DOCTYPE svg PUBLIC "-//W3C//DTD SVG 20010904//EN"
"http://www.w3.org/TR/2001/REC-SVG-20010904/DTD/svg10.dtd">
<!-- Created with Inkscape (http://www.inkscape.org/) -->
<svg
   id="svg1"
   sodipodi:version="0.32"
   inkscape:version="0.38.1"
   width="400.00000pt"
   height="400.00000pt"
   sodipodi:docbase="/var/www/html/svg_gallery/svg/jigsaw"
   sodipodi:docname="jigsaw_green_01.svg"
   xmlns="http://www.w3.org/2000/svg"
   xmlns:inkscape="http://www.inkscape.org/namespaces/inkscape"
   xmlns:sodipodi="http://sodipodi.sourceforge.net/DTD/sodipodi-0.dtd"
   xmlns:xlink="http://www.w3.org/1999/xlink">
  <defs
     id="defs3">
    <linearGradient
       id="linearGradient1085">
      <stop
         style="stop-color:#006600;stop-opacity:1.0000000;"
         offset="0.0000000"
         id="stop1086" />
      <stop
         style="stop-color:#00ff00;stop-opacity:1.0000000;"
         offset="1.0000000"
         id="stop1087" />
    </linearGradient>
    <radialGradient
       xlink:href="#linearGradient1085"
       id="radialGradient1088"
       cx="1.7164468"
       cy="-0.64022434"
       r="4.1027193"
       fx="1.7164468"
       fy="-0.64022434" />
    <radialGradient
       xlink:href="#linearGradient1085"
       id="radialGradient1089"
       cx="-1.9368610"
       cy="-0.63499105"
       r="4.1027193"
       fx="-1.9368610"
       fy="-0.63499105" />
    <radialGradient
       xlink:href="#linearGradient1085"
       id="radialGradient1090"
       cx="-0.42395663"
       cy="-2.4909019"
       r="4.1027193"
       fx="-0.42395663"
       fy="-2.4909019"
       gradientTransform="scale(0.751916,1.329935)" />
    <radialGradient
       xlink:href="#linearGradient1085"
       id="radialGradient1091"
       cx="-0.42194343"
       cy="0.25614440"
       r="4.1027193"
       fx="-0.42194343"
       fy="0.25614440"
       gradientTransform="scale(0.751916,1.329935)" />
    <radialGradient
       xlink:href="#linearGradient1085"
       id="radialGradient1092"
       cx="0.77746075"
       cy="-0.62963188"
       r="4.1027188"
       fx="0.77746075"
       fy="-0.62963188" />
    <radialGradient
       xlink:href="#linearGradient1085"
       id="radialGradient1093"
       cx="-2.8758476"
       cy="-0.63852179"
       r="4.1027193"
       fx="-2.8758476"
       fy="-0.63852179" />
    <radialGradient
       xlink:href="#linearGradient1085"
       id="radialGradient1094"
       cx="-0.42395663"
       cy="-1.7813325"
       r="4.1027193"
       fx="-0.42395663"
       fy="-1.7813325"
       gradientTransform="scale(0.751916,1.329935)" />
    <radialGradient
       xlink:href="#linearGradient1085"
       id="radialGradient1095"
       cx="-0.41929287"
       cy="0.96238458"
       r="4.1027188"
       fx="-0.41929287"
       fy="0.96238458"
       gradientTransform="scale(0.751916,1.329935)" />
    <radialGradient
       xlink:href="#linearGradient1085"
       id="radialGradient1096"
       cx="0.23895212"
       cy="0.079291321"
       r="1.2775240"
       fx="0.23895212"
       fy="0.079291321"
       gradientTransform="scale(0.867801,1.152339)" />
  </defs>
  <sodipodi:namedview
     id="base"
     pagecolor="#ffffff"
     bordercolor="#666666"
     borderopacity="1.0"
     inkscape:pageopacity="0.0"
     inkscape:pageshadow="2"
     inkscape:zoom="1.00000000"
     inkscape:cx="314.24684"
     inkscape:cy="163.60373"
     inkscape:window-width="854"
     inkscape:window-height="696"
     showgrid="true"
     inkscape:window-x="319"
     inkscape:window-y="40" />
  <g
     id="g842">
    <path
       style="fill-opacity:0.49999997;fill-rule:evenodd;stroke-width:2.8679966pt;"
       d="M 260.65625,55.640620 C 245.45681,56.200170 228.40762,61.293930 219.31250,72.203120 C 206.08324,100.39086 238.22021,87.376040 242.00000,106.89062 C 245.77979,126.40521 223.09375,127.48437 223.09375,127.48437 L 223.09375,127.48437 L 125.34375,127.48437 C 125.34375,127.48437 125.46875,224.42188 125.46875,224.42187 C 125.46875,224.42187 126.54792,247.10790 146.06250,243.32812 C 161.91810,240.25704 156.29526,218.45008 168.75000,217.48437 C 171.62417,217.26151 175.46480,218.16013 180.75000,220.64062 C 191.65920,229.73574 196.75296,246.78493 197.31250,261.98437 C 197.51906,267.59532 197.02920,272.87231 196.06250,277.48437 C 196.03769,277.68906 195.99521,277.90454 195.96875,278.10937 C 194.27484,291.22378 189.20695,304.52717 180.00000,312.20312 C 151.81226,325.43239 164.82709,293.29540 145.31250,289.51562 C 131.09430,286.76169 126.70205,297.99396 125.34375,304.32812 L 125.34375,407.23437 L 226.93750,407.23437 C 233.13872,408.45263 245.17859,412.72344 242.34375,427.35937 C 238.56396,446.87397 206.45823,433.85913 219.68750,462.04687 C 227.36344,471.25383 240.66684,476.32171 253.78125,478.01562 C 253.98607,478.04209 254.20156,478.08456 254.40625,478.10937 C 259.01829,479.07608 264.29530,479.56593 269.90625,479.35937 C 285.10569,478.79984 302.15488,473.70607 311.25000,462.79687 C 324.47926,434.60915 292.34229,447.62396 288.56250,428.10937 C 284.78270,408.59480 307.46875,407.51562 307.46875,407.51562 L 404.65625,407.23437 C 404.65625,407.23437 404.03124,308.98436 404.03125,308.98437 C 404.03125,308.98437 402.95207,286.29832 383.43750,290.07812 C 363.92291,293.85791 376.93772,325.99487 348.75000,312.76562 C 337.84080,303.67050 332.74703,286.62131 332.18750,271.42187 C 331.98094,265.81092 332.47079,260.53392 333.43750,255.92187 C 333.46231,255.71718 333.50478,255.50168 333.53125,255.29687 C 335.22516,242.18246 340.29304,228.87905 349.50000,221.20312 C 354.78520,218.72263 358.62583,217.82401 361.50000,218.04687 C 373.95474,219.01258 368.33189,240.78829 384.18750,243.85937 C 402.39540,247.38607 404.44879,228.51965 404.65625,225.89062 L 404.65625,127.48437 L 302.50000,127.48437 C 296.09441,126.00243 285.53577,121.49249 288.21875,107.64062 C 291.99853,88.126040 324.10427,101.14086 310.87500,72.953120 C 303.19905,63.746180 289.89566,58.678290 276.78125,56.984370 C 276.57642,56.957920 276.36094,56.915440 276.15625,56.890620 C 271.54420,55.923930 266.26720,55.434070 260.65625,55.640620 z "
       id="path1592"
       sodipodi:nodetypes="cccccccccccccccccccccccccccccccccccccccccccc" />
    <path
       style="fill:url(#radialGradient1096);fill-opacity:1;fill-rule:evenodd;stroke:#000000;stroke-width:12.500000;stroke-dasharray:none;stroke-linejoin:round;"
       d="M 243.93750,40.625000 C 228.73806,41.184541 211.68887,46.278306 202.59375,57.187500 C 189.36449,85.375233 221.50146,72.360414 225.28125,91.875000 C 229.06104,111.38959 206.37500,112.46875 206.37500,112.46875 L 206.37500,112.46875 L 108.62500,112.46875 C 108.62500,112.46875 108.75000,209.40626 108.75000,209.40625 C 108.75000,209.40625 109.82917,232.09228 129.34375,228.31250 C 145.19935,225.24142 139.57651,203.43446 152.03125,202.46875 C 154.90542,202.24589 158.74605,203.14451 164.03125,205.62500 C 174.94045,214.72012 180.03421,231.76931 180.59375,246.96875 C 180.80031,252.57970 180.31045,257.85669 179.34375,262.46875 C 179.31894,262.67344 179.27646,262.88892 179.25000,263.09375 C 177.55609,276.20816 172.48820,289.51155 163.28125,297.18750 C 135.09351,310.41677 148.10834,278.27978 128.59375,274.50000 C 114.37555,271.74607 109.98330,282.97834 108.62500,289.31250 L 108.62500,392.21875 L 210.21875,392.21875 C 216.41997,393.43701 228.45984,397.70782 225.62500,412.34375 C 221.84521,431.85835 189.73948,418.84351 202.96875,447.03125 C 210.64469,456.23821 223.94809,461.30609 237.06250,463.00000 C 237.26732,463.02647 237.48281,463.06894 237.68750,463.09375 C 242.29954,464.06046 247.57655,464.55031 253.18750,464.34375 C 268.38694,463.78422 285.43613,458.69045 294.53125,447.78125 C 307.76051,419.59353 275.62354,432.60834 271.84375,413.09375 C 268.06395,393.57918 290.75000,392.50000 290.75000,392.50000 L 387.93750,392.21875 C 387.93750,392.21875 387.31249,293.96874 387.31250,293.96875 C 387.31250,293.96875 386.23332,271.28270 366.71875,275.06250 C 347.20416,278.84229 360.21897,310.97925 332.03125,297.75000 C 321.12205,288.65488 316.02828,271.60569 315.46875,256.40625 C 315.26219,250.79530 315.75204,245.51830 316.71875,240.90625 C 316.74356,240.70156 316.78603,240.48606 316.81250,240.28125 C 318.50641,227.16684 323.57429,213.86343 332.78125,206.18750 C 338.06645,203.70701 341.90708,202.80839 344.78125,203.03125 C 357.23599,203.99696 351.61314,225.77267 367.46875,228.84375 C 385.67665,232.37045 387.73004,213.50403 387.93750,210.87500 L 387.93750,112.46875 L 285.78125,112.46875 C 279.37566,110.98681 268.81702,106.47687 271.50000,92.625000 C 275.27978,73.110411 307.38552,86.125240 294.15625,57.937500 C 286.48030,48.730556 273.17691,43.662666 260.06250,41.968750 C 259.85767,41.942295 259.64219,41.899812 259.43750,41.875000 C 254.82545,40.908303 249.54845,40.418443 243.93750,40.625000 z "
       id="path1099"
       sodipodi:nodetypes="cccccccccccccccccccccccccccccccccccccccccccc" />
  </g>

  <rdf:RDF 
   xmlns="http://web.resource.org/cc/"
   xmlns:dc="http://purl.org/dc/elements/1.1/"
   xmlns:rdf="http://www.w3.org/1999/02/22-rdf-syntax-ns#">
  <Work rdf:about="">
    <dc:title>Clipart by Nicu Buculei - jigsaw_red_10</dc:title>
    <dc:rights>
       <Agent>
         <dc:title>Nicu Buculei</dc:title>
       </Agent>
    </dc:rights>
    <dc:type rdf:resource="http://purl.org/dc/dcmitype/StillImage" />
    <license rdf:resource="http://web.resource.org/cc/PublicDomain" />
  </Work>
   
  <License rdf:about="http://web.resource.org/cc/PublicDomain">
     <permits rdf:resource="http://web.resource.org/cc/Reproduction" />
     <permits rdf:resource="http://web.resource.org/cc/Distribution" />
     <permits rdf:resource="http://web.resource.org/cc/DerivativeWorks" />
  </License>

</rdf:RDF>
</svg>
