<?xml version="1.0" encoding="UTF-8" standalone="no"?>
<!DOCTYPE svg PUBLIC "-//W3C//DTD SVG 20010904//EN"
"http://www.w3.org/TR/2001/REC-SVG-20010904/DTD/svg10.dtd">
<!-- Created with Inkscape (http://www.inkscape.org/) -->
<svg
   id="svg1"
   sodipodi:version="0.32"
   inkscape:version="0.38.1"
   width="400.00000pt"
   height="400.00000pt"
   sodipodi:docbase="/var/www/html/svg_gallery/svg/jigsaw"
   sodipodi:docname="jigsaw_green_06.svg"
   xmlns="http://www.w3.org/2000/svg"
   xmlns:inkscape="http://www.inkscape.org/namespaces/inkscape"
   xmlns:sodipodi="http://sodipodi.sourceforge.net/DTD/sodipodi-0.dtd"
   xmlns:xlink="http://www.w3.org/1999/xlink">
  <defs
     id="defs3">
    <linearGradient
       id="linearGradient1085">
      <stop
         style="stop-color:#006600;stop-opacity:1.0000000;"
         offset="0.0000000"
         id="stop1086" />
      <stop
         style="stop-color:#00ff00;stop-opacity:1.0000000;"
         offset="1.0000000"
         id="stop1087" />
    </linearGradient>
    <radialGradient
       xlink:href="#linearGradient1085"
       id="radialGradient1088"
       cx="2.6854086"
       cy="0.21755335"
       r="2.6095297"
       fx="2.6854086"
       fy="0.21755335" />
    <radialGradient
       xlink:href="#linearGradient1085"
       id="radialGradient1089"
       cx="-0.96789926"
       cy="0.22278659"
       r="2.6095295"
       fx="-0.96789926"
       fy="0.22278659" />
    <radialGradient
       xlink:href="#linearGradient1085"
       id="radialGradient1090"
       cx="0.54500526"
       cy="-1.6331241"
       r="2.6095297"
       fx="0.54500526"
       fy="-1.6331241"
       gradientTransform="scale(0.751916,1.329935)" />
    <radialGradient
       xlink:href="#linearGradient1085"
       id="radialGradient1091"
       cx="0.54701841"
       cy="1.1139221"
       r="2.6095297"
       fx="0.54701841"
       fy="1.1139221"
       gradientTransform="scale(0.751916,1.329935)" />
    <radialGradient
       xlink:href="#linearGradient1085"
       id="radialGradient1092"
       cx="1.7464225"
       cy="0.22814576"
       r="2.6095295"
       fx="1.7464225"
       fy="0.22814576" />
    <radialGradient
       xlink:href="#linearGradient1085"
       id="radialGradient1093"
       cx="-1.9068856"
       cy="0.21925589"
       r="2.6095297"
       fx="-1.9068856"
       fy="0.21925589" />
    <radialGradient
       xlink:href="#linearGradient1085"
       id="radialGradient1094"
       cx="0.54500526"
       cy="-0.92355484"
       r="2.6095297"
       fx="0.54500526"
       fy="-0.92355484"
       gradientTransform="scale(0.751916,1.329935)" />
    <radialGradient
       xlink:href="#linearGradient1085"
       id="radialGradient1095"
       cx="0.54966885"
       cy="1.8201622"
       r="2.6095295"
       fx="0.54966885"
       fy="1.8201622"
       gradientTransform="scale(0.751916,1.329935)" />
    <radialGradient
       xlink:href="#linearGradient1085"
       id="radialGradient1096"
       cx="0.54067200"
       cy="0.34639019"
       r="0.81256765"
       fx="0.54067200"
       fy="0.34639019"
       gradientTransform="scale(0.867801,1.152339)" />
  </defs>
  <sodipodi:namedview
     id="base"
     pagecolor="#ffffff"
     bordercolor="#666666"
     borderopacity="1.0"
     inkscape:pageopacity="0.0"
     inkscape:pageshadow="2"
     inkscape:zoom="1.00000000"
     inkscape:cx="314.24684"
     inkscape:cy="163.60373"
     inkscape:window-width="854"
     inkscape:window-height="696"
     showgrid="true"
     inkscape:window-x="294"
     inkscape:window-y="27" />
  <g
     id="g842">
    <path
       style="fill-opacity:0.49999997;fill-rule:evenodd;stroke-width:2.8679966pt;"
       d="M 124.34375,127.78915 L 124.34375,226.94540 C 124.07155,230.07498 121.80888,248.16297 103.90625,244.69540 C 84.391670,240.91561 97.406490,208.80988 69.218750,222.03915 C 60.011800,229.71509 54.943910,243.01849 53.250000,256.13290 C 53.223540,256.33772 53.181060,256.55321 53.156250,256.75790 C 52.189550,261.36994 51.699690,266.64695 51.906250,272.25790 C 52.465790,287.45734 57.559550,304.50653 68.468750,313.60165 C 96.656480,326.83091 83.641660,294.69394 103.15625,290.91415 C 122.67083,287.13435 123.75000,309.82040 123.75000,309.82040 L 124.34375,407.53915 L 225.93750,407.53915 C 232.13872,408.75741 244.17859,413.02822 241.34375,427.66415 C 237.56396,447.17875 205.45823,434.16391 218.68750,462.35165 C 226.36344,471.55861 239.66684,476.62649 252.78125,478.32040 C 252.98607,478.34687 253.20156,478.38934 253.40625,478.41415 C 258.01829,479.38086 263.29530,479.87071 268.90625,479.66415 C 284.10569,479.10462 301.15488,474.01085 310.25000,463.10165 C 323.47926,434.91393 291.34229,447.92874 287.56250,428.41415 C 283.78270,408.89958 306.46875,407.82040 306.46875,407.82040 L 403.65625,407.53915 L 403.65625,305.44540 C 405.04266,299.09329 409.45898,287.98888 423.59375,290.72665 C 443.10833,294.50644 430.09351,326.64342 458.28125,313.41415 C 467.48819,305.73821 472.55609,292.40356 474.25000,279.28915 C 474.27645,279.08433 474.31894,278.90009 474.34375,278.69540 C 475.31044,274.08335 475.80031,268.80635 475.59375,263.19540 C 475.03420,247.99596 469.94045,230.94677 459.03125,221.85165 C 430.84351,208.62239 443.85834,240.75936 424.34375,244.53915 C 404.82916,248.31895 403.75000,225.63290 403.75000,225.63290 L 403.65625,127.78915 C 403.65625,127.78915 306.31250,128.50790 306.31250,128.50790 C 306.31250,128.50790 283.62645,129.58707 287.40625,149.10165 C 291.18604,168.61624 323.32301,155.60142 310.09375,183.78915 C 300.99863,194.69835 283.94944,199.79211 268.75000,200.35165 C 263.13905,200.55821 257.86204,200.06835 253.25000,199.10165 C 253.04531,199.07684 252.82982,199.03436 252.62500,199.00790 C 239.51059,197.31399 226.20719,192.24610 218.53125,183.03915 C 205.30198,154.85141 237.40771,167.86624 241.18750,148.35165 C 244.90771,129.14468 223.22294,127.82688 222.53125,127.78915 L 124.34375,127.78915 z "
       id="path1492"
       sodipodi:nodetypes="ccccccccccccccccccccccccccccccccccccccccc" />
    <path
       style="fill:url(#radialGradient1096);fill-opacity:1;fill-rule:evenodd;stroke:#000000;stroke-width:12.500000;stroke-dasharray:none;stroke-linejoin:round;"
       d="M 108.62500,112.46875 L 108.62500,211.62500 C 108.35280,214.75458 106.09013,232.84257 88.187500,229.37500 C 68.672913,225.59521 81.687740,193.48948 53.500000,206.71875 C 44.293049,214.39469 39.225160,227.69809 37.531250,240.81250 C 37.504789,241.01732 37.462310,241.23281 37.437500,241.43750 C 36.470799,246.04954 35.980940,251.32655 36.187500,256.93750 C 36.747039,272.13694 41.840800,289.18613 52.750000,298.28125 C 80.937729,311.51051 67.922910,279.37354 87.437500,275.59375 C 106.95208,271.81395 108.03125,294.50000 108.03125,294.50000 L 108.62500,392.21875 L 210.21875,392.21875 C 216.41997,393.43701 228.45984,397.70782 225.62500,412.34375 C 221.84521,431.85835 189.73948,418.84351 202.96875,447.03125 C 210.64469,456.23821 223.94809,461.30609 237.06250,463.00000 C 237.26732,463.02647 237.48281,463.06894 237.68750,463.09375 C 242.29954,464.06046 247.57655,464.55031 253.18750,464.34375 C 268.38694,463.78422 285.43613,458.69045 294.53125,447.78125 C 307.76051,419.59353 275.62354,432.60834 271.84375,413.09375 C 268.06395,393.57918 290.75000,392.50000 290.75000,392.50000 L 387.93750,392.21875 L 387.93750,290.12500 C 389.32391,283.77289 393.74023,272.66848 407.87500,275.40625 C 427.38958,279.18604 414.37476,311.32302 442.56250,298.09375 C 451.76944,290.41781 456.83734,277.08316 458.53125,263.96875 C 458.55770,263.76393 458.60019,263.57969 458.62500,263.37500 C 459.59169,258.76295 460.08156,253.48595 459.87500,247.87500 C 459.31545,232.67556 454.22170,215.62637 443.31250,206.53125 C 415.12476,193.30199 428.13959,225.43896 408.62500,229.21875 C 389.11041,232.99855 388.03125,210.31250 388.03125,210.31250 L 387.93750,112.46875 C 387.93750,112.46875 290.59375,113.18750 290.59375,113.18750 C 290.59375,113.18750 267.90770,114.26667 271.68750,133.78125 C 275.46729,153.29584 307.60426,140.28102 294.37500,168.46875 C 285.27988,179.37795 268.23069,184.47171 253.03125,185.03125 C 247.42030,185.23781 242.14329,184.74795 237.53125,183.78125 C 237.32656,183.75644 237.11107,183.71396 236.90625,183.68750 C 223.79184,181.99359 210.48844,176.92570 202.81250,167.71875 C 189.58323,139.53101 221.68896,152.54584 225.46875,133.03125 C 229.18896,113.82428 207.50419,112.50648 206.81250,112.46875 L 108.62500,112.46875 z "
       id="path1151"
       sodipodi:nodetypes="ccccccccccccccccccccccccccccccccccccccccc" />
  </g>

  <rdf:RDF 
   xmlns="http://web.resource.org/cc/"
   xmlns:dc="http://purl.org/dc/elements/1.1/"
   xmlns:rdf="http://www.w3.org/1999/02/22-rdf-syntax-ns#">
  <Work rdf:about="">
    <dc:title>Clipart by Nicu Buculei - jigsaw_red_10</dc:title>
    <dc:rights>
       <Agent>
         <dc:title>Nicu Buculei</dc:title>
       </Agent>
    </dc:rights>
    <dc:type rdf:resource="http://purl.org/dc/dcmitype/StillImage" />
    <license rdf:resource="http://web.resource.org/cc/PublicDomain" />
  </Work>
   
  <License rdf:about="http://web.resource.org/cc/PublicDomain">
     <permits rdf:resource="http://web.resource.org/cc/Reproduction" />
     <permits rdf:resource="http://web.resource.org/cc/Distribution" />
     <permits rdf:resource="http://web.resource.org/cc/DerivativeWorks" />
  </License>

</rdf:RDF>
</svg>
