<?xml version="1.0" encoding="UTF-8" standalone="no"?>
<!DOCTYPE svg PUBLIC "-//W3C//DTD SVG 20010904//EN"
"http://www.w3.org/TR/2001/REC-SVG-20010904/DTD/svg10.dtd">
<!-- Created with Inkscape (http://www.inkscape.org/) -->
<svg
   id="svg1"
   sodipodi:version="0.32"
   inkscape:version="0.38.1"
   width="400.00000pt"
   height="400.00000pt"
   sodipodi:docbase="/var/www/html/svg_gallery/svg/jigsaw"
   sodipodi:docname="jigsaw_green_16.svg"
   xmlns="http://www.w3.org/2000/svg"
   xmlns:inkscape="http://www.inkscape.org/namespaces/inkscape"
   xmlns:sodipodi="http://sodipodi.sourceforge.net/DTD/sodipodi-0.dtd"
   xmlns:xlink="http://www.w3.org/1999/xlink">
  <defs
     id="defs3">
    <linearGradient
       id="linearGradient1085">
      <stop
         style="stop-color:#006600;stop-opacity:1.0000000;"
         offset="0.0000000"
         id="stop1086" />
      <stop
         style="stop-color:#00ff00;stop-opacity:1.0000000;"
         offset="1.0000000"
         id="stop1087" />
    </linearGradient>
    <radialGradient
       xlink:href="#linearGradient1085"
       id="radialGradient1088"
       cx="1.7995006"
       cy="-0.033503532"
       r="2.1367373"
       fx="1.7995006"
       fy="-0.033503532" />
    <radialGradient
       xlink:href="#linearGradient1085"
       id="radialGradient1089"
       cx="-1.8538072"
       cy="-0.028270273"
       r="2.1367373"
       fx="-1.8538072"
       fy="-0.028270273" />
    <radialGradient
       xlink:href="#linearGradient1085"
       id="radialGradient1090"
       cx="-0.34090281"
       cy="-1.8841810"
       r="2.1367373"
       fx="-0.34090281"
       fy="-1.8841810"
       gradientTransform="scale(0.751916,1.329935)" />
    <radialGradient
       xlink:href="#linearGradient1085"
       id="radialGradient1091"
       cx="-0.33888963"
       cy="0.86286521"
       r="2.1367373"
       fx="-0.33888963"
       fy="0.86286521"
       gradientTransform="scale(0.751916,1.329935)" />
    <radialGradient
       xlink:href="#linearGradient1085"
       id="radialGradient1092"
       cx="0.86051458"
       cy="-0.022911092"
       r="2.1367371"
       fx="0.86051458"
       fy="-0.022911092" />
    <radialGradient
       xlink:href="#linearGradient1085"
       id="radialGradient1093"
       cx="-2.7927938"
       cy="-0.031800985"
       r="2.1367373"
       fx="-2.7927938"
       fy="-0.031800985" />
    <radialGradient
       xlink:href="#linearGradient1085"
       id="radialGradient1094"
       cx="-0.34090281"
       cy="-1.1746118"
       r="2.1367373"
       fx="-0.34090281"
       fy="-1.1746118"
       gradientTransform="scale(0.751916,1.329935)" />
    <radialGradient
       xlink:href="#linearGradient1085"
       id="radialGradient1095"
       cx="-0.33623907"
       cy="1.5691054"
       r="2.1367371"
       fx="-0.33623907"
       fy="1.5691054"
       gradientTransform="scale(0.751916,1.329935)" />
    <radialGradient
       xlink:href="#linearGradient1085"
       id="radialGradient1096"
       cx="0.26481381"
       cy="0.26821491"
       r="0.66534734"
       fx="0.26481381"
       fy="0.26821491"
       gradientTransform="scale(0.867801,1.152339)" />
  </defs>
  <sodipodi:namedview
     id="base"
     pagecolor="#ffffff"
     bordercolor="#666666"
     borderopacity="1.0"
     inkscape:pageopacity="0.0"
     inkscape:pageshadow="2"
     inkscape:zoom="1.00000000"
     inkscape:cx="314.24684"
     inkscape:cy="163.60373"
     inkscape:window-width="854"
     inkscape:window-height="696"
     showgrid="true"
     inkscape:window-x="194"
     inkscape:window-y="24" />
  <g
     id="g842">
    <path
       style="fill-opacity:0.49999997;fill-rule:evenodd;stroke-width:2.8679966pt;"
       d="M 125.33584,128.87500 L 125.33584,228.03125 C 125.06364,231.16083 122.80097,249.24882 104.89834,245.78125 C 85.383760,242.00146 98.398580,209.89573 70.210840,223.12500 C 61.003890,230.80094 55.936000,244.10434 54.242090,257.21875 C 54.215630,257.42357 54.173150,257.63906 54.148340,257.84375 C 53.181640,262.45579 52.691780,267.73280 52.898340,273.34375 C 53.457880,288.54319 58.551640,305.59238 69.460840,314.68750 C 97.648570,327.91676 84.633750,295.77979 104.14834,292.00000 C 123.66292,288.22020 124.74209,310.90625 124.74209,310.90625 L 125.33584,408.62500 C 125.33584,408.62500 223.42960,407.84374 223.42959,407.84375 C 223.42959,407.84375 246.11562,406.76457 242.33584,387.25000 C 238.55605,367.73541 206.45033,380.75022 219.67959,352.56250 C 228.77471,341.65330 245.79265,336.55953 260.99209,336.00000 C 266.60304,335.79344 271.88005,336.28329 276.49209,337.25000 C 276.69678,337.27481 276.91227,337.31728 277.11709,337.34375 C 290.23150,339.03766 303.56615,344.10554 311.24209,353.31250 C 324.47136,381.50024 292.33438,368.48540 288.55459,388.00000 C 284.77480,407.51458 307.46084,408.59374 307.46084,408.59375 L 404.64834,408.62500 C 404.64834,408.62500 404.02333,310.37499 404.02334,310.37500 C 404.02334,310.37500 402.94416,287.68895 383.42959,291.46875 C 363.91500,295.24854 376.92981,327.38550 348.74209,314.15625 C 337.83289,305.06113 332.73912,288.01194 332.17959,272.81250 C 331.97303,267.20155 332.46288,261.92455 333.42959,257.31250 C 333.45440,257.10781 333.49687,256.89231 333.52334,256.68750 C 335.21725,243.57309 340.28513,230.26968 349.49209,222.59375 C 354.77729,220.11326 358.61792,219.21464 361.49209,219.43750 C 373.94683,220.40321 368.32398,242.17892 384.17959,245.25000 C 402.38749,248.77670 404.44088,229.91028 404.64834,227.28125 L 404.64834,128.87500 C 404.64834,128.87500 307.30459,129.59375 307.30459,129.59375 C 307.30459,129.59375 284.61854,130.67292 288.39834,150.18750 C 292.17813,169.70209 324.31510,156.68727 311.08584,184.87500 C 301.99072,195.78420 284.94153,200.87796 269.74209,201.43750 C 264.13114,201.64406 258.85413,201.15420 254.24209,200.18750 C 254.03740,200.16269 253.82191,200.12021 253.61709,200.09375 C 240.50268,198.39984 227.19928,193.33195 219.52334,184.12500 C 206.29407,155.93726 238.39980,168.95209 242.17959,149.43750 C 245.89973,130.23090 224.21510,128.91278 223.52334,128.87500 L 125.33584,128.87500 z "
       id="path1292"
       sodipodi:nodetypes="cccccccccccccccccccccccccccccccccccccccccc" />
    <path
       style="fill:url(#radialGradient1096);fill-opacity:1;fill-rule:evenodd;stroke:#000000;stroke-width:12.500000;stroke-dasharray:none;stroke-linejoin:round;"
       d="M 108.62500,112.46875 L 108.62500,211.62500 C 108.35280,214.75458 106.09013,232.84257 88.187500,229.37500 C 68.672913,225.59521 81.687740,193.48948 53.500000,206.71875 C 44.293049,214.39469 39.225160,227.69809 37.531250,240.81250 C 37.504789,241.01732 37.462310,241.23281 37.437500,241.43750 C 36.470799,246.04954 35.980940,251.32655 36.187500,256.93750 C 36.747039,272.13694 41.840800,289.18613 52.750000,298.28125 C 80.937729,311.51051 67.922910,279.37354 87.437500,275.59375 C 106.95208,271.81395 108.03125,294.50000 108.03125,294.50000 L 108.62500,392.21875 C 108.62500,392.21875 206.71876,391.43749 206.71875,391.43750 C 206.71875,391.43750 229.40478,390.35832 225.62500,370.84375 C 221.84521,351.32916 189.73949,364.34397 202.96875,336.15625 C 212.06387,325.24705 229.08181,320.15328 244.28125,319.59375 C 249.89220,319.38719 255.16921,319.87704 259.78125,320.84375 C 259.98594,320.86856 260.20143,320.91103 260.40625,320.93750 C 273.52066,322.63141 286.85531,327.69929 294.53125,336.90625 C 307.76052,365.09399 275.62354,352.07915 271.84375,371.59375 C 268.06396,391.10833 290.75000,392.18749 290.75000,392.18750 L 387.93750,392.21875 C 387.93750,392.21875 387.31249,293.96874 387.31250,293.96875 C 387.31250,293.96875 386.23332,271.28270 366.71875,275.06250 C 347.20416,278.84229 360.21897,310.97925 332.03125,297.75000 C 321.12205,288.65488 316.02828,271.60569 315.46875,256.40625 C 315.26219,250.79530 315.75204,245.51830 316.71875,240.90625 C 316.74356,240.70156 316.78603,240.48606 316.81250,240.28125 C 318.50641,227.16684 323.57429,213.86343 332.78125,206.18750 C 338.06645,203.70701 341.90708,202.80839 344.78125,203.03125 C 357.23599,203.99696 351.61314,225.77267 367.46875,228.84375 C 385.67665,232.37045 387.73004,213.50403 387.93750,210.87500 L 387.93750,112.46875 C 387.93750,112.46875 290.59375,113.18750 290.59375,113.18750 C 290.59375,113.18750 267.90770,114.26667 271.68750,133.78125 C 275.46729,153.29584 307.60426,140.28102 294.37500,168.46875 C 285.27988,179.37795 268.23069,184.47171 253.03125,185.03125 C 247.42030,185.23781 242.14329,184.74795 237.53125,183.78125 C 237.32656,183.75644 237.11107,183.71396 236.90625,183.68750 C 223.79184,181.99359 210.48844,176.92570 202.81250,167.71875 C 189.58323,139.53101 221.68896,152.54584 225.46875,133.03125 C 229.18889,113.82465 207.50426,112.50653 206.81250,112.46875 L 108.62500,112.46875 z "
       id="path1290"
       sodipodi:nodetypes="cccccccccccccccccccccccccccccccccccccccccc" />
  </g>

  <rdf:RDF 
   xmlns="http://web.resource.org/cc/"
   xmlns:dc="http://purl.org/dc/elements/1.1/"
   xmlns:rdf="http://www.w3.org/1999/02/22-rdf-syntax-ns#">
  <Work rdf:about="">
    <dc:title>Clipart by Nicu Buculei - jigsaw_red_10</dc:title>
    <dc:rights>
       <Agent>
         <dc:title>Nicu Buculei</dc:title>
       </Agent>
    </dc:rights>
    <dc:type rdf:resource="http://purl.org/dc/dcmitype/StillImage" />
    <license rdf:resource="http://web.resource.org/cc/PublicDomain" />
  </Work>
   
  <License rdf:about="http://web.resource.org/cc/PublicDomain">
     <permits rdf:resource="http://web.resource.org/cc/Reproduction" />
     <permits rdf:resource="http://web.resource.org/cc/Distribution" />
     <permits rdf:resource="http://web.resource.org/cc/DerivativeWorks" />
  </License>

</rdf:RDF>
</svg>
