<?xml version="1.0" encoding="UTF-8" standalone="no"?>
<!-- Created with Inkscape (http://www.inkscape.org/) -->

<svg
   xmlns:dc="http://purl.org/dc/elements/1.1/"
   xmlns:cc="http://creativecommons.org/ns#"
   xmlns:rdf="http://www.w3.org/1999/02/22-rdf-syntax-ns#"
   xmlns:svg="http://www.w3.org/2000/svg"
   xmlns="http://www.w3.org/2000/svg"
   xmlns:sodipodi="http://sodipodi.sourceforge.net/DTD/sodipodi-0.dtd"
   xmlns:inkscape="http://www.inkscape.org/namespaces/inkscape"
   width="90mm"
   height="50mm"
   id="svg3773"
   version="1.1"
   inkscape:version="0.48.0 r9654"
   sodipodi:docname="try2.svg">
  <defs
     id="defs3" />
  <sodipodi:namedview
     id="base"
     pagecolor="#ffffff"
     bordercolor="#666666"
     borderopacity="1.0"
     inkscape:pageopacity="0.0"
     inkscape:pageshadow="2"
     inkscape:zoom="2.4"
     inkscape:cx="97.051468"
     inkscape:cy="127.38847"
     inkscape:document-units="mm"
     inkscape:current-layer="layer2"
     showgrid="false"
     inkscape:window-width="1680"
     inkscape:window-height="1004"
     inkscape:window-x="0"
     inkscape:window-y="0"
     inkscape:window-maximized="1"
     inkscape:snap-bbox="true"
     inkscape:snap-global="false"
     showguides="false">
    <inkscape:grid
       type="xygrid"
       id="grid3978" />
  </sodipodi:namedview>
  <metadata
     id="metadata3777">
    <rdf:RDF>
      <cc:Work
         rdf:about="">
        <dc:format>image/svg+xml</dc:format>
        <dc:type
           rdf:resource="http://purl.org/dc/dcmitype/StillImage" />
        <dc:title></dc:title>
      </cc:Work>
    </rdf:RDF>
  </metadata>
  <g
     inkscape:label="Layer 1"
     inkscape:groupmode="layer"
     id="layer1"
     sodipodi:insensitive="true" />
  <g
     inkscape:groupmode="layer"
     id="layer4"
     inkscape:label="guides"
     sodipodi:insensitive="true"
     style="display:none">
    <path
       style="fill:none;stroke:#000000;stroke-width:1px;stroke-linecap:butt;stroke-linejoin:miter;stroke-opacity:1"
       d="m 224.21175,-11.396449 0,160.866789"
       id="path4024"
       inkscape:connector-curvature="0" />
    <path
       style="fill:none;stroke:#000000;stroke-width:1px;stroke-linecap:butt;stroke-linejoin:miter;stroke-opacity:1"
       d="m 180.31222,127.66788 0,-140.832096"
       id="path4022"
       inkscape:connector-curvature="0" />
    <path
       style="fill:none;stroke:#000000;stroke-width:1px;stroke-linecap:butt;stroke-linejoin:miter;stroke-opacity:1"
       d="m 135.5288,-11.985705 0,140.242845"
       id="path4020"
       inkscape:connector-curvature="0" />
    <path
       style="fill:none;stroke:#000000;stroke-width:1px;stroke-linecap:butt;stroke-linejoin:miter;stroke-opacity:1"
       d="m 91.039997,126.784 0,-137.296565"
       id="path4018"
       inkscape:connector-curvature="0" />
    <path
       style="fill:none;stroke:#000000;stroke-width:1px;stroke-linecap:butt;stroke-linejoin:miter;stroke-opacity:1"
       d="m 46.845825,127.07863 0,-136.707312"
       id="path4016"
       inkscape:connector-curvature="0" />
    <path
       style="fill:none;stroke:#000000;stroke-width:1px;stroke-linecap:butt;stroke-linejoin:miter;stroke-opacity:1"
       d="m 4.7140452,43.698954 255.7369548,0"
       id="path4028"
       inkscape:connector-curvature="0" />
    <path
       style="fill:none;stroke:#000000;stroke-width:1px;stroke-linecap:butt;stroke-linejoin:miter;stroke-opacity:1"
       d="m 275.18239,89.660895 -288.73527,0 0,8.249579 0,0"
       id="path4026"
       inkscape:connector-curvature="0" />
  </g>
  <g
     inkscape:groupmode="layer"
     id="layer2"
     inkscape:label="jigsaw">
    <path
       inkscape:connector-curvature="0"
       sodipodi:nodetypes="ccccccccccccccccccccccccccccccccccccccccccc"
       id="path1432-4-3-2"
       d="m 260.51657,83.698482 c -0.0888,-2.413286 -0.8976,-5.120283 -2.62971,-6.564359 -4.47551,-2.100484 -2.40909,3.002083 -5.50752,3.602213 -3.09843,0.600139 -3.26978,-3.001839 -3.26978,-3.001839 l 0,0 0,-15.520293 c 0,0 -15.39129,0.01978 -15.39129,0.01978 0,0 -3.60198,0.17134 -3.00184,3.269784 0.48761,2.517472 3.95001,1.624703 4.10334,3.602203 0.0355,0.456349 -0.10729,1.066146 -0.50113,1.905307 -1.44408,1.732115 -4.15107,2.54088 -6.56436,2.629717 -0.89089,0.03284 -1.72874,-0.04502 -2.46102,-0.198461 -0.0325,-0.0039 -0.0667,-0.01062 -0.0992,-0.01481 -2.08224,-0.268948 -4.1945,-1.073611 -5.41324,-2.535433 -2.10049,-4.47553 3.00207,-2.409095 3.60221,-5.507529 0.43725,-2.257499 -1.34616,-2.954886 -2.35186,-3.170558 l -16.33897,0 c 0,0 0.12405,15.574876 0.12405,15.574876 0,0 0.17135,3.601978 3.26977,3.001829 3.09843,-0.60012 1.03201,-5.697707 5.50752,-3.597252 1.7321,1.444085 2.54087,4.146122 2.62971,6.559408 0.0328,0.890889 -0.0449,1.728743 -0.19846,2.461019 -0.004,0.03245 -0.0106,0.06666 -0.0149,0.09928 -0.26896,2.082251 -1.07361,4.199459 -2.53545,5.418215 -4.47552,2.100475 -2.40907,-3.002083 -5.50752,-3.602213 -3.09843,-0.60015 -3.26977,3.001849 -3.26977,3.001849 l -0.005,15.430975 16.20996,0 c 1.00856,0.22015 2.77166,0.92134 2.33697,3.16561 -0.60014,3.09842 -5.7027,1.03199 -3.60221,5.5075 1.21875,1.46184 3.33596,2.26649 5.4182,2.53544 0.0326,0.004 0.0618,0.0106 0.0942,0.0148 0.73227,0.15349 1.57015,0.23128 2.46102,0.19848 2.41329,-0.0887 5.12028,-0.89761 6.56437,-2.62972 2.10048,-4.47552 -3.00208,-2.40909 -3.60222,-5.50752 -0.60014,-3.09843 3.00184,-3.26978 3.00184,-3.26978 l 15.53519,-0.0148 0,-16.219909 c 0.23528,-1.01704 0.95135,-2.693501 3.15068,-2.267508 3.09845,0.60014 1.03201,5.697737 5.50752,3.597253 1.46184,-1.218756 2.26651,-3.330994 2.53546,-5.413236 0.004,-0.03245 0.0109,-0.06666 0.0148,-0.09927 0.15348,-0.732275 0.23126,-1.57014 0.19846,-2.461018 z"
       style="fill:#cccccc;fill-opacity:0.5;fill-rule:evenodd;stroke:#cccccc;stroke-width:0.4553669pt" />
    <path
       inkscape:connector-curvature="0"
       sodipodi:nodetypes="ccccccccccccccccccccccccccccccccccccccccccc"
       id="path1432-4-3"
       d="m 49.882056,117.70979 c 2.476387,-0.0911 5.25415,-0.92107 6.735988,-2.69846 2.155398,-4.59252 -3.080572,-2.47207 -3.696391,-5.65151 -0.61583,-3.17944 3.080322,-3.35527 3.080322,-3.35527 l 0,0 15.926051,0 c 0,0 -0.02032,-15.79368 -0.02032,-15.79368 0,0 -0.175812,-3.69615 -3.355268,-3.08032 -2.583291,0.50036 -1.667173,4.05328 -3.696381,4.21062 -0.46828,0.0364 -1.094021,-0.1101 -1.95512,-0.51423 -1.777394,-1.48184 -2.60731,-4.2596 -2.698464,-6.73599 -0.03367,-0.91418 0.04622,-1.77393 0.203646,-2.52536 0.004,-0.0334 0.01086,-0.0684 0.01524,-0.10183 0.275981,-2.13668 1.101682,-4.30416 2.601721,-5.55477 4.592536,-2.155401 2.472085,3.08056 5.651521,3.69639 2.316516,0.44868 3.032136,-1.38135 3.253445,-2.41335 l 0,-16.766139 c 0,0 -15.982068,0.127288 -15.982068,0.127288 0,0 -3.696152,0.175826 -3.080312,3.355263 0.615819,3.17944 5.846678,1.058984 3.6913,5.651509 -1.481838,1.777394 -4.25452,2.607304 -6.730898,2.698466 -0.914175,0.03365 -1.773937,-0.04615 -2.525361,-0.203657 -0.03327,-0.0041 -0.06844,-0.01093 -0.101873,-0.01527 -2.136689,-0.275983 -4.309252,-1.101673 -5.559869,-2.601728 -2.155398,-4.592528 3.080562,-2.472067 3.696381,-5.651509 0.61584,-3.17944 -3.080322,-3.355264 -3.080322,-3.355264 l -15.834388,-0.0051 0,16.633761 c -0.225891,1.03493 -0.945427,2.84412 -3.248364,2.39807 -3.179427,-0.61583 -1.058976,-5.851784 -5.651491,-3.696388 -1.500059,1.250618 -2.325751,3.423178 -2.601732,5.559858 -0.004,0.0334 -0.01086,0.0634 -0.01524,0.0967 -0.157501,0.75142 -0.237318,1.6112 -0.203656,2.52536 0.09105,2.47639 0.92107,5.25415 2.698464,6.73599 4.592535,2.1554 2.472075,-3.08056 5.651511,-3.69639 3.179436,-0.61583 3.355258,3.08032 3.355258,3.08032 l 0.01524,15.94134 16.643941,0 c 1.043633,0.24144 2.763925,0.97623 2.326796,3.23306 -0.615829,3.17945 -5.846698,1.05899 -3.6913,5.65151 1.250617,1.50006 3.418079,2.32576 5.554758,2.60174 0.03327,0.004 0.06844,0.0112 0.101873,0.0152 0.751414,0.1575 1.611186,0.23731 2.525352,0.20365 z"
       style="fill:#cccccc;fill-opacity:0.5;fill-rule:evenodd;stroke:#cccccc;stroke-width:0.46727214pt" />
    <path
       inkscape:connector-curvature="0"
       sodipodi:nodetypes="ccccccccccccccccccccccccccccccccccccccccccc"
       id="path1432-4"
       d="m 139.50828,74.474945 c 2.4858,-0.09151 5.27412,-0.924574 6.76159,-2.708724 2.16359,-4.60998 -3.09228,-2.481464 -3.71044,-5.672987 -0.61817,-3.191524 3.09203,-3.368017 3.09203,-3.368017 l 0,0 15.98658,0 c 0,0 -0.0204,-15.853702 -0.0204,-15.853698 0,0 -0.17648,-3.7102 -3.36802,-3.092033 -2.59311,0.502261 -1.67351,4.068692 -3.71043,4.226631 -0.47006,0.03645 -1.09818,-0.11052 -1.96255,-0.516192 -1.78415,-1.487467 -2.61722,-4.275786 -2.70872,-6.761587 -0.0338,-0.917647 0.0464,-1.780674 0.20442,-2.534956 0.004,-0.03348 0.0109,-0.06871 0.0153,-0.102223 0.27703,-2.144805 1.10587,-4.320513 2.61161,-5.575881 4.60999,-2.16359 2.48148,3.092273 5.673,3.710438 2.32532,0.450393 3.04366,-1.386594 3.26581,-2.422517 l 0,-16.829863 c 0,0 -16.04281,0.127772 -16.04281,0.127772 0,0 -3.7102,0.176494 -3.09202,3.368016 0.61816,3.191524 5.8689,1.063009 3.70533,5.672987 -1.48747,1.78415 -4.27069,2.617214 -6.75648,2.708723 -0.91765,0.03378 -1.78068,-0.04633 -2.53496,-0.204431 -0.0334,-0.0041 -0.0687,-0.01097 -0.10226,-0.01533 -2.14481,-0.277032 -4.32563,-1.105861 -5.581,-2.611617 -2.16359,-4.609982 3.09227,-2.481462 3.71043,-5.672988 0.61818,-3.191524 -3.09203,-3.368016 -3.09203,-3.368016 l -15.89457,-0.0051 0,16.696982 c -0.22675,1.03886 -0.94902,2.854936 -3.26071,2.407187 -3.19151,-0.618169 -1.063,-5.874029 -5.67297,-3.710441 -1.50576,1.255366 -2.33459,3.436189 -2.61162,5.580993 -0.004,0.0335 -0.0109,0.06363 -0.0153,0.0971 -0.1581,0.75428 -0.23822,1.617311 -0.20443,2.534956 0.0914,2.4858 0.92457,5.274122 2.70872,6.761589 4.60999,2.163586 2.48147,-3.092274 5.67299,-3.710442 3.19152,-0.61817 3.36801,3.092036 3.36801,3.092036 l 0.0153,16.001912 16.7072,0 c 1.0476,0.242362 2.77443,0.979943 2.33564,3.245355 -0.61817,3.191526 -5.86892,1.063009 -3.70533,5.672986 1.25537,1.505756 3.43107,2.334586 5.57587,2.61162 0.0334,0.0043 0.0687,0.01121 0.10226,0.01533 0.75427,0.158097 1.61731,0.238213 2.53495,0.204431 z"
       style="fill:#cccccc;fill-opacity:0.5;fill-rule:evenodd;stroke:#cccccc;stroke-width:0.46904812pt" />
    <path
       sodipodi:nodetypes="cccccccccccccccccccccccccccccccccccccccccc"
       id="path1512"
       d="m 48.563519,5.8873589 c -2.413822,0.088861 -5.121404,0.8978013 -6.565799,2.6302899 -2.100939,4.4764932 3.002732,2.4096102 3.603001,5.5087202 0.600268,3.099111 -3.002501,3.270492 -3.002501,3.270492 l 0,0 -15.523674,0 c 0,0 0.01985,15.394642 0.01985,15.394641 0,0 0.171383,3.602767 3.270493,3.0025 3.099111,-0.600268 1.032228,-5.703939 5.508721,-3.603001 1.732489,1.444396 2.541429,4.151977 2.63029,6.5658 0.0328,0.891075 -0.04499,1.729113 -0.198513,2.461554 -0.0039,0.03251 -0.01069,0.06673 -0.01488,0.09926 -0.26901,2.082699 -1.073842,4.19541 -2.535997,5.414427 -4.476494,2.10094 -2.409609,-3.002734 -5.50872,-3.603001 -2.258548,-0.437459 -2.955713,1.351883 -3.171237,2.357336 l 0,16.337574 16.1341,0 c 0.984815,0.193472 2.896866,0.871719 2.446666,3.196051 -0.600269,3.099113 -5.698978,1.032227 -3.598039,5.50872 1.219016,1.462157 3.331729,2.266987 5.414427,2.535997 0.03253,0.0042 0.06675,0.01094 0.09926,0.01488 0.732438,0.153524 1.570479,0.231317 2.461554,0.198513 2.413822,-0.08886 5.121404,-0.8978 6.565799,-2.63029 2.100939,-4.476491 -3.002732,-2.409609 -3.603001,-5.508721 -0.60027,-3.099108 3.002501,-3.270492 3.002501,-3.270492 l 15.434343,-0.04467 0,-16.213505 c 0.220176,-1.008778 0.921531,-2.772269 3.166274,-2.337484 3.099109,0.600268 1.032226,5.703941 5.50872,3.603001 1.462154,-1.219016 2.266987,-3.336691 2.535997,-5.41939 0.0042,-0.03253 0.01094,-0.06179 0.01488,-0.09429 0.15352,-0.73244 0.231316,-1.57048 0.198513,-2.461555 -0.08886,-2.413822 -0.897801,-5.121403 -2.63029,-6.565799 -4.476494,-2.100938 -2.409609,3.002733 -5.508721,3.603001 -3.099111,0.60027 -3.270492,-3.002501 -3.270492,-3.002501 l -0.01488,-15.538562 -16.22343,0 c -1.017271,-0.235347 -2.694089,-0.95157 -2.268005,-3.151385 0.600267,-3.09911 5.698978,-1.032227 3.598039,-5.5087204 -1.219018,-1.4621536 -3.331729,-2.266985 -5.414427,-2.5359958 -0.03253,-0.0042 -0.06675,-0.010948 -0.09926,-0.014888 C 50.292642,5.9323423 49.454602,5.8545476 48.563527,5.8873509 z"
       style="fill:#cccccc;fill-opacity:0.5;fill-rule:evenodd;stroke:#cccccc;stroke-width:0.45546641pt"
       inkscape:connector-curvature="0" />
    <path
       sodipodi:nodetypes="cccccccccccccccccccccccccccccccccccccccccccc"
       id="path1592"
       d="m 93.165037,5.6580666 c -2.420084,0.089093 -5.134689,0.9001311 -6.582832,2.6371136 -2.106389,4.4881068 3.010522,2.4158618 3.612348,5.5230118 0.601825,3.107151 -3.01029,3.278977 -3.01029,3.278977 l 0,0 -15.563946,0 c 0,0 0.0199,15.434579 0.0199,15.434577 0,0 0.171828,3.612114 3.278977,3.01029 2.52456,-0.488983 1.62928,-3.96113 3.612348,-4.114892 0.457631,-0.03548 1.069144,0.107596 1.910663,0.502544 1.736985,1.448143 2.548023,4.162748 2.637114,6.582833 0.03289,0.893386 -0.04511,1.733599 -0.199027,2.46794 -0.0039,0.03259 -0.01072,0.0669 -0.01492,0.09951 -0.269707,2.088102 -1.076627,4.206293 -2.542575,5.428473 -4.488107,2.10639 -2.41586,-3.010524 -5.523011,-3.612348 -2.26385,-0.438486 -2.963193,1.349938 -3.179464,2.358475 l 0,16.384934 16.175955,0 c 0.987371,0.193974 2.904382,0.873981 2.453013,3.204342 -0.601825,3.107153 -5.713762,1.034904 -3.607372,5.523011 1.222178,1.46595 3.340372,2.272868 5.428473,2.542576 0.03261,0.0042 0.06692,0.01097 0.09951,0.01492 0.734338,0.153921 1.574554,0.231916 2.46794,0.199027 2.420085,-0.08909 5.13469,-0.900129 6.582829,-2.637113 2.10639,-4.488104 -3.010519,-2.415861 -3.612344,-5.523012 -0.601827,-3.107148 3.010284,-3.278977 3.010284,-3.278977 l 15.47439,-0.04478 c 0,0 -0.0995,-15.643558 -0.0995,-15.643556 0,0 -0.17183,-3.612118 -3.27897,-3.01029 -3.10716,0.601825 -1.03491,5.718735 -5.52302,3.612348 -1.73698,-1.448143 -2.54802,-4.162748 -2.63711,-6.582833 -0.0329,-0.893386 0.0451,-1.733601 0.19903,-2.46794 0.004,-0.03259 0.0107,-0.0669 0.0149,-0.09951 0.2697,-2.088102 1.07662,-4.206297 2.54257,-5.428473 0.84152,-0.394949 1.45303,-0.538029 1.91067,-0.502545 1.98306,0.153763 1.08778,3.620934 3.61234,4.109917 2.8991,0.561528 3.22605,-2.44242 3.25908,-2.861019 l 0,-15.668435 -16.265516,0 C 98.80757,16.861203 97.126403,16.143122 97.553592,13.9376 98.155416,10.830451 103.26735,12.902696 101.16096,8.4145887 99.938785,6.9486417 97.820593,6.1417224 95.732491,5.8720131 95.699878,5.8678017 95.665569,5.861038 95.632978,5.8570861 94.898638,5.7031678 94.058424,5.6251714 93.165037,5.6580587 z"
       style="fill:#cccccc;fill-opacity:0.5;fill-rule:evenodd;stroke:#cccccc;stroke-width:0.45664802pt"
       inkscape:connector-curvature="0" />
    <path
       sodipodi:nodetypes="cccccccccccccccccccccccccccccccccccccccccccc"
       id="path1572"
       d="m 149.10499,40.076753 c 0.0894,2.429149 0.9035,5.153922 2.64699,6.607489 4.50491,2.114278 2.42491,-3.021799 5.5437,-3.625879 3.11879,-0.604079 3.29126,3.021566 3.29126,3.021566 l 0,0 0,15.622243 c 0,0 15.49239,-0.01998 15.49239,-0.01998 0,0 3.62564,-0.172471 3.02156,-3.291259 -0.49081,-2.534015 -3.97597,-1.635382 -4.1303,-3.625878 -0.0356,-0.459345 0.108,-1.073148 0.50442,-1.91782 1.45357,-1.74349 4.17834,-2.557567 6.60749,-2.646991 0.89674,-0.03301 1.7401,0.04528 2.47719,0.199772 0.0327,0.004 0.0671,0.01076 0.0999,0.01497 2.09593,0.270718 4.22205,1.08066 5.44881,2.5521 2.11428,4.504917 -3.0218,2.424909 -3.62588,5.543698 -0.44013,2.272329 1.355,2.974291 2.36731,3.191373 l 16.44631,0 0,-16.236545 c 0.1947,-0.991068 0.87725,-2.91526 3.21634,-2.462201 3.11879,0.60408 1.03878,5.735164 5.5437,3.620884 1.47144,-1.226756 2.28138,-3.352883 2.5521,-5.448806 0.004,-0.03273 0.011,-0.06717 0.015,-0.09989 0.1545,-0.737088 0.23279,-1.580451 0.19978,-2.477184 -0.0894,-2.429149 -0.9035,-5.153923 -2.64699,-6.60749 -4.50492,-2.114278 -2.42491,3.021799 -5.5437,3.625879 -3.11879,0.604081 -3.29126,-3.021565 -3.29126,-3.021565 l -0.045,-15.532345 c 0,0 -15.70215,0.09989 -15.70215,0.09989 0,0 -3.62565,0.172473 -3.02157,3.291259 0.60408,3.118789 5.74016,1.038784 3.62588,5.543699 -1.45357,1.74349 -4.17834,2.557568 -6.60749,2.646991 -0.89673,0.03301 -1.74009,-0.04528 -2.47718,-0.199773 -0.0327,-0.004 -0.0672,-0.01076 -0.0999,-0.01497 -2.09592,-0.270718 -4.22205,-1.080658 -5.44881,-2.552099 -0.39642,-0.844672 -0.54004,-1.458475 -0.50442,-1.91782 0.15433,-1.990496 3.63449,-1.091861 4.12531,-3.625879 0.56363,-2.909956 -2.45157,-3.238125 -2.87174,-3.271281 l -15.72712,0 0,16.326442 c -0.23684,1.023731 -0.95761,2.711195 -3.1714,2.282406 -3.11879,-0.604079 -1.03878,-5.735165 -5.5437,-3.620885 -1.47143,1.226758 -2.28138,3.352884 -2.55209,5.448807 -0.004,0.03274 -0.011,0.06717 -0.015,0.09989 -0.15449,0.73709 -0.23278,1.580452 -0.19977,2.477185 z"
       style="fill:#cccccc;fill-opacity:0.5;fill-rule:evenodd;stroke:#cccccc;stroke-width:0.45835848pt"
       inkscape:connector-curvature="0" />
    <path
       sodipodi:nodetypes="cccccccccccccccccccccccccccccccccccccccccc"
       id="path1292"
       d="m 71.560495,61.576868 0,15.728739 c -0.04318,0.496433 -0.402096,3.365654 -3.241915,2.815608 -3.095516,-0.599572 -1.03103,-5.692369 -5.502332,-3.593865 -1.46046,1.217602 -2.264358,3.327864 -2.533056,5.408148 -0.0042,0.03249 -0.01094,0.06667 -0.01487,0.09914 -0.153344,0.731589 -0.231048,1.568659 -0.198282,2.4587 0.08876,2.411023 0.896759,5.115465 2.627239,6.558185 4.471302,2.098502 2.406815,-2.99925 5.502333,-3.598822 3.095516,-0.599574 3.2667,2.999019 3.2667,2.999019 l 0.09418,15.50072 c 0,0 15.560201,-0.12393 15.560199,-0.12393 0,0 3.59859,-0.17119 2.999019,-3.2667 -0.599572,-3.095519 -5.692367,-1.03103 -3.593865,-5.502334 1.44272,-1.730481 4.142205,-2.538484 6.553228,-2.62724 0.890042,-0.03277 1.727111,0.04494 2.4587,0.198282 0.03247,0.0039 0.06665,0.01068 0.09914,0.01486 2.080284,0.268698 4.195503,1.072595 5.413107,2.533056 2.09851,4.471306 -2.999252,2.406813 -3.598824,5.502336 -0.599573,3.09552 2.999024,3.2667 2.999024,3.2667 l 15.41644,0.005 c 0,0 -0.0991,-15.584991 -0.0991,-15.584989 0,0 -0.17118,-3.598593 -3.2667,-2.999019 -3.09551,0.599572 -1.03103,5.697323 -5.50233,3.598823 -1.73048,-1.442721 -2.53848,-4.147162 -2.62724,-6.558186 -0.0328,-0.890041 0.0449,-1.72711 0.19828,-2.4587 0.004,-0.03247 0.0107,-0.06665 0.0149,-0.09914 0.26869,-2.080284 1.07259,-4.190548 2.53305,-5.408148 0.83837,-0.39347 1.44759,-0.536014 1.90351,-0.500663 1.97564,0.153187 1.08372,3.607376 3.59882,4.094529 2.88825,0.559425 3.21397,-2.433276 3.24688,-2.850308 l 0,-15.60977 c 0,0 -15.44123,0.114012 -15.44123,0.114012 0,0 -3.598601,0.171185 -2.999028,3.2667 0.599573,3.095518 5.697328,1.031032 3.598828,5.502333 -1.442725,1.73048 -4.147167,2.538482 -6.55819,2.62724 -0.890042,0.03276 -1.727111,-0.04494 -2.4587,-0.198283 -0.03247,-0.0039 -0.06665,-0.01067 -0.09914,-0.01486 -2.080284,-0.268698 -4.190546,-1.072596 -5.408149,-2.533056 -2.098503,-4.471302 2.994294,-2.406814 3.593866,-5.502332 0.59011,-3.046662 -2.849631,-3.25575 -2.959362,-3.261743 l -15.575071,0 z"
       style="fill:#cccccc;fill-opacity:0.5;fill-rule:evenodd;stroke:#cccccc;stroke-width:0.45493827pt"
       inkscape:connector-curvature="0" />
    <path
       sodipodi:nodetypes="ccccccccccccccccccccccccccccccccccccccccc"
       id="path1492"
       d="m 115.82438,61.798328 0,15.693562 c -0.0431,0.495322 -0.4012,3.358127 -3.23467,2.809311 -3.08859,-0.598231 -1.02872,-5.679638 -5.49002,-3.585828 -1.4572,1.214879 -2.2593,3.320422 -2.52739,5.396053 -0.004,0.03242 -0.0109,0.06652 -0.0148,0.09892 -0.153,0.729953 -0.23053,1.56515 -0.19784,2.453201 0.0886,2.405631 0.89475,5.104024 2.62136,6.543518 4.4613,2.093809 2.40144,-2.992543 5.49003,-3.590774 3.08859,-0.598233 3.25939,2.992312 3.25939,2.992312 l 0.094,15.466047 16.07934,0 c 0.98148,0.19282 2.88704,0.86876 2.43837,3.18521 -0.59823,3.08859 -5.67964,1.02872 -3.58583,5.49002 1.21488,1.4572 3.32042,2.2593 5.39605,2.52739 0.0324,0.004 0.0665,0.0109 0.0989,0.0148 0.72995,0.15301 1.56515,0.23053 2.4532,0.19784 2.40563,-0.0886 5.10403,-0.89475 6.54352,-2.62136 2.09381,-4.4613 -2.99254,-2.40143 -3.59077,-5.49003 -0.59824,-3.08859 2.99231,-3.25939 2.99231,-3.25939 l 15.38196,-0.0445 0,-16.158481 c 0.21943,-1.005355 0.91841,-2.762861 3.15553,-2.329552 3.0886,0.598232 1.02873,5.684585 5.49003,3.590774 1.45719,-1.214879 2.25929,-3.325367 2.52739,-5.400998 0.004,-0.03242 0.0109,-0.06158 0.0148,-0.09397 0.153,-0.729954 0.23053,-1.56515 0.19784,-2.453201 -0.0886,-2.405631 -0.89475,-5.104024 -2.62137,-6.543518 -4.4613,-2.093808 -2.40143,2.992543 -5.49002,3.590774 -3.08859,0.598241 -3.25939,-2.992304 -3.25939,-2.992304 l -0.0148,-15.485831 c 0,0 -15.40669,0.113758 -15.40669,0.113758 0,0 -3.59055,0.170801 -2.99231,3.259394 0.59823,3.088594 5.68458,1.028725 3.59077,5.490026 -1.43949,1.72661 -4.13789,2.532805 -6.54352,2.621364 -0.88805,0.03269 -1.72325,-0.04484 -2.4532,-0.197839 -0.0324,-0.0039 -0.0665,-0.01065 -0.0989,-0.01483 -2.07563,-0.268097 -4.18117,-1.070197 -5.39605,-2.52739 -2.09381,-4.461303 2.98759,-2.401432 3.58583,-5.490027 0.5888,-3.039907 -2.84327,-3.248476 -2.95275,-3.254448 l -15.54023,0 z"
       style="fill:#cccccc;fill-opacity:0.5;fill-rule:evenodd;stroke:#cccccc;stroke-width:0.45392079pt"
       inkscape:connector-curvature="0" />
    <path
       sodipodi:nodetypes="ccccccccccccccccccccccccccccccccccccccccccc"
       id="path1432"
       d="m 181.74986,49.180023 c -2.47639,0.09116 -5.25416,0.921074 -6.73599,2.69847 -2.15539,4.592529 3.08057,2.47207 3.6964,5.651514 0.61582,3.179444 -3.08033,3.355268 -3.08033,3.355268 l 0,0 -15.92607,0 c 0,0 0.0204,15.793692 0.0204,15.79369 0,0 0.17583,3.696156 3.35527,3.08033 2.5833,-0.500361 1.66718,-4.053293 3.6964,-4.210632 0.46827,-0.03631 1.09402,0.110099 1.95511,0.514237 1.7774,1.481836 2.60731,4.2596 2.69847,6.735993 0.0336,0.914172 -0.0462,1.773934 -0.20365,2.525361 -0.004,0.03335 -0.011,0.06846 -0.0152,0.101827 -0.27598,2.136685 -1.10167,4.304161 -2.60173,5.554776 -4.59253,2.155399 -2.47207,-3.080569 -5.65152,-3.696395 -2.31651,-0.448689 -3.03213,1.381345 -3.25343,2.413349 l 0,16.766159 c 0,0 15.98207,-0.12729 15.98207,-0.12729 0,0 3.69615,-0.17583 3.08033,-3.35527 -0.61583,-3.17944 -5.8467,-1.05898 -3.6913,-5.65151 1.48183,-1.777399 4.25451,-2.607308 6.73089,-2.69847 0.91418,-0.03365 1.77394,0.04616 2.52537,0.203657 0.0333,0.004 0.0685,0.01096 0.10179,0.01527 2.13669,0.275984 4.30925,1.101676 5.55986,2.601733 2.1554,4.59253 -3.08056,2.472068 -3.69639,5.65151 -0.61583,3.17944 3.08033,3.35527 3.08033,3.35527 l 15.83442,0.005 0,-16.633773 c 0.22589,-1.034926 0.94542,-2.844129 3.24834,-2.398074 3.17945,0.615828 1.05899,5.851794 5.65152,3.696395 1.50006,-1.250614 2.32575,-3.423182 2.60173,-5.559867 0.004,-0.03337 0.0112,-0.06339 0.0152,-0.09674 0.15749,-0.751425 0.23731,-1.611188 0.20365,-2.525361 -0.0912,-2.476391 -0.92107,-5.254157 -2.69846,-6.735993 -4.59253,-2.155398 -2.47207,3.080567 -5.65152,3.696395 -3.17944,0.61583 -3.35526,-3.08033 -3.35526,-3.08033 l -0.0152,-15.941341 -16.64396,0 c -1.04364,-0.241448 -2.76393,-0.976237 -2.3268,-3.233073 0.61583,-3.179445 5.8467,-1.058984 3.6913,-5.651515 -1.25061,-1.500054 -3.41808,-2.325748 -5.55477,-2.601732 -0.0334,-0.0043 -0.0685,-0.01123 -0.10179,-0.01527 -0.75144,-0.157501 -1.61119,-0.237313 -2.52537,-0.203658 z"
       style="fill:#cccccc;fill-opacity:0.5;fill-rule:evenodd;stroke:#cccccc;stroke-width:0.46727271pt"
       inkscape:connector-curvature="0" />
    <path
       inkscape:connector-curvature="0"
       style="fill:#ffffff;fill-opacity:1;fill-rule:evenodd;stroke:#808080;stroke-width:1.983266;stroke-linejoin:round;stroke-dasharray:none"
       d="m 202.17132,103.43029 15.73227,0 c 0.49654,0.0432 3.36641,0.40219 2.81624,3.24264 -0.59971,3.09622 -5.69365,1.03126 -3.59468,5.50357 1.21789,1.46078 3.32861,2.26487 5.40936,2.53362 0.0325,0.004 0.0666,0.0109 0.0992,0.0148 0.73175,0.15337 1.569,0.2311 2.45925,0.19832 2.41156,-0.0888 5.1166,-0.89695 6.55965,-2.62781 2.09897,-4.47231 -2.99992,-2.40736 -3.59963,-5.50358 -0.5997,-3.0962 2.99969,-3.26743 2.99969,-3.26743 l 15.50419,-0.0943 0,-16.118991 c 0.19328,-0.983894 0.8709,-2.894152 3.19305,-2.444366 3.09621,0.599701 1.03126,5.693637 5.50356,3.594662 1.4608,-1.217876 2.26486,-3.32861 2.53362,-5.409356 0.004,-0.03248 0.0109,-0.06663 0.0148,-0.09917 0.15338,-0.731751 0.2311,-1.569005 0.19832,-2.459242 -0.0888,-2.411564 -0.89696,-5.116608 -2.62782,-6.559649 -4.47231,-2.098968 -2.40736,2.999923 -5.50356,3.599624 -3.09621,0.599701 -3.26742,-2.999688 -3.26742,-2.999688 l -0.0446,-15.419895 c 0,0 -15.58848,0.09916 -15.58848,0.09916 0,0 -3.59939,0.171228 -2.99969,3.267432 0.59971,3.096213 5.69859,1.031267 3.59963,5.50357 -1.44304,1.730862 -4.14809,2.539052 -6.55964,2.627822 -0.89025,0.03284 -1.7275,-0.04494 -2.45926,-0.198323 -0.0324,-0.0043 -0.0666,-0.01063 -0.0992,-0.01481 -2.08075,-0.268759 -4.19148,-1.072839 -5.40937,-2.533623 -0.39354,-0.838552 -0.53612,-1.447922 -0.50076,-1.903945 0.15321,-1.976079 3.60818,-1.083953 4.09544,-3.599618 0.55955,-2.888891 -2.43381,-3.214684 -2.85095,-3.247599 l -15.61326,0 c 0,0 0.11405,15.444684 0.11405,15.444684 0,0 0.17122,3.599398 3.26743,2.999688 3.09621,-0.59971 1.03125,-5.6986 5.50355,-3.599633 1.73087,1.44305 2.53906,4.148094 2.62784,6.559658 0.0328,0.890237 -0.0449,1.727499 -0.19833,2.459251 -0.004,0.0324 -0.0106,0.06663 -0.0148,0.09916 -0.26877,2.080746 -1.07285,4.19148 -2.53363,5.409356 -4.47229,2.098975 -2.40735,-2.994961 -5.50355,-3.59467 -3.04735,-0.590242 -3.25649,2.850272 -3.26249,2.960025 l 0,15.578546 z"
       id="path1220-6-7" />
    <path
       sodipodi:nodetypes="cccccccccccccccccccccccccccccccccccccccccc"
       id="path1139"
       d="m 46.065969,3.3042156 c -2.413823,0.088861 -5.121404,0.8978013 -6.5658,2.63029 -2.100938,4.4764924 3.002733,2.4096099 3.603001,5.5087204 0.600269,3.099111 -3.0025,3.270493 -3.0025,3.270493 l 0,0 -15.523674,0 c 0,0 0.01985,15.394642 0.01985,15.39464 0,0 0.171383,3.602768 3.270493,3.002501 3.099111,-0.600268 1.032228,-5.703939 5.50872,-3.603001 1.73249,1.444396 2.54143,4.151977 2.63029,6.565799 0.0328,0.891075 -0.04499,1.729114 -0.198512,2.461555 -0.0039,0.03251 -0.01069,0.06673 -0.01488,0.09926 -0.269009,2.082699 -1.073841,4.19541 -2.535996,5.414427 -4.476494,2.10094 -2.409609,-3.002734 -5.508721,-3.603001 -2.258547,-0.437459 -2.955712,1.351883 -3.171236,2.357335 l 0,16.337575 16.134099,0 c 0.984816,0.193472 2.896867,0.871719 2.446666,3.19605 -0.600268,3.099113 -5.698978,1.032227 -3.598038,5.508721 1.219016,1.462157 3.331728,2.266987 5.414427,2.535996 0.03253,0.0042 0.06675,0.01094 0.09926,0.01488 0.732438,0.153523 1.57048,0.231316 2.461555,0.198512 2.413822,-0.08886 5.121403,-0.8978 6.565799,-2.63029 2.100938,-4.47649 -3.002733,-2.409609 -3.603001,-5.50872 -0.600278,-3.0991 3.002493,-3.270485 3.002493,-3.270485 l 15.434343,-0.04467 0,-16.213504 c 0.220176,-1.008779 0.921531,-2.77227 3.166274,-2.337484 3.099109,0.600268 1.032226,5.70394 5.50872,3.603001 1.462154,-1.219016 2.266987,-3.336691 2.535997,-5.41939 0.0042,-0.03253 0.01094,-0.06179 0.01488,-0.09429 0.15352,-0.732439 0.231316,-1.570479 0.198513,-2.461554 -0.08886,-2.413823 -0.897801,-5.121404 -2.63029,-6.565799 -4.476494,-2.100939 -2.40961,3.002732 -5.508721,3.603001 -3.099111,0.600269 -3.270493,-3.002501 -3.270493,-3.002501 l -0.01488,-15.538562 -16.22343,0 C 51.693901,14.478372 50.017084,13.762148 50.443168,11.562334 51.043435,8.4632224 56.142146,10.530107 54.041206,6.0536131 52.822189,4.5914586 50.709478,3.7866272 48.626779,3.5176165 48.59425,3.513416 48.56003,3.5066682 48.527523,3.5027281 47.795084,3.349207 46.957043,3.2714123 46.065969,3.3042156 z"
       style="fill:#ffffff;fill-opacity:1;fill-rule:evenodd;stroke:#808080;stroke-width:1.98512447;stroke-linejoin:round;stroke-dasharray:none"
       inkscape:connector-curvature="0" />
    <path
       sodipodi:nodetypes="cccccccccccccccccccccccccccccccccccccccccccc"
       id="path1099"
       d="m 90.503045,3.2672503 c -2.420084,0.089091 -5.134689,0.9001304 -6.582832,2.6371136 -2.106389,4.4881061 3.010522,2.4158609 3.612348,5.5230111 0.601825,3.107151 -3.01029,3.278977 -3.01029,3.278977 l 0,0 -15.563946,0 c 0,0 0.0199,15.43458 0.0199,15.434578 0,0 0.171828,3.612114 3.278977,3.01029 2.52456,-0.488983 1.62928,-3.96113 3.612348,-4.114892 0.457631,-0.03548 1.069144,0.107596 1.910663,0.502544 1.736985,1.448143 2.548023,4.162748 2.637114,6.582833 0.03289,0.893386 -0.04511,1.733599 -0.199027,2.46794 -0.0039,0.03259 -0.01072,0.0669 -0.01492,0.09951 -0.269707,2.088101 -1.076626,4.206293 -2.542575,5.428473 -4.488107,2.10639 -2.41586,-3.010524 -5.523011,-3.612348 -2.26385,-0.438486 -2.963193,1.349938 -3.179464,2.358475 l 0,16.384934 16.175955,0 c 0.987371,0.193974 2.904382,0.87398 2.453013,3.204342 -0.601825,3.107152 -5.713762,1.034904 -3.607372,5.523011 1.222178,1.46595 3.340372,2.272868 5.428473,2.542575 0.03261,0.0042 0.06692,0.01097 0.09951,0.01492 0.734338,0.153921 1.574554,0.231916 2.46794,0.199027 2.420085,-0.08909 5.13469,-0.900129 6.582833,-2.637114 2.106388,-4.488103 -3.010523,-2.41586 -3.612348,-5.523011 -0.601835,-3.10714 3.010282,-3.278969 3.010282,-3.278969 L 113.431,59.24869 c 0,0 -0.0995,-15.643558 -0.0995,-15.643557 0,0 -0.17183,-3.612117 -3.27897,-3.01029 -3.10716,0.601826 -1.03491,5.718735 -5.52302,3.612348 -1.73698,-1.448143 -2.54802,-4.162748 -2.63711,-6.582832 -0.0329,-0.893387 0.0451,-1.733601 0.19903,-2.467941 0.004,-0.03259 0.0107,-0.0669 0.0149,-0.09951 0.2697,-2.088102 1.07662,-4.206297 2.54257,-5.428474 0.84152,-0.394948 1.45304,-0.538028 1.91067,-0.502544 1.98306,0.153762 1.08778,3.620933 3.61234,4.109917 2.8991,0.561528 3.22605,-2.44242 3.25908,-2.86102 l 0,-15.668435 -16.265516,0 c -1.019903,-0.235957 -2.70107,-0.954039 -2.273881,-3.15956 0.601824,-3.1071512 5.713757,-1.034905 3.607373,-5.5230117 -1.22218,-1.4659475 -3.340372,-2.2728669 -5.428474,-2.5425755 -0.03261,-0.00421 -0.06692,-0.010977 -0.09951,-0.014927 -0.73434,-0.1539194 -1.574554,-0.2319159 -2.467941,-0.1990275 z"
       style="fill:#ffffff;fill-opacity:1;fill-rule:evenodd;stroke:#808080;stroke-width:1.99027443;stroke-linejoin:round;stroke-dasharray:none"
       inkscape:connector-curvature="0" />
    <path
       inkscape:connector-curvature="0"
       style="fill:#ffffff;fill-opacity:1;fill-rule:evenodd;stroke:#808080;stroke-width:1.9839462;stroke-linejoin:round;stroke-dasharray:none"
       d="m 24.524018,58.923705 0,15.737661 c -0.04322,0.496706 -0.402326,3.367559 -3.243746,2.817203 -3.097276,-0.599917 -1.031621,-5.695601 -5.505459,-3.595906 -1.461277,1.218296 -2.26564,3.329745 -2.534493,5.411213 -0.0044,0.03249 -0.01097,0.06666 -0.01481,0.09919 -0.153425,0.732001 -0.231179,1.569543 -0.198392,2.460094 0.08881,2.412391 0.897268,5.118362 2.628723,6.5619 4.473846,2.099687 2.408184,-3.000945 5.505458,-3.60086 3.097265,-0.599915 3.268552,3.000719 3.268552,3.000719 l 0.09423,15.509511 16.124521,0 c 0.984231,0.19335 2.895145,0.87121 2.445203,3.19415 -0.599906,3.09728 -5.69559,1.03161 -3.595894,5.50544 1.218293,1.4613 3.329752,2.26564 5.411211,2.53448 0.03249,0.005 0.06666,0.011 0.0992,0.0148 0.732003,0.15343 1.569545,0.23117 2.460086,0.19839 2.412392,-0.0888 5.118362,-0.89727 6.561901,-2.62873 2.099687,-4.47384 -3.000954,-2.40818 -3.60086,-5.50544 -0.599907,-3.09727 3.000718,-3.26854 3.000718,-3.26854 l 15.425186,-0.0446 c 0,0 -0.09919,-15.593828 -0.09919,-15.593828 0,0 -0.171285,-3.600626 -3.268552,-3.000719 -3.097274,0.599915 -1.03162,5.700548 -5.505459,3.600861 -1.731456,-1.443538 -2.539922,-4.14951 -2.628724,-6.561893 -0.03284,-0.89055 0.04496,-1.728091 0.198393,-2.460094 0.0044,-0.03249 0.01062,-0.06665 0.01481,-0.09919 0.268853,-2.081468 1.073207,-4.192926 2.534493,-5.411222 0.838843,-0.39369 1.448421,-0.536312 1.904601,-0.500946 1.976756,0.153268 1.084324,3.609419 3.600851,4.096851 2.889883,0.559741 3.215787,-2.434652 3.248713,-2.851922 l 0,-15.618618 c 0,0 -15.449982,0.114078 -15.449982,0.114078 0,0 -3.600635,0.171286 -3.000719,3.268552 0.599916,3.097275 5.700556,1.031611 3.60087,5.50545 -1.443548,1.731463 -4.149518,2.539921 -6.56191,2.628731 -0.890541,0.03284 -1.728093,-0.04496 -2.460094,-0.1984 -0.03241,-0.0044 -0.06666,-0.01063 -0.09919,-0.01481 -2.081456,-0.268817 -4.192912,-1.07317 -5.411207,-2.534457 -2.099695,-4.473829 2.995988,-2.408175 3.595904,-5.505441 0.590445,-3.048395 -2.851249,-3.2576 -2.961041,-3.263603 l -15.583896,0 z"
       id="path1220-6" />
    <path
       sodipodi:nodetypes="cccccccccccccccccccccccccccccccccccccccccc"
       id="path1290"
       d="m 68.909725,58.974413 0,15.72874 c -0.04318,0.496432 -0.402096,3.365654 -3.241915,2.815608 -3.095517,-0.599572 -1.03103,-5.692369 -5.502333,-3.593866 -1.46046,1.217602 -2.264358,3.327865 -2.533055,5.408148 -0.0042,0.03249 -0.01094,0.06667 -0.01487,0.09914 -0.153343,0.731588 -0.231048,1.568658 -0.198282,2.458699 0.08876,2.411024 0.896759,5.115465 2.62724,6.558186 4.471301,2.098502 2.406815,-2.999251 5.502332,-3.598823 3.095516,-0.599574 3.2667,2.999019 3.2667,2.999019 l 0.09418,15.500716 c 0,0 15.560201,-0.12393 15.560199,-0.12393 0,0 3.59859,-0.17118 2.999019,-3.266697 -0.599572,-3.095518 -5.692368,-1.031033 -3.593866,-5.502333 1.442721,-1.73048 4.142205,-2.538484 6.553229,-2.62724 0.890041,-0.03276 1.727111,0.04494 2.4587,0.198283 0.03247,0.0039 0.06665,0.01068 0.09914,0.01486 2.080284,0.268698 4.195503,1.072594 5.413105,2.533055 2.098512,4.471303 -2.99925,2.406814 -3.598823,5.502342 -0.599572,3.09551 2.999019,3.26669 2.999019,3.2667 l 15.416446,0.005 c 0,0 -0.0991,-15.584996 -0.0991,-15.584995 0,0 -0.17118,-3.598593 -3.2667,-2.999019 -3.09552,0.599572 -1.03103,5.697323 -5.50233,3.598823 -1.73048,-1.442721 -2.53848,-4.147162 -2.62724,-6.558185 -0.0328,-0.890042 0.0449,-1.72711 0.19828,-2.4587 0.004,-0.03247 0.0107,-0.06665 0.0149,-0.09914 0.26869,-2.080284 1.07259,-4.190548 2.53305,-5.408149 0.83837,-0.393469 1.44759,-0.536014 1.90351,-0.500662 1.97564,0.153186 1.08371,3.607376 3.59882,4.094528 2.88825,0.559426 3.21397,-2.433275 3.24688,-2.850307 l 0,-15.60977 c 0,0 -15.441239,0.114012 -15.441239,0.114012 0,0 -3.598593,0.171184 -2.999019,3.2667 0.599572,3.095517 5.697328,1.031031 3.598823,5.502332 -1.442721,1.730481 -4.147162,2.538483 -6.558185,2.62724 -0.890042,0.03277 -1.727112,-0.04494 -2.4587,-0.198282 -0.03247,-0.0039 -0.06665,-0.01068 -0.09914,-0.01486 -2.080283,-0.268698 -4.190546,-1.072596 -5.408148,-2.533056 -2.098503,-4.471303 2.994294,-2.406815 3.593866,-5.502332 0.59011,-3.046663 -2.849632,-3.255751 -2.959363,-3.261743 l -15.57507,0 z"
       style="fill:#ffffff;fill-opacity:1;fill-rule:evenodd;stroke:#808080;stroke-width:1.98282254;stroke-linejoin:round;stroke-dasharray:none"
       inkscape:connector-curvature="0" />
    <path
       sodipodi:nodetypes="ccccccccccccccccccccccccccccccccccccccccc"
       id="path1151"
       d="m 113.33655,58.956886 0,15.693562 c -0.0431,0.495322 -0.40119,3.358126 -3.23466,2.809311 -3.08859,-0.598232 -1.02872,-5.679639 -5.49003,-3.585829 -1.45719,1.214879 -2.25929,3.320422 -2.52739,5.396053 -0.004,0.03242 -0.0109,0.06652 -0.0148,0.09892 -0.15301,0.729952 -0.23054,1.56515 -0.19784,2.453201 0.0886,2.405631 0.89475,5.104024 2.62136,6.543518 4.4613,2.093808 2.40143,-2.992543 5.49003,-3.590774 3.08859,-0.598233 3.25939,2.992311 3.25939,2.992311 l 0.094,15.466051 16.07935,0 c 0.98148,0.19281 2.88704,0.86876 2.43837,3.1852 -0.59824,3.0886 -5.67964,1.02872 -3.58583,5.49003 1.21488,1.45719 3.32042,2.25929 5.39605,2.52739 0.0324,0.004 0.0665,0.0109 0.0989,0.0148 0.72995,0.153 1.56515,0.23053 2.4532,0.19784 2.40563,-0.0886 5.10402,-0.89476 6.54352,-2.62137 2.09381,-4.4613 -2.99254,-2.40143 -3.59078,-5.49002 -0.59823,-3.08859 2.99232,-3.25939 2.99232,-3.25939 l 15.38196,-0.0445 0,-16.158486 c 0.21943,-1.005355 0.91841,-2.762862 3.15553,-2.329552 3.08859,0.598231 1.02872,5.684584 5.49003,3.590774 1.45719,-1.214879 2.25929,-3.325368 2.52739,-5.400999 0.004,-0.03242 0.0109,-0.06158 0.0148,-0.09397 0.153,-0.729954 0.23053,-1.565151 0.19784,-2.453201 -0.0886,-2.405631 -0.89476,-5.104024 -2.62137,-6.543518 -4.4613,-2.093809 -2.40143,2.992542 -5.49002,3.590774 -3.0886,0.598232 -3.2594,-2.992312 -3.2594,-2.992312 l -0.0148,-15.485831 c 0,0 -15.40669,0.113757 -15.40669,0.113757 0,0 -3.59055,0.170802 -2.99232,3.259394 0.59824,3.088594 5.68459,1.028726 3.59078,5.490027 -1.4395,1.72661 -4.13789,2.532805 -6.54352,2.621364 -0.88805,0.03269 -1.72325,-0.04484 -2.4532,-0.197839 -0.0324,-0.0039 -0.0665,-0.01065 -0.0989,-0.01483 -2.07563,-0.268097 -4.18117,-1.070197 -5.39605,-2.527391 -2.09381,-4.461302 2.98759,-2.401432 3.58583,-5.490026 0.5888,-3.039907 -2.84327,-3.248477 -2.95275,-3.254448 l -15.54024,0 z"
       style="fill:#ffffff;fill-opacity:1;fill-rule:evenodd;stroke:#808080;stroke-width:1.97838783;stroke-linejoin:round;stroke-dasharray:none"
       inkscape:connector-curvature="0" />
    <path
       inkscape:connector-curvature="0"
       style="fill:#ffffff;fill-opacity:1;fill-rule:evenodd;stroke:#808080;stroke-width:1.99121451;stroke-linejoin:round;stroke-dasharray:none"
       d="m 113.48756,14.729529 0,15.795313 c -0.0434,0.498528 -0.4038,3.379895 -3.25563,2.827525 -3.10862,-0.602112 -1.0354,-5.716465 -5.52563,-3.609076 -1.46662,1.222751 -2.27394,3.341942 -2.54377,5.431037 -0.004,0.03264 -0.011,0.06692 -0.0148,0.09955 -0.15398,0.734684 -0.23203,1.575293 -0.19911,2.469107 0.0891,2.421226 0.90055,5.137113 2.63834,6.585936 4.49024,2.107383 2.41701,-3.011939 5.52563,-3.61405 3.10861,-0.602112 3.28052,3.011712 3.28052,3.011712 l 0.0946,15.566317 16.1836,0 c 0.98784,0.194066 2.90575,0.874397 2.45416,3.205857 -0.60211,3.108618 -5.71645,1.035393 -3.60907,5.525619 1.22276,1.466644 3.34195,2.273941 5.43104,2.543771 0.0327,0.0043 0.0669,0.011 0.0996,0.0149 0.73469,0.153991 1.5753,0.232025 2.4691,0.199119 2.42123,-0.08913 5.13711,-0.900555 6.58595,-2.638356 2.10737,-4.490228 -3.01195,-2.417004 -3.61406,-5.525619 -0.6021,-3.108612 3.01171,-3.280521 3.01171,-3.280521 l 15.4817,-0.04478 c 0,0 -0.0996,-15.650945 -0.0996,-15.650945 0,0 -0.17192,-3.613823 -3.28053,-3.011713 -3.10862,0.602111 -1.0354,5.721433 -5.52563,3.614051 -1.7378,-1.448823 -2.54923,-4.16471 -2.63835,-6.585936 -0.033,-0.893807 0.0451,-1.734423 0.19912,-2.469108 0.004,-0.03264 0.0107,-0.06692 0.0148,-0.09956 0.26983,-2.089087 1.07713,-4.208285 2.54378,-5.431037 0.84191,-0.395136 1.45372,-0.538284 1.91157,-0.502786 1.984,0.153835 1.08829,3.622646 3.61405,4.111861 2.90046,0.56179 3.22756,-2.443572 3.2606,-2.862369 l 0,-15.67584 c 0,0 -15.50657,0.114498 -15.50657,0.114498 0,0 -3.61383,0.17191 -3.01171,3.280522 0.60211,3.108624 5.72144,1.035399 3.61405,5.52562 -1.44883,1.737808 -4.16471,2.549229 -6.58595,2.638363 -0.8938,0.03293 -1.73442,-0.04513 -2.46911,-0.199125 -0.0326,-0.0043 -0.0669,-0.01072 -0.0996,-0.01491 -2.08909,-0.269838 -4.20828,-1.077135 -5.43104,-2.543779 -2.10738,-4.490222 3.00696,-2.416996 3.60908,-5.525614 0.5926,-3.059559 -2.8617,-3.269536 -2.97189,-3.275554 l -15.64099,0 z"
       id="path1220" />
    <path
       sodipodi:nodetypes="ccccccccccccccccccccccccccccccccccccccccccc"
       id="path1188"
       d="m 179.22094,47.528592 c -2.4157,0.08893 -5.1254,0.898502 -6.57092,2.632343 -2.10258,4.479986 3.00507,2.41149 3.60581,5.513019 0.60073,3.10153 -3.00484,3.273045 -3.00484,3.273045 l 0,0 -15.5358,0 c 0,0 0.0199,15.406658 0.0199,15.406656 0,0 0.17151,3.605579 3.27304,3.004844 2.51999,-0.488099 1.62633,-3.953965 3.60581,-4.107448 0.45681,-0.03542 1.06721,0.107401 1.90721,0.501634 1.73384,1.445524 2.54341,4.155218 2.63234,6.570925 0.0328,0.89177 -0.045,1.730462 -0.19867,2.463475 -0.004,0.03253 -0.0107,0.06678 -0.0148,0.09933 -0.26923,2.084324 -1.07469,4.198683 -2.53799,5.418653 -4.47998,2.102579 -2.41149,-3.005079 -5.51301,-3.605813 -2.25976,-0.437693 -2.95784,1.347495 -3.17372,2.354208 l 0,16.355297 c 0,0 15.59043,-0.12417 15.59042,-0.12417 0,0 3.60559,-0.17152 3.00485,-3.27305 -0.60073,-3.101527 -5.70343,-1.033033 -3.60085,-5.513017 1.44552,-1.733842 4.15025,-2.543414 6.56596,-2.632343 0.89177,-0.03283 1.73046,0.04503 2.46348,0.198667 0.0325,0.0039 0.0668,0.01069 0.0993,0.0149 2.08433,0.269221 4.20366,1.074678 5.42362,2.537976 2.10258,4.479988 -3.00508,2.411488 -3.60581,5.513017 -0.60074,3.10153 3.00484,3.27304 3.00484,3.27304 l 15.44639,0.005 0,-16.226151 c 0.22035,-1.009565 0.92225,-2.774433 3.16875,-2.339308 3.10152,0.600736 1.03303,5.708392 5.51301,3.605812 1.4633,-1.219967 2.26876,-3.339294 2.53798,-5.423619 0.004,-0.03255 0.0109,-0.06184 0.0148,-0.09437 0.15365,-0.733011 0.2315,-1.571705 0.19867,-2.463475 -0.089,-2.415706 -0.8985,-5.125401 -2.63235,-6.570924 -4.47998,-2.102578 -2.41149,3.005076 -5.51301,3.605813 -3.10154,0.600739 -3.27305,-3.004844 -3.27305,-3.004844 l -0.0149,-15.550689 -16.23609,0 c -1.01808,-0.235515 -2.69621,-0.952297 -2.26979,-3.15383 0.60074,-3.101529 5.70343,-1.033031 3.60085,-5.513019 -1.21996,-1.463296 -3.33433,-2.268755 -5.41865,-2.537976 -0.0326,-0.0042 -0.0668,-0.01095 -0.0993,-0.0149 -0.733,-0.153641 -1.5717,-0.231496 -2.46347,-0.198667 z"
       style="fill:#ffffff;fill-opacity:1;fill-rule:evenodd;stroke:#808080;stroke-width:1.98667383;stroke-linejoin:round;stroke-dasharray:none"
       inkscape:connector-curvature="0" />
    <path
       sodipodi:nodetypes="cccccccccccccccccccccccccccccccccccccccccccc"
       id="path1099-1"
       d="m 146.43302,37.676976 c 0.0894,2.42915 0.90351,5.153923 2.64699,6.60749 4.50492,2.114278 2.42491,-3.021799 5.5437,-3.625879 3.11879,-0.60408 3.29126,3.021566 3.29126,3.021566 l 0,0 0,15.622242 c 0,0 15.49239,-0.01998 15.49239,-0.01998 0,0 3.62565,-0.172471 3.02157,-3.291259 -0.49082,-2.534015 -3.97597,-1.635383 -4.13031,-3.625878 -0.0356,-0.459345 0.108,-1.073149 0.50443,-1.91782 1.45357,-1.743491 4.17834,-2.557567 6.60749,-2.646992 0.89673,-0.03301 1.74009,0.04528 2.47718,0.199773 0.0327,0.004 0.0671,0.01076 0.0999,0.01497 2.09592,0.270718 4.22205,1.08066 5.44881,2.552099 2.11428,4.504918 -3.0218,2.42491 -3.62588,5.543699 -0.44013,2.272329 1.35499,2.974291 2.36731,3.191372 l 16.4463,0 0,-16.236544 c 0.1947,-0.991069 0.87726,-2.915261 3.21635,-2.462201 3.11879,0.604079 1.03878,5.735164 5.5437,3.620884 1.47144,-1.226756 2.28138,-3.352883 2.55209,-5.448807 0.004,-0.03273 0.011,-0.06717 0.015,-0.09989 0.1545,-0.737089 0.23278,-1.580452 0.19977,-2.477184 -0.0894,-2.42915 -0.9035,-5.153923 -2.64699,-6.60749 -4.50491,-2.114278 -2.42491,3.021799 -5.5437,3.625879 -3.11878,0.604081 -3.29126,-3.021566 -3.29126,-3.021566 l -0.045,-15.532345 c 0,0 -15.70215,0.09989 -15.70215,0.09989 0,0 -3.62564,0.172473 -3.02156,3.291259 0.60408,3.118789 5.74015,1.038784 3.62588,5.543698 -1.45357,1.743491 -4.17834,2.557569 -6.60749,2.646992 -0.89674,0.03301 -1.7401,-0.04528 -2.47719,-0.199773 -0.0327,-0.004 -0.0671,-0.01076 -0.0999,-0.01498 -2.09593,-0.270718 -4.22206,-1.080658 -5.44881,-2.552099 -0.39643,-0.844672 -0.54005,-1.458475 -0.50443,-1.91782 0.15434,-1.990496 3.6345,-1.091862 4.12531,-3.625879 0.56363,-2.909956 -2.45157,-3.238126 -2.87173,-3.271282 l -15.72713,0 0,16.326443 c -0.23684,1.02373 -0.95761,2.711195 -3.17139,2.282405 -3.11879,-0.604078 -1.03878,-5.735164 -5.5437,-3.620884 -1.47144,1.226758 -2.28138,3.352883 -2.5521,5.448807 -0.004,0.03274 -0.011,0.06717 -0.015,0.09989 -0.1545,0.73709 -0.23279,1.580452 -0.19978,2.477184 z"
       style="fill:#ffffff;fill-opacity:1;fill-rule:evenodd;stroke:#808080;stroke-width:1.9977293;stroke-linejoin:round;stroke-dasharray:none"
       inkscape:connector-curvature="0" />
  </g>
  <g
     inkscape:groupmode="layer"
     id="layer3"
     inkscape:label="letters"
     sodipodi:insensitive="true">
    <g
       id="g4056">
      <text
         sodipodi:linespacing="125%"
         id="text3980"
         y="43.698956"
         x="40.95327"
         style="font-size:20px;font-style:normal;font-variant:normal;font-weight:normal;font-stretch:normal;text-align:start;line-height:125%;letter-spacing:0px;word-spacing:0px;writing-mode:lr-tb;text-anchor:start;fill:#000000;fill-opacity:1;stroke:#000000;font-family:Arial;-inkscape-font-specification:Arial"
         xml:space="preserve"><tspan
           y="43.698956"
           x="40.95327"
           id="tspan3982"
           sodipodi:role="line">L</tspan></text>
      <text
         sodipodi:linespacing="125%"
         id="text3984"
         y="43.698956"
         x="88.977562"
         style="font-size:20px;font-style:normal;font-variant:normal;font-weight:normal;font-stretch:normal;text-align:start;line-height:125%;letter-spacing:0px;word-spacing:0px;writing-mode:lr-tb;text-anchor:start;fill:#000000;fill-opacity:1;stroke:#000000;font-family:Arial;-inkscape-font-specification:Arial"
         xml:space="preserve"><tspan
           y="43.698956"
           x="88.977562"
           id="tspan3986"
           sodipodi:role="line">i</tspan></text>
      <text
         sodipodi:linespacing="125%"
         id="text3988"
         y="43.698956"
         x="130.52014"
         style="font-size:20px;font-style:normal;font-variant:normal;font-weight:normal;font-stretch:normal;text-align:start;line-height:125%;letter-spacing:0px;word-spacing:0px;writing-mode:lr-tb;text-anchor:start;fill:#000000;fill-opacity:1;stroke:#000000;font-family:Arial;-inkscape-font-specification:Arial"
         xml:space="preserve"><tspan
           y="43.698956"
           x="130.52014"
           id="tspan3990"
           sodipodi:role="line">v</tspan></text>
      <text
         sodipodi:linespacing="125%"
         id="text3992"
         y="43.464581"
         x="174.60684"
         style="font-size:20px;font-style:normal;font-variant:normal;font-weight:normal;font-stretch:normal;text-align:start;line-height:125%;letter-spacing:0px;word-spacing:0px;writing-mode:lr-tb;text-anchor:start;fill:#000000;fill-opacity:1;stroke:#000000;font-family:Arial;-inkscape-font-specification:Arial"
         xml:space="preserve"><tspan
           y="43.464581"
           x="174.60684"
           id="tspan3994"
           sodipodi:role="line">e</tspan></text>
      <text
         sodipodi:linespacing="125%"
         id="text3996"
         y="88.544785"
         x="40.364014"
         style="font-size:20px;font-style:normal;font-variant:normal;font-weight:normal;font-stretch:normal;text-align:start;line-height:125%;letter-spacing:0px;word-spacing:0px;writing-mode:lr-tb;text-anchor:start;fill:#000000;fill-opacity:1;stroke:#000000;font-family:Arial;-inkscape-font-specification:Arial"
         xml:space="preserve"><tspan
           y="88.544785"
           x="40.364014"
           id="tspan3998"
           sodipodi:role="line">S</tspan></text>
      <text
         sodipodi:linespacing="125%"
         id="text4000"
         y="88.798691"
         x="85.442039"
         style="font-size:20px;font-style:normal;font-variant:normal;font-weight:normal;font-stretch:normal;text-align:start;line-height:125%;letter-spacing:0px;word-spacing:0px;writing-mode:lr-tb;text-anchor:start;fill:#000000;fill-opacity:1;stroke:#000000;font-family:Arial;-inkscape-font-specification:Arial"
         xml:space="preserve"><tspan
           y="88.798691"
           x="85.442039"
           id="tspan4002"
           sodipodi:role="line">h</tspan></text>
      <text
         sodipodi:linespacing="125%"
         id="text4004"
         y="88.798691"
         x="133.46646"
         style="font-size:20px;font-style:normal;font-variant:normal;font-weight:normal;font-stretch:normal;text-align:start;line-height:125%;letter-spacing:0px;word-spacing:0px;writing-mode:lr-tb;text-anchor:start;fill:#000000;fill-opacity:1;stroke:#000000;font-family:Arial;-inkscape-font-specification:Arial"
         xml:space="preserve"><tspan
           y="88.798691"
           x="133.46646"
           id="tspan4006"
           sodipodi:role="line">i</tspan></text>
      <text
         sodipodi:linespacing="125%"
         id="text4008"
         y="88.798691"
         x="177.66054"
         style="font-size:20px;font-style:normal;font-variant:normal;font-weight:normal;font-stretch:normal;text-align:start;line-height:125%;letter-spacing:0px;word-spacing:0px;writing-mode:lr-tb;text-anchor:start;fill:#000000;fill-opacity:1;stroke:#000000;font-family:Arial;-inkscape-font-specification:Arial"
         xml:space="preserve"><tspan
           y="88.798691"
           x="177.66054"
           id="tspan4010"
           sodipodi:role="line">f</tspan></text>
      <text
         sodipodi:linespacing="125%"
         id="text4012"
         y="88.564316"
         x="221.56004"
         style="font-size:20px;font-style:normal;font-variant:normal;font-weight:normal;font-stretch:normal;text-align:start;line-height:125%;letter-spacing:0px;word-spacing:0px;writing-mode:lr-tb;text-anchor:start;fill:#000000;fill-opacity:1;stroke:#000000;font-family:Arial;-inkscape-font-specification:Arial"
         xml:space="preserve"><tspan
           y="88.564316"
           x="221.56004"
           id="tspan4014"
           sodipodi:role="line">t</tspan></text>
    </g>
  </g>
</svg>
