<?xml version="1.0" encoding="UTF-8" standalone="no"?>
<!-- Created with Inkscape (http://www.inkscape.org/) -->

<svg
   xmlns:dc="http://purl.org/dc/elements/1.1/"
   xmlns:cc="http://creativecommons.org/ns#"
   xmlns:rdf="http://www.w3.org/1999/02/22-rdf-syntax-ns#"
   xmlns:svg="http://www.w3.org/2000/svg"
   xmlns="http://www.w3.org/2000/svg"
   xmlns:sodipodi="http://sodipodi.sourceforge.net/DTD/sodipodi-0.dtd"
   xmlns:inkscape="http://www.inkscape.org/namespaces/inkscape"
   width="744.09448819"
   height="1052.3622047"
   id="svg2"
   version="1.1"
   inkscape:version="0.48.0 r9654"
   sodipodi:docname="try4.svg">
  <defs
     id="defs4" />
  <sodipodi:namedview
     id="base"
     pagecolor="#ffffff"
     bordercolor="#666666"
     borderopacity="1.0"
     inkscape:pageopacity="0.0"
     inkscape:pageshadow="2"
     inkscape:zoom="22.627417"
     inkscape:cx="89.530206"
     inkscape:cy="786.34857"
     inkscape:document-units="px"
     inkscape:current-layer="layer1"
     showgrid="false"
     inkscape:window-width="1680"
     inkscape:window-height="1004"
     inkscape:window-x="0"
     inkscape:window-y="0"
     inkscape:window-maximized="1" />
  <metadata
     id="metadata7">
    <rdf:RDF>
      <cc:Work
         rdf:about="">
        <dc:format>image/svg+xml</dc:format>
        <dc:type
           rdf:resource="http://purl.org/dc/dcmitype/StillImage" />
        <dc:title></dc:title>
      </cc:Work>
    </rdf:RDF>
  </metadata>
  <g
     inkscape:label="Layer 1"
     inkscape:groupmode="layer"
     id="layer1">
    <path
       inkscape:connector-curvature="0"
       id="path2992"
       style="font-size:10px;font-style:normal;font-variant:normal;font-weight:normal;font-stretch:normal;text-align:start;line-height:125%;letter-spacing:0px;word-spacing:0px;writing-mode:lr-tb;text-anchor:start;fill:#000080;fill-opacity:1;stroke:none;font-family:Arial Black;-inkscape-font-specification:'Arial Black,';opacity:0.8"
       d="m 75.018135,256.63254 2.211914,0 0,5.39551 22.737863,0 0,1.76269 -24.949777,0 0,-7.1582"
       sodipodi:nodetypes="ccccccc" />
    <path
       inkscape:connector-curvature="0"
       id="path2994"
       style="font-size:10px;font-style:normal;font-variant:normal;font-weight:normal;font-stretch:normal;text-align:start;line-height:125%;letter-spacing:0px;word-spacing:0px;writing-mode:lr-tb;text-anchor:start;fill:#808000;fill-opacity:1;stroke:none;font-family:Arial Black;-inkscape-font-specification:'Arial Black,';opacity:0.8"
       d="m 81.639229,256.63254 1.987305,0 0,1.35254 -1.987305,0 0,-1.35254 m 0,1.97265 1.987305,0 0,5.18555 -1.987305,0 0,-5.18555" />
    <path
       inkscape:connector-curvature="0"
       id="path2996"
       style="font-size:10px;font-style:normal;font-variant:normal;font-weight:normal;font-stretch:normal;text-align:start;line-height:125%;letter-spacing:0px;word-spacing:0px;writing-mode:lr-tb;text-anchor:start;fill:#008000;fill-opacity:1;stroke:none;font-family:Arial Black;-inkscape-font-specification:'Arial Black,';opacity:0.8"
       d="m 84.31501,258.60519 2.070313,0 1.005859,3.28614 1.040039,-3.28614 2.006836,0 -2.202148,5.18555 -1.762696,0 -2.158203,-5.18555" />
    <path
       inkscape:connector-curvature="0"
       id="path2998"
       style="font-size:10px;font-style:normal;font-variant:normal;font-weight:normal;font-stretch:normal;text-align:start;line-height:125%;letter-spacing:0px;word-spacing:0px;writing-mode:lr-tb;text-anchor:start;opacity:0.8;fill:#d45500;fill-opacity:1;stroke:none;font-family:Arial Black;-inkscape-font-specification:'Arial Black,'"
       d="m 96.522041,261.57953 -3.984375,0 c 0.0358,0.31901 0.122068,0.55664 0.258789,0.71289 0.192055,0.22461 0.442706,0.33692 0.751954,0.33692 0.195308,0 0.380855,-0.0488 0.55664,-0.14649 0.107418,-0.0618 0.222978,-0.1709 0.34668,-0.32715 l 1.958008,0.18067 c -0.299485,0.52083 -0.660813,0.89518 -1.083985,1.12304 -0.423182,0.22461 -1.030277,0.33692 -1.821289,0.33692 -0.686851,0 -1.227215,-0.096 -1.621094,-0.28809 -0.393881,-0.19531 -0.721029,-0.50293 -0.981445,-0.92285 -0.257162,-0.42317 -0.385742,-0.91959 -0.385742,-1.48926 0,-0.81054 0.258788,-1.46646 0.776367,-1.96777 0.520832,-0.5013 1.238605,-0.75195 2.15332,-0.75195 0.742184,0 1.328121,0.11231 1.757813,0.33691 0.429682,0.22461 0.75683,0.55014 0.981445,0.97656 0.224603,0.42644 0.336908,0.98145 0.336914,1.66504 l 0,0.22461 m -2.021484,-0.95215 c -0.03907,-0.38411 -0.143233,-0.65917 -0.3125,-0.82519 -0.16602,-0.16601 -0.385746,-0.24902 -0.65918,-0.24903 -0.315758,1e-5 -0.568036,0.12533 -0.756836,0.37598 -0.120445,0.15625 -0.196942,0.389 -0.229492,0.69824 l 1.958008,0" />
    <path
       inkscape:connector-curvature="0"
       style="font-size:10px;font-style:normal;font-variant:normal;font-weight:normal;font-stretch:normal;text-align:start;line-height:125%;letter-spacing:0px;word-spacing:0px;writing-mode:lr-tb;text-anchor:start;fill:#800000;fill-opacity:1;stroke:none;font-family:Arial Black;-inkscape-font-specification:'Arial Black,';opacity:0.8"
       id="path3000"
       d="m 74.632393,269.54374 2.104492,-0.13184 c 0.04557,0.3418 0.138344,0.60222 0.27832,0.78125 0.227862,0.28972 0.553383,0.43457 0.976563,0.43457 0.315751,0 0.558264,-0.0732 0.727539,-0.21973 0.172521,-0.14973 0.258784,-0.32226 0.258789,-0.51757 -5e-6,-0.18555 -0.08138,-0.35156 -0.244141,-0.49805 -0.162764,-0.14648 -0.540368,-0.28483 -1.132812,-0.41504 -0.970055,-0.2181 -1.661786,-0.50781 -2.075195,-0.86914 -0.416668,-0.36132 -0.625001,-0.82194 -0.625,-1.38184 -10e-7,-0.36783 0.105793,-0.71451 0.317382,-1.04003 0.214843,-0.32877 0.535481,-0.58594 0.961914,-0.77149 0.429686,-0.18879 1.01725,-0.37249 1.762696,-0.37249 3.374673,-0.001 21.976257,0.0765 21.976257,0.0765 -0.01191,1.28232 -0.0115,1.32162 -0.0115,1.32162 -3.560671,0 -18.971672,0.0242 -22.184478,0.0242 -0.257164,0 -0.450849,0.0553 -0.581054,0.16601 -0.130212,0.10743 -0.195316,0.23926 -0.195313,0.39551 -3e-6,0.11394 0.05371,0.21648 0.161133,0.30762 0.104164,0.0944 0.351559,0.18229 0.742187,0.26367 0.966793,0.20834 1.658524,0.41992 2.075196,0.63476 0.419915,0.2116 0.724277,0.47527 0.913086,0.79102 0.19205,0.31576 0.288079,0.66895 0.288086,1.05957 -7e-6,0.45899 -0.12696,0.88216 -0.38086,1.26953 -0.253912,0.38737 -0.60873,0.68197 -1.064453,0.88379 -0.455734,0.19857 -1.030278,0.29785 -1.723633,0.29785 -1.21745,0 -2.060548,-0.23437 -2.529297,-0.70312 -0.46875,-0.46875 -0.73405,-1.06446 -0.795898,-1.78711"
       sodipodi:nodetypes="cccscccccscccccccccccccccssc" />
    <path
       inkscape:connector-curvature="0"
       id="path3002"
       style="font-size:10px;font-style:normal;font-variant:normal;font-weight:normal;font-stretch:normal;text-align:start;line-height:125%;letter-spacing:0px;word-spacing:0px;writing-mode:lr-tb;text-anchor:start;fill:#808000;fill-opacity:1;stroke:none;font-family:Arial Black;-inkscape-font-specification:'Arial Black,';opacity:0.8"
       d="m 81.639353,263.68266 1.987304,0 0,3.83628 c 0.27018,-0.27995 0.538734,-0.48014 0.805664,-0.60059 0.266924,-0.12044 0.582679,-0.18066 0.947266,-0.18066 0.54036,0 0.965164,0.16439 1.274414,0.49316 0.312494,0.32878 0.468744,0.83334 0.46875,1.51367 l 0,3.2959 -1.99707,0 0,-2.85156 c -4e-6,-0.32552 -0.06023,-0.55501 -0.180664,-0.68848 -0.120447,-0.13671 -0.289717,-0.20507 -0.507813,-0.20508 -0.240888,10e-6 -0.436201,0.0912 -0.585937,0.27344 -0.149743,0.1823 -0.224612,0.50944 -0.22461,0.98145 l 0,2.49023 -1.987304,0 0,-8.35776"
       sodipodi:nodetypes="ccccscsccccccsccc" />
    <path
       inkscape:connector-curvature="0"
       id="path3004"
       style="font-size:10px;font-style:normal;font-variant:normal;font-weight:normal;font-stretch:normal;text-align:start;line-height:125%;letter-spacing:0px;word-spacing:0px;writing-mode:lr-tb;text-anchor:start;fill:#008080;fill-opacity:1;stroke:none;font-family:Arial Black;-inkscape-font-specification:'Arial Black,';opacity:0.8"
       d="m 88.865791,266.85263 1.987305,0 0,5.18555 -1.987305,0 0,-5.18555"
       sodipodi:nodetypes="ccccc" />
    <path
       inkscape:connector-curvature="0"
       id="path3006"
       style="font-size:10px;font-style:normal;font-variant:normal;font-weight:normal;font-stretch:normal;text-align:start;line-height:125%;letter-spacing:0px;word-spacing:0px;writing-mode:lr-tb;text-anchor:start;opacity:0.8;fill:#800080;fill-opacity:1;stroke:none;font-family:Arial Black;-inkscape-font-specification:'Arial Black,'"
       d="m 94.344307,266.85263 5.08346,0 0,1.45508 -5.08346,0 0,3.73047 -1.992188,0 0,-3.73047 -0.742187,0 0,-1.45508 0.742187,0 0,-0.23437 c 0,-0.21158 0.02279,-1.29254 0.06836,-1.54645 0.04557,-0.2539 0.130207,-0.46061 0.253906,-0.62012 0.126952,-0.16275 0.302733,-0.29296 0.527344,-0.39063 0.227863,-0.1009 0.559893,-0.15136 0.996094,-0.15136 0.348304,0 0.854488,0.0407 1.518554,0.12207 l -0.219726,1.20117 c -0.237634,-0.0391 -0.429691,-0.0586 -0.576172,-0.0586 -0.17904,0 -0.30762,0.0309 -0.385742,0.0928 -0.07813,0.0586 -0.133467,0.153 -0.166016,0.2832 -0.01628,0.0716 -0.02442,1.0712 -0.02441,1.30231"
       sodipodi:nodetypes="ccccccccccssccsccsccc" />
    <path
       inkscape:connector-curvature="0"
       id="path3008"
       style="font-size:10px;font-style:normal;font-variant:normal;font-weight:normal;font-stretch:normal;text-align:start;line-height:125%;letter-spacing:0px;word-spacing:0px;writing-mode:lr-tb;text-anchor:start;opacity:0.8;fill:#800080;fill-opacity:1;stroke:none;font-family:Arial Black;-inkscape-font-specification:'Arial Black,'"
       d="m 98.416573,264.87998 0,1.97265 c 0,0.79593 0,0.87564 0,1.4502 l 0,1.84082 c -3e-6,0.22136 0.02116,0.36784 0.06348,0.43945 0.0651,0.11068 0.179033,0.16602 0.341797,0.16602 0.146481,0 0.351559,-0.0423 0.615234,-0.12695 l 0.146485,1.37207 c -0.49154,0.10742 -0.950524,0.16113 -1.376953,0.16113 -0.494794,0 -0.859377,-0.0635 -1.09375,-0.19043 -0.234377,-0.12695 -0.40853,-0.31901 -0.522461,-0.57617 -0.110678,-0.26042 -0.166017,-0.68034 -0.166016,-1.25977 l 0,-1.82617 c 0,-0.49982 0,-0.9103 0,-1.4502 l 0,-0.95214 1.992188,-1.02051"
       sodipodi:nodetypes="cccccsccsccscccc" />
  </g>
</svg>
