<?xml version="1.0" encoding="UTF-8" standalone="no"?>
<!-- Created with Inkscape (http://www.inkscape.org/) -->

<svg
   xmlns:dc="http://purl.org/dc/elements/1.1/"
   xmlns:cc="http://creativecommons.org/ns#"
   xmlns:rdf="http://www.w3.org/1999/02/22-rdf-syntax-ns#"
   xmlns:svg="http://www.w3.org/2000/svg"
   xmlns="http://www.w3.org/2000/svg"
   xmlns:xlink="http://www.w3.org/1999/xlink"
   xmlns:sodipodi="http://sodipodi.sourceforge.net/DTD/sodipodi-0.dtd"
   xmlns:inkscape="http://www.inkscape.org/namespaces/inkscape"
   width="744.09448819"
   height="1052.3622047"
   id="svg2"
   version="1.1"
   inkscape:version="0.48.0 r9654"
   sodipodi:docname="try5.svg">
  <defs
     id="defs4" />
  <sodipodi:namedview
     id="base"
     pagecolor="#ffffff"
     bordercolor="#666666"
     borderopacity="1.0"
     inkscape:pageopacity="0.0"
     inkscape:pageshadow="2"
     inkscape:zoom="2"
     inkscape:cx="377.14395"
     inkscape:cy="698.0405"
     inkscape:document-units="px"
     inkscape:current-layer="layer1"
     showgrid="false"
     inkscape:window-width="1680"
     inkscape:window-height="1004"
     inkscape:window-x="0"
     inkscape:window-y="0"
     inkscape:window-maximized="1" />
  <metadata
     id="metadata7">
    <rdf:RDF>
      <cc:Work
         rdf:about="">
        <dc:format>image/svg+xml</dc:format>
        <dc:type
           rdf:resource="http://purl.org/dc/dcmitype/StillImage" />
        <dc:title></dc:title>
      </cc:Work>
    </rdf:RDF>
  </metadata>
  <g
     inkscape:label="Layer 1"
     inkscape:groupmode="layer"
     id="layer1">
    <path
       inkscape:connector-curvature="0"
       id="path2992"
       style="font-size:10px;font-style:normal;font-variant:normal;font-weight:normal;font-stretch:normal;text-align:start;line-height:125%;letter-spacing:0px;word-spacing:0px;writing-mode:lr-tb;text-anchor:start;opacity:0.8;fill:#000080;fill-opacity:1;stroke:none;font-family:Arial Black;-inkscape-font-specification:'Arial Black,'"
       d="m 83.803145,256.63254 52.586745,0 0,128.27456 540.57715,0 0,41.90675 -593.163895,0 0,-170.18131"
       sodipodi:nodetypes="ccccccc" />
    <path
       inkscape:connector-curvature="0"
       id="path2994"
       style="font-size:10px;font-style:normal;font-variant:normal;font-weight:normal;font-stretch:normal;text-align:start;line-height:125%;letter-spacing:0px;word-spacing:0px;writing-mode:lr-tb;text-anchor:start;opacity:0.8;fill:#808000;fill-opacity:1;stroke:none;font-family:Arial Black;-inkscape-font-specification:'Arial Black,'"
       d="m 241.21513,256.63254 47.24682,0 0,32.15571 -47.24682,0 0,-32.15571 m 0,46.89841 47.24682,0 0,123.2829 -47.24682,0 0,-123.2829" />
    <path
       inkscape:connector-curvature="0"
       id="path2996"
       style="font-size:10px;font-style:normal;font-variant:normal;font-weight:normal;font-stretch:normal;text-align:start;line-height:125%;letter-spacing:0px;word-spacing:0px;writing-mode:lr-tb;text-anchor:start;opacity:0.8;fill:#008000;fill-opacity:1;stroke:none;font-family:Arial Black;-inkscape-font-specification:'Arial Black,'"
       d="m 304.83,303.53095 49.22027,0 23.91361,78.12573 24.72622,-78.12573 47.71115,0 -52.35456,123.2829 -41.90689,0 -51.3098,-123.2829" />
    <path
       inkscape:connector-curvature="0"
       id="path2998"
       style="font-size:10px;font-style:normal;font-variant:normal;font-weight:normal;font-stretch:normal;text-align:start;line-height:125%;letter-spacing:0px;word-spacing:0px;writing-mode:lr-tb;text-anchor:start;opacity:0.8;fill:#d45500;fill-opacity:1;stroke:none;font-family:Arial Black;-inkscape-font-specification:'Arial Black,'"
       d="m 595.04381,374.24385 -94.72579,0 c 0.85112,7.58424 2.90209,13.23373 6.15253,16.94847 4.56598,5.33995 10.52504,8.01004 17.8772,8.01004 4.64331,0 9.05456,-1.16018 13.23373,-3.4827 2.55379,-1.46925 5.30115,-4.06303 8.24208,-7.77777 l 46.5503,4.29531 c -7.12005,12.38238 -15.71037,21.28229 -25.771,26.69951 -10.06086,5.33995 -24.49413,8.01004 -43.2999,8.01004 -16.32941,0 -29.1762,-2.28233 -38.5404,-6.84914 -9.36425,-4.64336 -17.14197,-11.95682 -23.33319,-21.94013 -6.11385,-10.06058 -9.17075,-21.86262 -9.17075,-35.40614 0,-19.27003 6.15251,-34.86408 18.4576,-46.78239 12.38242,-11.91806 29.44698,-17.87709 51.19371,-17.87709 17.64492,0 31.57517,2.67009 41.7908,8.0098 10.2154,5.33995 17.99312,13.07921 23.33318,23.21705 5.33979,10.13832 8.00976,23.3333 8.0099,39.58519 l 0,5.33995 m -48.0594,-22.63672 c -0.92886,-9.13195 -3.40526,-15.67132 -7.42947,-19.61833 -3.94701,-3.94677 -9.17085,-5.92028 -15.67155,-5.92052 -7.50693,2.4e-4 -13.50467,2.97964 -17.99326,8.93867 -2.8635,3.71474 -4.68216,9.24821 -5.45602,16.60018 l 46.5503,0" />
    <path
       inkscape:connector-curvature="0"
       style="font-size:10px;font-style:normal;font-variant:normal;font-weight:normal;font-stretch:normal;text-align:start;line-height:125%;letter-spacing:0px;word-spacing:0px;writing-mode:lr-tb;text-anchor:start;opacity:0.8;fill:#800000;fill-opacity:1;stroke:none;font-family:Arial Black;-inkscape-font-specification:'Arial Black,'"
       id="path3000"
       d="m 74.632393,563.5875 13.803416,-0.86539 36.229441,-2.27045 c 1.0834,8.12607 3.28904,14.31737 6.61687,18.57369 5.41726,6.88789 13.1563,10.3316 23.21712,10.3316 7.50676,0 13.27234,-1.74028 17.29674,-5.22393 4.10157,-3.55973 6.15241,-7.66151 6.15253,-12.30487 -1.2e-4,-4.41132 -1.93475,-8.3581 -5.80428,-11.8408 -3.86961,-3.48246 -12.84688,-6.77164 -26.93183,-9.86729 -23.0624,-5.18518 -39.50783,-12.07284 -49.336348,-20.66321 -9.905996,-8.59014 -14.858971,-19.54106 -14.858947,-32.8523 -2.4e-5,-8.74491 2.515156,-16.98699 7.54554,-24.726 5.107745,-7.81629 12.730695,-13.93033 22.868845,-18.34165 10.21549,-4.48836 24.18443,-8.8557 41.9069,-8.8557 80.23054,-0.0238 522.47049,1.81874 522.47049,1.81874 -0.28316,30.48628 -0.27341,31.42061 -0.27341,31.42061 -84.65252,0 -451.03853,0.57534 -527.4208,0.57534 -6.1139,0 -10.71863,1.31472 -13.81416,3.94677 -3.0957,2.55408 -4.64351,5.68825 -4.64344,9.40298 -7e-5,2.70885 1.27692,5.14667 3.83083,7.31346 2.47643,2.24429 8.35808,4.33382 17.64499,6.26857 22.98484,4.95314 39.43027,9.98331 49.33637,15.09099 9.98319,5.03064 17.21919,11.29922 21.70799,18.80596 4.56586,7.50698 6.84888,15.90383 6.84905,25.19055 -1.7e-4,10.91217 -3.01839,20.97275 -9.05469,30.18221 -6.03658,9.20946 -14.47214,16.21337 -25.30664,21.0115 -10.83476,4.72087 -24.49415,7.08118 -40.9782,7.08118 -28.94404,0 -48.98812,-5.57198 -60.132303,-16.7162 C 82.410256,594.92965 76.10293,580.76706 74.632536,563.58655"
       sodipodi:nodetypes="ccccscccccscccccccccccccccssc" />
    <path
       inkscape:connector-curvature="0"
       id="path3002"
       style="font-size:10px;font-style:normal;font-variant:normal;font-weight:normal;font-stretch:normal;text-align:start;line-height:125%;letter-spacing:0px;word-spacing:0px;writing-mode:lr-tb;text-anchor:start;opacity:0.8;fill:#808000;fill-opacity:1;stroke:none;font-family:Arial Black;-inkscape-font-specification:'Arial Black,'"
       d="m 241.21808,424.24432 47.24679,0 0,91.20494 c 6.42335,-6.65562 12.80804,-11.415 19.15411,-14.27862 6.34594,-2.86338 13.8528,-4.29506 22.52061,-4.29506 12.84669,0 22.94611,3.90826 30.29832,11.72454 7.42933,7.81652 11.14407,19.81209 11.14421,35.98647 l 0,78.35777 -47.47898,0 0,-67.79389 c -9e-5,-7.73902 -1.43192,-13.19499 -4.29516,-16.36814 -2.86354,-3.25019 -6.88782,-4.8754 -12.07291,-4.87564 -5.72694,2.4e-4 -10.37038,2.16822 -13.93025,6.50085 -3.56004,4.33406 -5.33999,12.11159 -5.33995,23.3333 l 0,59.20352 -47.24679,0 0,-198.70004"
       sodipodi:nodetypes="ccccscsccccccsccc" />
    <path
       inkscape:connector-curvature="0"
       id="path3004"
       style="font-size:10px;font-style:normal;font-variant:normal;font-weight:normal;font-stretch:normal;text-align:start;line-height:125%;letter-spacing:0px;word-spacing:0px;writing-mode:lr-tb;text-anchor:start;opacity:0.8;fill:#008080;fill-opacity:1;stroke:none;font-family:Arial Black;-inkscape-font-specification:'Arial Black,'"
       d="m 413.0217,499.6082 47.24682,0 0,123.2829 -47.24682,0 0,-123.2829"
       sodipodi:nodetypes="ccccc" />
    <path
       inkscape:connector-curvature="0"
       id="path3006"
       style="font-size:10px;font-style:normal;font-variant:normal;font-weight:normal;font-stretch:normal;text-align:start;line-height:125%;letter-spacing:0px;word-spacing:0px;writing-mode:lr-tb;text-anchor:start;opacity:0.8;fill:#800080;fill-opacity:1;stroke:none;font-family:Arial Black;-inkscape-font-specification:'Arial Black,'"
       d="m 543.26968,499.6082 120.85578,0 0,34.59353 -120.85578,0 0,88.68937 -47.36291,0 0,-88.68937 -17.64499,0 0,-34.59353 17.64499,0 0,-5.57199 c 0,-5.03017 0.54182,-30.72926 1.62521,-36.76579 1.0834,-6.0363 3.09558,-10.95069 6.03644,-14.74293 3.0182,-3.86927 7.19727,-6.96493 12.53725,-9.28696 5.41728,-2.39883 13.31107,-3.59848 23.68145,-3.59848 8.28069,0 20.31487,0.96761 36.10258,2.90213 l -5.22383,28.55699 c -5.64959,-0.92957 -10.21561,-1.39317 -13.6981,-1.39317 -4.25655,0 -7.31345,0.73462 -9.17075,2.20625 -1.85749,1.39318 -3.17309,3.63747 -3.94692,6.73289 -0.38704,1.70224 -0.58057,25.46705 -0.58033,30.96153"
       sodipodi:nodetypes="ccccccccccssccsccsccc" />
    <path
       inkscape:connector-curvature="0"
       id="path3008"
       style="font-size:10px;font-style:normal;font-variant:normal;font-weight:normal;font-stretch:normal;text-align:start;line-height:125%;letter-spacing:0px;word-spacing:0px;writing-mode:lr-tb;text-anchor:start;opacity:0.8;fill:#800080;fill-opacity:1;stroke:none;font-family:Arial Black;-inkscape-font-specification:'Arial Black,'"
       d="m 640.08502,452.70979 0,46.89841 c 0,18.92269 0,20.81774 0,34.47751 l 0,43.76424 c -7e-5,5.26268 0.50306,8.74514 1.50919,10.44762 1.54771,2.63134 4.25639,3.94701 8.12599,3.94701 3.48249,0 8.35808,-1.00565 14.62677,-3.01815 l 3.48258,32.62003 c -11.68603,2.55384 -22.59806,3.83075 -32.73612,3.83075 -11.76339,0 -20.4311,-1.50966 -26.00315,-4.52734 -5.57216,-3.01815 -9.71253,-7.58424 -12.42116,-13.69805 -2.63129,-6.1913 -3.94694,-16.17461 -3.94691,-29.95017 l 0,-43.41594 c 0,-11.88288 0,-21.64176 0,-34.47751 l 0,-22.63648 47.3629,-24.26193"
       sodipodi:nodetypes="cccccsccsccscccc" />
    <g
       id="g3180"
       transform="matrix(-0.16699157,0,0,-0.16699157,576.97188,441.5803)">
      <rect
         width="13.745957"
         height="35.259808"
         x="356.12924"
         y="88.684883"
         transform="matrix(0.996096,0.0882794,-0.0882794,0.996096,0,0)"
         id="rect2400"
         style="fill:#000000;fill-opacity:1;fill-rule:evenodd;stroke:none;stroke-width:0.5;marker:none;visibility:visible;display:inline;overflow:visible" />
      <rect
         width="13.74596"
         height="35.259808"
         x="402.14154"
         y="41.126842"
         transform="matrix(0.97767,0.210144,-0.210144,0.97767,0,0)"
         id="rect3172"
         style="fill:#000000;fill-opacity:1;fill-rule:evenodd;stroke:none;stroke-width:0.5;marker:none;visibility:visible;display:inline;overflow:visible" />
      <rect
         width="13.745959"
         height="35.259808"
         x="441.40332"
         y="-0.64356124"
         transform="matrix(0.952779,0.303664,-0.303664,0.952779,0,0)"
         id="rect3174"
         style="fill:#000000;fill-opacity:1;fill-rule:evenodd;stroke:none;stroke-width:0.5;marker:none;visibility:visible;display:inline;overflow:visible" />
      <rect
         width="13.74596"
         height="35.259808"
         x="472.91574"
         y="-81.153206"
         transform="matrix(0.887771,0.460285,-0.460285,0.887771,0,0)"
         id="rect3176"
         style="fill:#000000;fill-opacity:1;fill-rule:evenodd;stroke:none;stroke-width:0.5;marker:none;visibility:visible;display:inline;overflow:visible" />
      <rect
         width="27.705935"
         height="85.763885"
         x="498.01544"
         y="-104.13171"
         transform="matrix(0.865233,0.50137,-0.50137,0.865233,0,0)"
         id="rect3178"
         style="fill:#000000;fill-opacity:1;fill-rule:evenodd;stroke:none;stroke-width:0.5;marker:none;visibility:visible;display:inline;overflow:visible" />
    </g>
    <use
       transform="matrix(0.862442,0.506156,-0.506156,0.862442,255.75136,-214.86865)"
       id="use3187"
       x="0"
       y="0"
       width="744.09448"
       height="1052.3622"
       xlink:href="#g3180" />
    <use
       transform="matrix(-0.0316159,0.9995,-0.9995,-0.0316159,901.67894,-148.05048)"
       id="use3193"
       x="0"
       y="0"
       width="744.09448"
       height="1052.3622"
       xlink:href="#g3180" />
    <use
       transform="matrix(-0.495114,0.868828,-0.868828,-0.495114,1098.6392,86.260721)"
       id="use3195"
       x="0"
       y="0"
       width="744.09448"
       height="1052.3622"
       xlink:href="#g3180" />
    <use
       transform="matrix(0.468833,-0.883287,0.883287,0.468833,-42.414474,656.36083)"
       id="use3199"
       x="0"
       y="0"
       width="744.09448"
       height="1052.3622"
       xlink:href="#g3180" />
    <use
       transform="matrix(-0.00102917,-0.999999,0.999999,-0.00102917,163.30912,886.09728)"
       id="use3201"
       x="0"
       y="0"
       width="744.09448"
       height="1052.3622"
       xlink:href="#g3180" />
    <g
       id="g3246"
       transform="matrix(-0.16699157,0,0,-0.16699157,576.97188,441.5803)">
      <rect
         width="13.745956"
         height="35.259808"
         x="83.825287"
         y="207.74258"
         transform="matrix(0.906092,-0.42308,0.42308,0.906092,0,0)"
         id="rect3231"
         style="fill:#000000;fill-opacity:1;fill-rule:evenodd;stroke:none;stroke-width:0.5;marker:none;visibility:visible;display:inline;overflow:visible" />
      <rect
         width="13.745959"
         height="35.259804"
         x="146.55168"
         y="192.7778"
         transform="matrix(0.951256,-0.308404,0.308404,0.951256,0,0)"
         id="rect3233"
         style="fill:#000000;fill-opacity:1;fill-rule:evenodd;stroke:none;stroke-width:0.5;marker:none;visibility:visible;display:inline;overflow:visible" />
      <rect
         width="13.745957"
         height="35.259804"
         x="201.66933"
         y="175.0033"
         transform="matrix(0.976612,-0.215009,0.215009,0.976612,0,0)"
         id="rect3235"
         style="fill:#000000;fill-opacity:1;fill-rule:evenodd;stroke:none;stroke-width:0.5;marker:none;visibility:visible;display:inline;overflow:visible" />
      <rect
         width="13.74596"
         height="35.259808"
         x="262.70715"
         y="141.97794"
         transform="matrix(0.996824,-0.0796395,0.0796395,0.996824,0,0)"
         id="rect3237"
         style="fill:#000000;fill-opacity:1;fill-rule:evenodd;stroke:none;stroke-width:0.5;marker:none;visibility:visible;display:inline;overflow:visible" />
      <rect
         width="26.694605"
         height="106.97702"
         x="303.15683"
         y="119.95148"
         transform="matrix(1,-5.49364e-5,5.49364e-5,1,0,0)"
         id="rect3239"
         style="fill:#000000;fill-opacity:1;fill-rule:evenodd;stroke:none;stroke-width:0.5;marker:none;visibility:visible;display:inline;overflow:visible" />
    </g>
    <use
       transform="matrix(0.0228643,0.999739,-0.999739,0.0228643,873.71547,-170.87307)"
       id="use3253"
       x="0"
       y="0"
       width="744.09448"
       height="1052.3622"
       xlink:href="#g3246" />
    <use
       transform="matrix(-0.999127,0.041777,-0.041777,-0.999127,1065.2196,701.90121)"
       id="use3255"
       x="0"
       y="0"
       width="744.09448"
       height="1052.3622"
       xlink:href="#g3180" />
    <use
       transform="matrix(-1,0,0,-1,1048.5724,723.59915)"
       id="use3257"
       x="0"
       y="0"
       width="744.09448"
       height="1052.3622"
       xlink:href="#g3246" />
    <use
       transform="matrix(-0.881807,-0.471611,0.471611,-0.881807,817.32891,928.69928)"
       id="use3259"
       x="0"
       y="0"
       width="744.09448"
       height="1052.3622"
       xlink:href="#g3180" />
    <use
       transform="matrix(0,-1,1,0,162.93316,885.66362)"
       id="use3261"
       x="0"
       y="0"
       width="744.09448"
       height="1052.3622"
       xlink:href="#g3246" />
    <path
       inkscape:connector-curvature="0"
       d="m 533.09069,372.6819 3.40221,-4.90897 -41.44096,-28.53446 c -1.44882,2.50673 -1.98456,3.13863 -3.15155,5.15774 z"
       id="rect3263"
       style="fill:#000000;fill-opacity:1;fill-rule:evenodd;stroke:none;stroke-width:0.5;marker:none;visibility:visible;display:inline;overflow:visible"
       sodipodi:nodetypes="ccccc"
       inkscape:transform-center-x="9.479865"
       inkscape:transform-center-y="-7.23783" />
    <path
       inkscape:connector-curvature="0"
       d="m 510.78693,372.33988 -2.12419,-3.43674 64.00984,-33.66013 c 1.66325,2.88084 1.648,2.75839 2.12052,4.52188 z"
       id="path3268"
       style="fill:#000000;fill-opacity:1;fill-rule:evenodd;stroke:none;stroke-width:0.5;marker:none;visibility:visible;display:inline;overflow:visible"
       sodipodi:nodetypes="ccccc" />
    <path
       inkscape:connector-curvature="0"
       d="m 522.28735,379.52205 7.32154,-40.50067 c 0.16513,0.0118 0.32766,0.0209 0.49576,0.0209 3.85021,0 6.97711,-3.13113 6.97711,-6.99277 0,-3.17149 -2.10787,-5.85407 -4.99409,-6.71098 l 3.105,-17.17925 -0.31833,-0.70972 -0.58968,0.45401 -3.51205,17.17926 c -0.21925,-0.0209 -0.44329,-0.0313 -0.66796,-0.0313 -3.85022,0 -6.9719,3.13635 -6.9719,6.99799 0,3.12184 2.0417,5.76463 4.85841,6.664 l -8.24521,40.35978 2.5414,0.44879 z m 7.69727,-44.30495 c -1.78506,0 -3.23546,-1.44581 -3.23546,-3.22503 0,-1.7792 1.4504,-3.2198 3.23546,-3.2198 1.78506,0 3.23024,1.4406 3.23024,3.2198 10e-6,1.77922 -1.44518,3.22503 -3.23024,3.22503 z"
       id="path3274"
       style="fill:#a40000;fill-opacity:1;fill-rule:evenodd;stroke:none;stroke-width:0.5;marker:none;visibility:visible;display:inline;overflow:visible" />
  </g>
</svg>
